<svg width="116" height="120" viewBox="0 0 116 120" fill="none" xmlns="http://www.w3.org/2000/svg">
<path d="M55.3843 26.6233C55.3843 20.8631 55.5595 15.2434 55.3343 9.62374C55.1841 6.01777 51.43 3.51231 47.3755 4.00404C43.5713 4.47235 40.0425 5.78361 36.6888 7.46952C36.0381 7.79734 35.4124 8.14857 34.8117 8.47639C36.1632 9.15543 37.5397 9.76423 38.7911 10.5369C40.6682 11.6375 41.9446 13.2765 43.0458 15.0561C43.5463 15.8522 42.9457 17.4913 42.0947 17.9362C41.2188 18.3811 39.7421 17.9596 39.1165 17.023C37.7149 14.9156 35.988 13.1595 33.235 12.6209C30.4069 12.0589 27.8291 12.4804 25.5015 14.2366C23.3241 15.8757 22.323 18.0299 22.2229 20.4885C22.1729 21.7998 22.7986 23.1579 23.3492 24.3989C23.5243 24.7735 24.5004 24.9374 25.1261 25.0311C28.6049 25.476 31.6583 26.8341 34.186 29.0351C37.1143 31.6108 39.1165 34.7251 39.617 38.5652C39.7421 39.5252 39.8423 40.4853 39.8673 41.4453C39.8923 42.5458 39.1165 43.2483 37.9902 43.3185C36.6387 43.3888 35.7878 42.8268 35.6376 41.6326C35.3123 38.9633 34.8368 36.3642 32.9847 34.1397C30.6321 31.3064 27.729 29.5503 23.8747 29.0117C16.6919 28.0049 10.3349 33.1094 9.13356 39.1038C8.68307 41.3048 8.95837 43.5059 9.83433 45.6367C10.3098 46.8074 10.1096 47.7909 9.05847 48.6338C6.75595 50.5071 5.2543 52.8252 4.75375 55.6819C4.12807 59.3581 4.90392 62.6831 7.48175 65.61C9.60908 68.0452 12.287 69.5907 15.5906 70.1292C16.4666 70.2697 17.3676 70.3634 18.2686 70.457C19.57 70.5741 19.9705 71.5107 20.0205 72.4708C20.0956 73.501 18.8192 74.5781 17.6179 74.4376C15.5156 74.1801 13.3882 73.8991 11.4111 73.2669C9.55902 72.6581 7.88219 71.581 6.10524 70.6912C4.02796 74.1801 3.9779 77.95 5.67977 81.6496C6.806 84.0848 8.70809 86.0985 11.2609 87.3161C13.7636 88.5103 13.5884 88.9786 13.4383 91.5309C13.3131 93.6383 13.5634 95.8862 14.2642 97.8765C15.6407 101.74 18.5439 104.526 22.4982 106.306C22.7485 106.423 23.0238 106.493 23.2991 106.564C24.9009 107.032 26.0021 107.875 27.0032 109.28C29.581 112.933 33.235 115.157 38.0653 115.719C43.296 116.328 47.6008 114.689 51.1547 111.27C53.8576 108.648 55.3843 105.463 55.3843 101.763C55.3843 79.5188 55.3843 57.2507 55.4093 35.0061C55.4093 32.5709 53.0317 29.2927 49.8783 29.0351C49.4278 28.9883 49.0023 28.8478 48.5518 28.8244C47.2504 28.7073 46.5997 27.9814 46.6247 26.7404C46.6497 25.5931 47.4005 24.8906 48.6269 24.8438C50.8293 24.7501 52.8565 25.2418 54.6835 26.3892C54.8337 26.4594 55.059 26.5063 55.3843 26.6233ZM30.7323 55.6819C30.507 55.6116 30.2818 55.5648 30.0815 55.4946C28.2796 54.9326 26.3274 54.5814 24.7006 53.715C21.0967 51.8183 18.2936 49.0787 16.9171 45.4025C16.1913 43.459 15.941 41.3282 15.6407 39.2443C15.4905 38.1437 16.3915 37.3242 17.3676 37.2305C18.7942 37.09 19.57 37.5349 19.8453 38.8462C20.0205 39.6657 19.9955 40.5321 20.1707 41.3516C20.8965 44.6766 22.7235 47.3694 25.6767 49.3597C29.0054 51.5842 32.6844 52.1696 36.6137 51.2564C38.9913 50.6944 40.9935 49.4534 42.8706 47.9548C43.3211 47.5802 44.172 47.2992 44.7476 47.3928C46.7248 47.7441 47.2504 49.6875 45.7237 51.0691C43.1709 53.3872 40.1676 54.9794 36.6137 55.4946C35.7628 55.6116 35.2873 55.8224 35.037 56.759C34.7367 57.9532 34.136 59.124 33.4853 60.2011C31.5081 63.3622 28.4798 65.2354 24.7006 65.9613C23.5494 66.172 22.248 66.1486 21.1467 65.8442C20.0706 65.5398 19.8954 64.4393 20.1456 63.4792C20.3959 62.5192 21.1467 62.0743 22.2479 62.0509C26.3525 61.9338 29.8563 59.2645 30.7323 55.6819ZM31.1077 85.0682C31.1077 84.436 31.0826 84.0146 31.1077 83.5931C31.1577 83.1482 31.2578 82.6799 31.3329 82.235C32.2339 76.826 35.3123 72.8922 40.3929 70.2463C42.9206 68.9116 45.6737 68.5135 48.4767 68.2091C49.5529 68.0921 50.7793 69.0053 50.8543 69.9419C50.9795 71.4873 50.2787 72.3068 48.8021 72.4005C48.0763 72.4473 47.3255 72.541 46.5997 72.6347C40.0675 73.4776 34.5114 79.7529 35.6627 86.1454C39.7421 87.8313 42.8706 90.4772 44.7727 94.2705C45.7738 96.2608 46.3244 98.3448 46.4495 100.569C46.4996 101.529 46.3994 102.349 45.7237 102.958C45.048 103.566 43.9468 103.684 43.246 103.192C42.6453 102.77 42.1448 101.881 42.1198 101.201C41.8945 96.7291 39.6671 93.3807 35.8379 90.9221C33.8607 89.6577 31.5832 89.002 29.1305 89.0255C28.1544 89.0255 27.3035 88.7445 26.853 87.9249C26.4025 87.1288 26.3775 86.1454 27.1533 85.6302C27.8541 85.1619 28.8302 85.0683 29.7061 84.9043C30.1316 84.7873 30.5571 84.9746 31.1077 85.0682Z" fill="#1E90FF"/>
<path d="M109.093 70.5508C108.117 71.1361 107.141 71.7215 106.14 72.2835C103.512 73.7587 100.634 74.4143 97.6055 74.4377C95.8286 74.4611 94.5271 72.705 95.7034 71.2766C96.1539 70.7147 97.2051 70.2932 97.9809 70.2932C103.787 70.2229 109.519 65.6335 110.445 60.2246C111.145 56.08 110.319 52.357 106.991 49.4769C105.239 47.9315 105.039 46.5031 105.739 44.4894C107.416 39.5487 105.214 34.4442 100.884 31.3767C98.6817 29.8079 96.204 28.9415 93.526 28.8713C90.1974 28.7542 87.144 29.7377 84.5912 31.8216C82.2637 33.6949 80.6119 35.9896 80.0362 38.8697C79.8611 39.7595 79.7609 40.6961 79.6358 41.5859C79.4356 42.8503 78.6347 43.4357 77.2332 43.342C76.0569 43.2484 75.4062 42.5225 75.3811 41.3049C75.3561 37.2774 76.7827 33.7651 79.5357 30.6509C82.6141 27.162 86.6185 25.4761 91.2485 24.8204C91.5739 24.7736 91.9743 24.3989 92.1495 24.0945C93.8264 20.91 92.8253 16.8358 90.0222 14.4474C86.1429 11.1692 79.2354 11.8483 76.5825 16.5079C76.132 17.3041 75.5563 18.0534 74.355 18.0768C73.3789 18.1002 72.5781 17.7724 72.3278 17.0699C72.0775 16.4143 72.1276 15.5011 72.478 14.8923C74.1047 11.8951 76.6575 9.83455 80.1113 8.82769C80.2615 8.78086 80.3866 8.66378 80.5618 8.5467C77.2081 6.57981 73.6292 5.10463 69.8 4.28509C67.072 3.69971 64.4191 3.69971 62.1416 5.61977C60.8402 6.7203 59.9392 8.05498 59.9142 9.67064C59.8641 17.9129 59.8891 26.1317 59.8891 34.3739C59.8891 34.5144 59.9142 34.6783 59.9142 34.6549C61.7162 34.1163 63.5181 33.5544 65.3201 33.0627C66.5965 32.7348 68.1232 33.2734 68.4986 34.2334C68.849 35.1232 68.7489 36.0832 67.8479 36.6218C67.2722 36.973 66.4964 37.1604 65.7956 37.2072C62.7673 37.3945 59.8641 40.1341 59.8641 43.0142C59.8391 58.3513 59.8641 73.6884 59.8641 89.0255C59.8641 89.0958 59.8891 89.1894 59.9142 89.4704C60.3396 89.0958 60.69 88.8148 61.0154 88.487C63.418 86.0518 66.3462 84.4595 69.75 83.5697C71.2766 83.1717 72.2777 83.4761 72.7533 84.5532C73.2538 85.7474 72.7533 86.8479 71.2516 87.363C68.5236 88.2997 66.0209 89.5641 64.0187 91.5544C60.0143 95.535 58.6378 101.974 61.1155 107.032C63.3429 111.621 67.072 114.525 72.2527 115.555C77.1581 116.539 81.7131 115.462 85.4672 112.183C86.7436 111.059 87.6696 109.561 88.921 108.367C89.6218 107.688 90.5478 107.126 91.4738 106.774C96.9298 104.761 100.434 101.084 101.61 95.7223C102.01 93.8725 101.76 91.8822 101.66 89.9856C101.61 88.8148 102.186 88.1826 103.187 87.7143C107.066 85.841 109.569 82.9844 110.47 78.9569C111.095 76.03 110.695 73.2435 109.093 70.5508ZM80.1364 57.7191C80.1864 58.0001 80.1864 58.2811 80.2865 58.5152C81.8132 62.0978 84.7414 63.8539 88.7458 64.1349C89.847 64.2052 90.8982 65.1184 90.9232 66.1018C90.9482 67.1087 89.847 68.1858 88.6957 68.0921C87.2441 67.9751 85.7425 67.858 84.366 67.4365C79.7109 66.0082 76.9328 62.8939 75.6564 58.5152C75.5563 58.164 75.1559 57.6489 74.8305 57.602C71.8523 57.2976 69.2744 56.1034 66.9219 54.4878C65.9458 53.8087 64.9947 52.9658 64.4692 51.9823C64.0437 51.2096 64.319 50.1325 65.3952 49.5939C66.5214 49.032 67.4725 49.3832 68.2984 50.1091C71.0514 52.5443 74.2549 53.7385 78.1091 53.598C81.4128 53.4809 84.1157 52.3336 86.4933 50.2964C89.3715 47.8378 90.723 44.7001 90.8982 41.1176C90.9482 40.2278 91.3987 39.5956 92.2496 39.3848C93.0505 39.1741 93.9515 39.057 94.6523 39.8297C95.6784 40.9771 95.303 42.3352 95.1028 43.5059C94.402 47.7207 92.4248 51.3267 88.7959 54.0663C86.2931 56.0098 83.465 57.1571 80.1364 57.7191ZM91.1234 88.9787C91.649 88.9787 92.1996 88.9787 92.7252 88.9787C94.5522 88.9787 95.278 89.728 95.1778 91.3905C95.1028 92.3974 94.0266 93.1466 92.4499 93.1701C87.8448 93.2871 84.5162 95.4414 81.9133 98.8366C80.2865 100.921 79.9862 103.332 79.6859 105.768C79.5357 106.915 78.8349 107.5 77.5335 107.477C76.2571 107.453 75.4312 106.798 75.4312 105.674C75.4312 104.761 75.5313 103.824 75.6815 102.911C76.5324 97.6424 79.5607 93.7086 84.4661 91.0861C86.5684 89.9621 86.6685 90.009 86.4182 87.8313C86.3932 87.5269 86.218 87.246 86.193 86.9416C85.4672 81.556 79.861 76.5685 73.6542 76.5217C72.7032 76.5217 71.652 76.3812 71.1765 75.3509C70.4758 73.7821 71.5519 72.1898 73.429 72.3772C75.5313 72.5879 77.6837 72.8689 79.6358 73.5714C84.4911 75.3275 87.995 78.512 89.6718 83.1951C90.3225 85.0215 90.6229 86.965 91.1234 88.9787Z" fill="#1E90FF"/>
</svg>
