<svg width="1160" height="168" viewBox="0 0 1160 168" fill="none" xmlns="http://www.w3.org/2000/svg">
<path opacity="0.25" d="M0.382103 131V0.0909052H20.1335V56.9801H85.3963V0.0909052H105.212V131H85.3963V73.919H20.1335V131H0.382103ZM161.014 133.173C154.793 133.173 149.168 132.023 144.139 129.722C139.111 127.378 135.126 123.99 132.186 119.558C129.288 115.126 127.839 109.693 127.839 103.259C127.839 97.7187 128.905 93.1591 131.036 89.5795C133.166 86 136.043 83.1662 139.665 81.0781C143.287 78.9901 147.335 77.4134 151.81 76.348C156.284 75.2827 160.844 74.473 165.489 73.919C171.369 73.2372 176.142 72.6832 179.807 72.2571C183.472 71.7884 186.135 71.0426 187.797 70.0199C189.459 68.9972 190.29 67.3352 190.29 65.0341V64.5866C190.29 59.0043 188.713 54.679 185.56 51.6108C182.449 48.5426 177.804 47.0085 171.625 47.0085C165.19 47.0085 160.119 48.4361 156.412 51.2912C152.747 54.1037 150.212 57.2358 148.805 60.6875L130.844 56.5966C132.974 50.6307 136.085 45.8153 140.176 42.1506C144.31 38.4432 149.061 35.7585 154.43 34.0966C159.8 32.392 165.446 31.5398 171.369 31.5398C175.29 31.5398 179.445 32.0085 183.834 32.946C188.266 33.8409 192.399 35.5028 196.234 37.9318C200.112 40.3608 203.287 43.8338 205.759 48.3509C208.23 52.8253 209.466 58.642 209.466 65.8011V131H190.801V117.577H190.034C188.798 120.048 186.945 122.477 184.473 124.864C182.001 127.25 178.827 129.232 174.949 130.808C171.071 132.385 166.426 133.173 161.014 133.173ZM165.169 117.832C170.453 117.832 174.97 116.788 178.72 114.7C182.513 112.612 185.389 109.885 187.349 106.518C189.352 103.109 190.354 99.4659 190.354 95.5881V82.9318C189.672 83.6136 188.351 84.2528 186.391 84.8494C184.473 85.4034 182.278 85.8935 179.807 86.3196C177.335 86.7031 174.928 87.0653 172.584 87.4062C170.24 87.7045 168.28 87.9602 166.703 88.1733C162.996 88.642 159.608 89.4304 156.54 90.5384C153.514 91.6463 151.085 93.2443 149.253 95.3324C147.463 97.3778 146.568 100.105 146.568 103.514C146.568 108.244 148.315 111.824 151.81 114.253C155.304 116.639 159.757 117.832 165.169 117.832ZM234.922 131V32.8182H315.015V131H296.286V49.3097H253.523V131H234.922ZM340.567 167.818V32.8182H359.232V48.7344H360.83C361.938 46.6889 363.536 44.3239 365.624 41.6392C367.712 38.9545 370.609 36.6108 374.317 34.608C378.024 32.5625 382.925 31.5398 389.018 31.5398C396.945 31.5398 404.018 33.5426 410.24 37.5483C416.462 41.554 421.341 47.3281 424.878 54.8707C428.457 62.4133 430.247 71.4901 430.247 82.1009C430.247 92.7116 428.479 101.81 424.942 109.395C421.405 116.937 416.547 122.754 410.368 126.845C404.189 130.893 397.136 132.918 389.21 132.918C383.244 132.918 378.365 131.916 374.572 129.913C370.822 127.911 367.882 125.567 365.751 122.882C363.621 120.197 361.98 117.811 360.83 115.723H359.679V167.818H340.567ZM359.295 81.9091C359.295 88.8125 360.297 94.8636 362.3 100.062C364.303 105.261 367.2 109.331 370.993 112.271C374.786 115.169 379.43 116.618 384.928 116.618C390.638 116.618 395.411 115.105 399.246 112.08C403.081 109.011 405.979 104.857 407.939 99.6151C409.942 94.3736 410.943 88.4716 410.943 81.9091C410.943 75.4318 409.963 69.6151 408.003 64.4588C406.085 59.3026 403.188 55.233 399.31 52.25C395.474 49.267 390.68 47.7756 384.928 47.7756C379.388 47.7756 374.7 49.2031 370.865 52.0582C367.072 54.9133 364.196 58.8977 362.236 64.0114C360.276 69.125 359.295 75.0909 359.295 81.9091ZM480.233 133.173C474.011 133.173 468.386 132.023 463.358 129.722C458.33 127.378 454.345 123.99 451.405 119.558C448.507 115.126 447.058 109.693 447.058 103.259C447.058 97.7187 448.124 93.1591 450.254 89.5795C452.385 86 455.261 83.1662 458.884 81.0781C462.506 78.9901 466.554 77.4134 471.028 76.348C475.503 75.2827 480.063 74.473 484.707 73.919C490.588 73.2372 495.361 72.6832 499.026 72.2571C502.69 71.7884 505.354 71.0426 507.016 70.0199C508.678 68.9972 509.509 67.3352 509.509 65.0341V64.5866C509.509 59.0043 507.932 54.679 504.778 51.6108C501.668 48.5426 497.023 47.0085 490.844 47.0085C484.409 47.0085 479.338 48.4361 475.631 51.2912C471.966 54.1037 469.43 57.2358 468.024 60.6875L450.062 56.5966C452.193 50.6307 455.304 45.8153 459.395 42.1506C463.528 38.4432 468.28 35.7585 473.649 34.0966C479.018 32.392 484.665 31.5398 490.588 31.5398C494.509 31.5398 498.663 32.0085 503.053 32.946C507.484 33.8409 511.618 35.5028 515.453 37.9318C519.331 40.3608 522.506 43.8338 524.977 48.3509C527.449 52.8253 528.685 58.642 528.685 65.8011V131H510.02V117.577H509.253C508.017 120.048 506.163 122.477 503.692 124.864C501.22 127.25 498.045 129.232 494.168 130.808C490.29 132.385 485.645 133.173 480.233 133.173ZM484.388 117.832C489.672 117.832 494.189 116.788 497.939 114.7C501.732 112.612 504.608 109.885 506.568 106.518C508.571 103.109 509.572 99.4659 509.572 95.5881V82.9318C508.891 83.6136 507.57 84.2528 505.609 84.8494C503.692 85.4034 501.497 85.8935 499.026 86.3196C496.554 86.7031 494.146 87.0653 491.803 87.4062C489.459 87.7045 487.499 87.9602 485.922 88.1733C482.214 88.642 478.827 89.4304 475.759 90.5384C472.733 91.6463 470.304 93.2443 468.472 95.3324C466.682 97.3778 465.787 100.105 465.787 103.514C465.787 108.244 467.534 111.824 471.028 114.253C474.523 116.639 478.976 117.832 484.388 117.832ZM554.141 131V32.8182H594.858C605.938 32.8182 614.716 35.1832 621.194 39.9134C627.671 44.6009 630.909 50.9716 630.909 59.0256C630.909 64.7784 629.077 69.3381 625.412 72.7045C621.748 76.071 616.89 78.3295 610.838 79.4801C615.228 79.9915 619.255 81.3125 622.919 83.4432C626.584 85.5312 629.525 88.3437 631.74 91.8807C633.999 95.4176 635.128 99.6364 635.128 104.537C635.128 109.736 633.786 114.338 631.101 118.344C628.417 122.307 624.517 125.418 619.404 127.676C614.333 129.892 608.218 131 601.059 131H554.141ZM572.103 115.02H601.059C605.789 115.02 609.496 113.891 612.181 111.632C614.865 109.374 616.208 106.305 616.208 102.428C616.208 97.8679 614.865 94.2884 612.181 91.6889C609.496 89.0469 605.789 87.7259 601.059 87.7259H572.103V115.02ZM572.103 73.7273H595.05C598.63 73.7273 601.698 73.2159 604.255 72.1932C606.854 71.1705 608.836 69.7216 610.199 67.8466C611.605 65.929 612.309 63.6705 612.309 61.071C612.309 57.2784 610.753 54.3168 607.642 52.1861C604.532 50.0554 600.27 48.9901 594.858 48.9901H572.103V73.7273ZM648.36 131L648.296 114.445H651.811C654.539 114.445 656.819 113.869 658.651 112.719C660.526 111.526 662.06 109.523 663.253 106.71C664.446 103.898 665.363 100.02 666.002 95.0767C666.641 90.0909 667.11 83.8267 667.408 76.2841L669.134 32.8182H737.657V131H718.928V49.3097H686.84L685.306 82.6761C684.922 90.7727 684.091 97.8466 682.813 103.898C681.577 109.949 679.766 114.999 677.38 119.047C674.993 123.053 671.925 126.057 668.175 128.06C664.425 130.02 659.865 131 654.496 131H648.36ZM805.46 132.982C795.787 132.982 787.456 130.915 780.467 126.781C773.521 122.605 768.152 116.746 764.359 109.203C760.609 101.618 758.734 92.733 758.734 82.5483C758.734 72.4915 760.609 63.6278 764.359 55.9574C768.152 48.2869 773.436 42.2997 780.212 37.9957C787.03 33.6918 794.999 31.5398 804.118 31.5398C809.658 31.5398 815.027 32.456 820.226 34.2884C825.425 36.1207 830.091 38.9972 834.224 42.9176C838.358 46.8381 841.618 51.9304 844.004 58.1946C846.391 64.4162 847.584 71.9801 847.584 80.8864V87.6619H769.537V73.3438H828.855C828.855 68.3153 827.832 63.8622 825.787 59.9844C823.741 56.0639 820.865 52.9744 817.158 50.7159C813.493 48.4574 809.189 47.3281 804.246 47.3281C798.876 47.3281 794.189 48.6491 790.183 51.2912C786.22 53.8906 783.152 57.2997 780.979 61.5185C778.848 65.6946 777.783 70.233 777.783 75.1335V86.3196C777.783 92.8821 778.933 98.4645 781.234 103.067C783.578 107.669 786.838 111.185 791.014 113.614C795.19 116 800.07 117.193 805.652 117.193C809.274 117.193 812.577 116.682 815.56 115.659C818.543 114.594 821.121 113.017 823.294 110.929C825.467 108.841 827.129 106.263 828.28 103.195L846.369 106.455C844.92 111.781 842.321 116.447 838.571 120.453C834.864 124.416 830.197 127.506 824.572 129.722C818.99 131.895 812.619 132.982 805.46 132.982ZM935.331 73.6634V90.2188H882.149V73.6634H935.331ZM887.518 32.8182V131H868.789V32.8182H887.518ZM948.69 32.8182V131H930.025V32.8182H948.69ZM992.987 104.217L1036.26 32.8182H1056.84V131H1038.11V59.5369L995.032 131H974.258V32.8182H992.987V104.217ZM1141.09 131V49.1179H1117.57C1111.99 49.1179 1107.64 50.4176 1104.53 53.017C1101.42 55.6165 1099.86 59.0256 1099.86 63.2443C1099.86 67.4205 1101.29 70.7869 1104.14 73.3438C1107.04 75.858 1111.09 77.1151 1116.29 77.1151H1146.65V92.5838H1116.29C1109.05 92.5838 1102.78 91.3906 1097.5 89.0043C1092.26 86.5753 1088.21 83.1449 1085.35 78.7131C1082.54 74.2812 1081.13 69.0398 1081.13 62.9886C1081.13 56.8097 1082.58 51.483 1085.48 47.0085C1088.42 42.4915 1092.62 38.9972 1098.07 36.5256C1103.57 34.054 1110.07 32.8182 1117.57 32.8182H1159.05V131H1141.09ZM1076.66 131L1104.34 81.3977H1123.9L1096.22 131H1076.66Z" fill="#F3F3F3"/>
</svg>
