<svg width="128" height="118" viewBox="0 0 128 118" fill="none" xmlns="http://www.w3.org/2000/svg">
<g clip-path="url(#clip0_935_7492)">
<path d="M-0.000380855 46.105C1.50021 46.3321 2.97578 46.105 4.45136 46.0292C14.4303 45.4741 24.4092 44.8937 34.363 44.3385C37.3892 44.1618 40.4404 43.9095 43.4666 43.8338C53.6206 43.5562 62.2739 51.9091 62.499 62.0536C62.524 63.2397 62.1489 63.492 61.0485 63.492C41.1907 63.4668 21.333 63.4668 1.4752 63.4668C0.975 63.4668 0.474805 63.5173 -0.0253906 63.5173C-0.000380855 57.7132 -0.000380855 51.9091 -0.000380855 46.105Z" fill="#1E90FF"/>
<path d="M0 67.5548C24.4596 67.5548 48.8941 67.5547 73.3536 67.5295C77.9304 67.5295 82.5072 67.5295 87.109 67.5295C87.5592 67.5295 88.2094 67.2772 88.4095 67.9333C88.5596 68.4632 88.0094 68.7156 87.6592 68.9932C84.0328 71.9709 79.9062 73.5607 75.2294 73.5607C51.0699 73.586 26.9105 73.5607 2.75107 73.5607C1.82571 73.5607 0.925361 73.5607 0 73.586C0 71.5924 0 69.5736 0 67.5548Z" fill="#1E90FF"/>
<path d="M75.0298 42.2942C81.0822 42.2942 86.0091 47.2655 86.0091 53.3725C86.0091 59.5299 81.0071 64.5264 74.9297 64.5012C68.9024 64.476 64.0005 59.4289 64.0255 53.3472C64.0255 47.2151 68.9524 42.2942 75.0298 42.2942Z" fill="#1E90FF"/>
<path d="M116.922 86.5819C116.497 89.0045 116.097 91.4271 115.672 93.8497C114.696 99.4014 113.696 104.928 112.771 110.48C112.571 111.64 112.145 111.969 110.995 111.969C86.9856 111.943 63.0012 111.943 38.9918 111.969C37.8664 111.969 37.3912 111.666 37.2162 110.505C36.0407 103.515 34.7902 96.5246 33.5647 89.5344C33.2396 87.7427 33.2396 87.7427 35.0653 87.7427C48.3955 87.7427 61.7257 87.7932 75.0559 87.7175C91.4123 87.6418 105.243 76.0588 108.369 59.9083C112.17 40.2248 98.215 21.2479 78.4823 19.33C68.0032 18.3206 58.9497 21.6012 51.2967 28.8689C50.7214 29.4241 50.1462 29.7269 49.3209 29.7269C44.8191 29.7017 40.3174 29.7269 35.8156 29.7017C35.4155 29.7017 34.8902 29.9035 34.6652 29.4493C34.4651 29.0456 34.8652 28.667 35.0903 28.339C42.9684 16.0746 54.0227 8.57977 68.3783 6.53572C91.1872 3.30561 112.421 16.7308 119.648 38.6854C128.627 65.9395 111.07 95.389 83.0341 100.133C73.9555 101.673 65.2021 100.663 56.7238 97.105C56.3486 96.9536 55.9485 96.7769 55.5733 96.6255C53.8727 96.0451 52.247 96.7517 51.6468 98.3163C51.0466 99.8304 51.7218 101.445 53.2974 102.177C55.8234 103.363 58.4495 104.373 61.1755 105.029C81.9336 110.025 99.6906 104.701 114.446 89.1307C115.247 88.2979 115.947 87.3642 116.697 86.5062C116.772 86.5314 116.847 86.5567 116.922 86.5819Z" fill="#1E90FF"/>
<g clip-path="url(#clip1_935_7492)">
<path d="M78.1342 149.447C78.1342 153.148 78.1342 156.45 78.1342 160.037C79.208 160.094 80.1688 160.208 81.1861 160.208C87.9681 160.208 94.7502 160.265 101.532 160.208C103.849 160.208 105.941 160.208 105.149 163.852C106.336 163.909 107.24 164.023 108.145 164.023C117.47 164.023 126.795 164.079 136.121 164.023C140.529 164.023 142.507 161.973 142.564 157.589C142.564 154.571 142.224 151.44 142.677 148.48C143.355 144.039 141.264 140.338 140.02 136.409C139.907 136.011 139.568 135.499 139.229 135.271C134.877 132.595 135.442 128.496 136.008 124.396C136.234 122.802 136.629 121.208 136.629 119.614C136.629 116.824 136.121 114.433 133.351 112.611C129.734 110.22 128.039 102.249 130.186 98.4344C131.091 96.8403 132.899 95.303 134.595 94.8476C140.981 93.0826 147.48 93.1965 153.867 94.7337C157.258 95.5308 158.84 98.1497 159.01 101.623C159.18 106.69 158.275 110.903 153.641 114.205C152.115 115.287 152.171 118.988 152.058 121.55C151.945 123.998 153.019 126.503 152.737 128.837C152.51 130.83 151.154 132.652 150.193 134.531C149.572 135.726 148.724 136.808 147.989 138.004C144.316 143.982 146.068 150.586 145.841 156.963C145.615 164.023 142.677 167.154 135.612 167.154C126.682 167.154 117.696 167.154 108.766 167.154C107.749 167.154 106.732 167.154 105.488 167.154C105.601 170.171 103.906 170.456 101.645 170.399C79.321 170.342 56.9968 170.342 34.6726 170.399C32.0163 170.399 30.999 169.716 31.1121 166.869C31.3381 159.411 30.1513 160.265 37.7811 160.208C44.5631 160.151 51.2886 160.208 58.1837 160.208C58.1837 156.564 58.1837 153.148 58.1837 149.447C57.0533 149.447 56.0926 149.447 55.0752 149.447C46.9933 149.447 38.8549 149.447 30.7729 149.447C24.8952 149.447 22.1259 146.601 22.1259 140.68C22.0693 121.834 22.0693 102.932 22.0693 84.0301C22.0693 77.7104 24.7256 75.0345 30.999 75.0345C55.7534 75.0345 80.5644 75.0345 105.319 75.0345C111.592 75.0345 114.192 77.7104 114.192 84.087C114.192 102.989 114.192 121.834 114.192 140.736C114.192 146.658 111.423 149.447 105.545 149.447C97.5195 149.504 89.5506 149.447 81.5252 149.447C80.4514 149.447 79.321 149.447 78.1342 149.447ZM68.4133 146.373C80.7339 146.373 93.1112 146.373 105.432 146.373C109.558 146.373 111.027 144.893 111.027 140.68C111.027 121.72 111.027 102.704 111.027 83.7454C111.027 79.5892 109.558 78.1659 105.319 78.1659C80.6209 78.1659 55.923 78.1659 31.2251 78.1659C26.5907 78.1659 25.2908 79.4753 25.2908 84.2578C25.2908 102.875 25.2908 121.436 25.2908 140.053C25.2908 145.177 26.4777 146.316 31.6772 146.373C43.8849 146.373 56.1491 146.316 68.4133 146.373ZM133.069 103.331C132.051 106.861 133.577 108.967 136.121 111.017C137.477 112.099 138.946 113.864 139.059 115.458C139.399 118.988 139.172 122.574 138.833 126.161C138.551 128.894 138.607 131.172 141.207 132.88C142.111 133.449 142.564 134.815 143.129 135.897C143.468 136.523 143.75 137.263 143.863 137.548C145.502 135.442 147.141 133.62 148.554 131.627C149.176 130.773 149.572 129.577 149.628 128.553C149.685 126.958 149.233 125.364 149.063 123.77C148.441 118.532 147.876 113.351 153.471 109.935C155.902 108.455 155.902 105.95 155.449 103.388C147.82 103.331 140.416 103.331 133.069 103.331ZM101.928 163.567C79.321 163.567 56.9403 163.567 34.4466 163.567C34.4466 164.82 34.4466 165.844 34.4466 167.04C56.9968 167.04 79.3775 167.04 101.928 167.04C101.928 165.901 101.928 164.877 101.928 163.567ZM61.7442 149.561C61.7442 153.262 61.7442 156.678 61.7442 160.265C64.0614 160.265 66.0961 160.265 68.1872 160.265C70.3348 160.265 72.426 160.265 74.5736 160.265C74.5736 156.507 74.5736 153.148 74.5736 149.561C71.1261 149.561 67.8481 149.561 64.5701 149.561C63.6658 149.561 62.7616 149.561 61.7442 149.561ZM155.506 99.8578C151.437 95.6446 135.951 95.8154 133.069 99.8578C140.529 99.8578 147.763 99.8578 155.506 99.8578Z" fill="#1E90FF"/>
<path d="M68.4115 146.373C56.1473 146.373 43.8831 146.373 31.6755 146.373C26.4759 146.373 25.2891 145.177 25.2891 140.053C25.2891 121.436 25.2891 102.875 25.2891 84.2579C25.2891 79.4754 26.589 78.166 31.2799 78.166C55.9778 78.166 80.6757 78.166 105.374 78.166C109.556 78.166 111.025 79.6462 111.082 83.7455C111.082 102.705 111.082 121.721 111.082 140.68C111.082 144.893 109.612 146.316 105.487 146.373C93.1094 146.373 80.7322 146.373 68.4115 146.373ZM68.1289 142.672C68.1289 142.672 68.1289 142.615 68.1289 142.672C80.1105 142.672 92.0356 142.615 104.017 142.672C106.447 142.672 107.578 142.16 107.521 139.37C107.408 121.265 107.408 103.16 107.521 85.055C107.521 82.4929 106.617 81.8097 104.243 81.8097C80.2236 81.8667 56.2038 81.8667 32.1841 81.8097C29.5844 81.8097 28.7931 82.6068 28.7931 85.2827C28.9061 103.274 28.9061 121.322 28.7931 139.313C28.7931 141.989 29.6974 142.729 32.2407 142.729C44.1657 142.615 56.1473 142.672 68.1289 142.672Z" fill="#1E90FF"/>
<path d="M104.132 85.1686C104.132 103.217 104.132 121.208 104.132 139.37C80.1686 139.37 56.3184 139.37 32.2422 139.37C32.2422 121.322 32.2422 103.331 32.2422 85.1686C56.2054 85.1686 80.0555 85.1686 104.132 85.1686ZM68.0174 132.766C80.5077 132.595 91.1329 128.268 100.119 119.785C101.645 118.361 101.928 117.223 100.345 115.571C93.8457 108.569 87.5723 101.395 81.0163 94.4489C80.2816 93.6518 78.5296 93.1394 77.3992 93.3672C71.1824 94.5058 65.022 94.6766 58.9182 93.2533C57.0531 92.7978 55.9793 93.3102 54.7925 94.6766C48.6886 101.566 42.5283 108.455 36.1984 115.23C34.3898 117.166 34.5594 118.361 36.4244 120.126C45.4106 128.439 56.0358 132.595 68.0174 132.766Z" fill="#1E90FF"/>
</g>
</g>
<defs>
<clipPath id="clip0_935_7492">
<rect width="128" height="118" fill="white"/>
</clipPath>
<clipPath id="clip1_935_7492">
<rect width="99.3103" height="41.931" fill="white" transform="translate(22.0693 75.0345)"/>
</clipPath>
</defs>
</svg>
