<svg width="141" height="100" viewBox="0 0 141 100" fill="none" xmlns="http://www.w3.org/2000/svg">
<path fill-rule="evenodd" clip-rule="evenodd" d="M10.4303 21.127C9.40448 19.3023 9.83354 17.1028 11.7766 15.14C12.7235 14.1833 13.7246 13.6506 14.3953 13.478C14.4718 13.4582 14.5491 13.4418 14.6271 13.4287C19.4256 17.665 22.7988 19.7018 26.4877 19.7215C27.3359 19.7264 28.0609 19.6228 28.559 19.5439L29.0669 19.4601C29.2634 19.4254 29.4607 19.3958 29.6587 19.3713C30.2483 19.3046 30.8453 19.3652 31.4095 19.5489L34.0232 10.0407C32.2413 9.52059 30.3736 9.36131 28.5294 9.57217C28.0461 9.63135 27.5184 9.72012 27.2028 9.76944L27.0055 9.80396C26.8525 9.83328 26.6976 9.85141 26.5419 9.85821H26.5321C26.5271 9.85821 26.5025 9.85821 26.4532 9.84341C26.1779 9.75219 25.9134 9.63148 25.6641 9.4834C24.7419 8.96558 23.2722 7.92008 20.91 5.8192C18.1236 3.33858 14.6271 3.23009 11.9344 3.93038C9.23681 4.62081 6.73154 6.21866 4.76875 8.19624C0.902344 12.1021 -2.07143 19.0113 1.83442 25.9551C4.06845 29.9398 6.59838 33.2391 8.79789 35.7444C8.72885 33.5498 9.31571 31.5771 10.6127 30.1519C11.7963 28.8499 13.404 28.1792 15.2238 28.0806C13.4241 25.9086 11.82 23.5817 10.4303 21.127Z" fill="#1E90FF"/>
<path d="M31.7928 36.7008C37.4248 42.1009 38.993 49.4737 35.3042 53.1725C31.6054 56.8761 24.0452 55.5002 18.4133 50.105C12.7765 44.7098 11.2082 37.332 14.902 33.6333C18.6007 29.9346 26.1609 31.3056 31.7928 36.7008Z" fill="#1E90FF"/>
<path fill-rule="evenodd" clip-rule="evenodd" d="M130.195 21.127C131.221 19.3023 130.792 17.1028 128.849 15.14C128.132 14.3724 127.23 13.8004 126.23 13.478C126.156 13.4584 126.08 13.4419 126.004 13.4287C121.205 17.665 117.827 19.7018 114.138 19.7215C113.444 19.7202 112.751 19.6608 112.067 19.5439L111.559 19.4601C111.362 19.4254 111.165 19.3958 110.967 19.3713C110.379 19.3055 109.784 19.366 109.221 19.5489L106.603 10.0407C108.842 9.42422 110.597 9.39956 112.096 9.57217C112.58 9.63135 113.107 9.72012 113.428 9.76944L113.625 9.80396C113.956 9.85821 114.049 9.85821 114.084 9.85821H114.099C114.099 9.85821 114.123 9.85821 114.173 9.83848C114.448 9.74919 114.712 9.63012 114.962 9.4834C115.884 8.96558 117.353 7.92008 119.716 5.8192C122.507 3.33858 126.004 3.23009 128.696 3.93038C131.389 4.62081 133.894 6.21866 135.857 8.19624C139.723 12.1021 142.697 19.0113 138.796 25.9551C136.818 29.449 134.484 32.7294 131.833 35.7444C131.897 33.5498 131.315 31.5771 130.018 30.1519C128.834 28.8499 127.222 28.1792 125.402 28.0806C126.98 26.1671 128.681 23.8246 130.195 21.127Z" fill="#1E90FF"/>
<path d="M108.831 36.7008C103.199 42.096 101.631 49.4738 105.325 53.1725C109.019 56.8712 116.579 55.5002 122.216 50.105C127.848 44.7098 129.416 37.3321 125.722 33.6333C122.024 29.9346 114.468 31.3056 108.831 36.7008ZM70.2463 -0.000427246C16.8169 -0.000427246 36.8542 39.6647 50.2091 39.6647C61.2904 39.6647 55.1752 83.6451 62.3064 98.6323C63.7711 101.71 67.5931 98.6323 70.2463 98.6323C72.8995 98.6323 75.7451 101.71 77.1013 98.6323C83.7097 83.6451 76.973 39.6647 88.0544 39.6647C101.419 39.6647 123.676 -0.000427246 70.2512 -0.000427246H70.2463Z" fill="#1E90FF"/>
</svg>
