<svg width="84" height="120" viewBox="0 0 84 120" fill="none" xmlns="http://www.w3.org/2000/svg">
<path d="M0.393338 57.0448C2.20548 46.4438 10.3601 40.5543 14.528 31.8043C16.5214 27.7658 16.8838 24.7369 14.8905 21.035C12.8971 17.5013 9.99769 13.6311 16.3402 10.7705C22.139 8.24641 26.4882 8.07814 28.6628 14.809C29.0252 15.6503 29.9313 16.4917 30.6561 17.333C35.7301 12.4532 24.8573 -0.503645 40.2605 0.674247C53.4891 1.68387 42.9787 12.1166 47.8715 16.8282C50.9521 13.1263 52.9454 5.72236 61.6437 10.6022C65.8117 12.958 67.4426 14.9772 64.9056 19.0157C64.5432 19.5205 64.3619 20.0253 64.1807 20.5301C63.2747 24.5686 57.2946 28.1023 61.1001 32.3091C64.5432 36.1793 69.4359 32.4774 73.4227 31.636C76.8657 30.7946 79.0403 30.7946 80.1276 34.4966C81.3961 39.0399 80.3088 42.237 74.6912 43.2466C76.8657 43.7514 79.2215 43.9197 81.2149 44.5928C84.1143 45.4342 83.7519 47.9582 83.7519 50.1457C83.7519 52.5015 83.027 54.3525 80.1276 55.0256C77.2282 55.6986 72.6978 53.1746 71.6105 57.2131C70.342 61.5881 69.6172 66.6362 70.342 71.0112C73.4227 86.4921 63.4559 109.545 49.3212 117.79C42.2538 121.829 36.455 119.978 31.0185 115.098C20.1457 105.338 13.0783 93.2229 6.19219 81.1075C6.01098 80.7709 5.82977 80.4344 5.64855 80.0978C0.936984 73.367 -0.875161 65.1218 0.393338 57.0448Z" fill="#FDFDFD"/>
</svg>
