<svg width="22" height="24" viewBox="0 0 22 24" fill="none" xmlns="http://www.w3.org/2000/svg">
<path d="M21.1369 19.0041C20.585 17.6969 19.7842 16.5096 18.7789 15.5081C17.7768 14.5038 16.5896 13.7031 15.283 13.1502C15.2712 13.1443 15.2595 13.1414 15.2478 13.1356C17.0704 11.8191 18.2553 9.67467 18.2553 7.25527C18.2553 3.24732 15.008 0 11 0C6.99205 0 3.74473 3.24732 3.74473 7.25527C3.74473 9.67467 4.92956 11.8191 6.75216 13.1385C6.74045 13.1443 6.72875 13.1473 6.71705 13.1531C5.40642 13.706 4.23036 14.4988 3.22106 15.5111C2.21676 16.5133 1.41603 17.7004 0.863099 19.0071C0.319897 20.2862 0.026935 21.6577 7.31554e-05 23.0472C-0.000707679 23.0784 0.00476896 23.1095 0.0161805 23.1385C0.0275921 23.1676 0.0447076 23.1941 0.0665186 23.2165C0.0883295 23.2388 0.114395 23.2566 0.143178 23.2687C0.171961 23.2808 0.202881 23.2871 0.234114 23.2871H1.98942C2.11814 23.2871 2.22054 23.1847 2.22346 23.0589C2.28197 20.8004 3.18888 18.6852 4.79206 17.0821C6.45083 15.4233 8.65374 14.5105 11 14.5105C13.3463 14.5105 15.5492 15.4233 17.2079 17.0821C18.8111 18.6852 19.718 20.8004 19.7765 23.0589C19.7795 23.1876 19.8819 23.2871 20.0106 23.2871H21.7659C21.7971 23.2871 21.828 23.2808 21.8568 23.2687C21.8856 23.2566 21.9117 23.2388 21.9335 23.2165C21.9553 23.1941 21.9724 23.1676 21.9838 23.1385C21.9952 23.1095 22.0007 23.0784 21.9999 23.0472C21.9707 21.6488 21.681 20.2884 21.1369 19.0041ZM11 12.2872C9.65719 12.2872 8.39337 11.7635 7.44258 10.8127C6.49179 9.8619 5.96812 8.59808 5.96812 7.25527C5.96812 5.91246 6.49179 4.64864 7.44258 3.69785C8.39337 2.74706 9.65719 2.22339 11 2.22339C12.3428 2.22339 13.6066 2.74706 14.5574 3.69785C15.5082 4.64864 16.0319 5.91246 16.0319 7.25527C16.0319 8.59808 15.5082 9.8619 14.5574 10.8127C13.6066 11.7635 12.3428 12.2872 11 12.2872Z" fill="#1E90FF"/>
</svg>
