<svg width="19" height="19" viewBox="0 0 19 19" fill="none" xmlns="http://www.w3.org/2000/svg">
<path d="M16.8254 9.10073C16.9589 9.10515 17.0809 9.16646 17.1824 9.2748L18.3626 10.5355C18.5658 10.7427 18.5547 11.0764 18.3383 11.2696L17.3531 12.1914L15.4629 10.1723L16.4481 9.2505C16.5564 9.1491 16.6918 9.09631 16.8254 9.10073ZM14.8915 10.7069L16.7817 12.7261L10.8112 18.3217L8.84671 18.2567L8.91172 16.2928L14.8915 10.7069Z" fill="#1F2F70"/>
<path d="M16 1.8C17.1 1.8 18 2.61 18 3.6V7.2L8 16.2V18H2C0.9 18 0 17.19 0 16.2V3.6C0 2.61 0.9 1.8 2 1.8H6.18C6.6 0.756 7.7 0 9 0C10.3 0 11.4 0.756 11.82 1.8H16ZM9 1.8C8.45 1.8 8 2.205 8 2.7C8 3.195 8.45 3.6 9 3.6C9.55 3.6 10 3.195 10 2.7C10 2.205 9.55 1.8 9 1.8Z" fill="#1F2F70"/>
</svg>
