<svg width="38" height="40" viewBox="0 0 38 40" fill="none" xmlns="http://www.w3.org/2000/svg">
<path d="M35.9191 32.2852C34.998 30.1034 33.6613 28.1216 31.9835 26.4502C30.3108 24.774 28.3294 23.4375 26.1486 22.5146C26.129 22.5049 26.1095 22.5 26.09 22.4902C29.132 20.293 31.1095 16.7139 31.1095 12.6758C31.1095 5.98633 25.6896 0.566406 19.0001 0.566406C12.3107 0.566406 6.89075 5.98633 6.89075 12.6758C6.89075 16.7139 8.86829 20.293 11.9103 22.4951C11.8907 22.5049 11.8712 22.5098 11.8517 22.5195C9.66418 23.4424 7.70129 24.7656 6.01672 26.4551C4.3405 28.1278 3.00405 30.1092 2.08118 32.29C1.17455 34.4251 0.685581 36.7141 0.640747 39.0332C0.639444 39.0853 0.648585 39.1372 0.667631 39.1857C0.686677 39.2342 0.715244 39.2784 0.751648 39.3158C0.788051 39.3531 0.831555 39.3827 0.879596 39.403C0.927636 39.4232 0.979242 39.4336 1.03137 39.4336H3.96106C4.1759 39.4336 4.3468 39.2627 4.35168 39.0527C4.44934 35.2832 5.96301 31.7529 8.63879 29.0772C11.4073 26.3086 15.0841 24.7852 19.0001 24.7852C22.9161 24.7852 26.5929 26.3086 29.3615 29.0772C32.0372 31.7529 33.5509 35.2832 33.6486 39.0527C33.6534 39.2676 33.8243 39.4336 34.0392 39.4336H36.9689C37.021 39.4336 37.0726 39.4232 37.1207 39.403C37.1687 39.3827 37.2122 39.3531 37.2486 39.3158C37.285 39.2784 37.3136 39.2342 37.3326 39.1857C37.3517 39.1372 37.3608 39.0853 37.3595 39.0332C37.3107 36.6992 36.8273 34.4287 35.9191 32.2852ZM19.0001 21.0742C16.7589 21.0742 14.6495 20.2002 13.0626 18.6133C11.4757 17.0264 10.6017 14.917 10.6017 12.6758C10.6017 10.4346 11.4757 8.32519 13.0626 6.73828C14.6495 5.15137 16.7589 4.27734 19.0001 4.27734C21.2413 4.27734 23.3507 5.15137 24.9376 6.73828C26.5245 8.32519 27.3986 10.4346 27.3986 12.6758C27.3986 14.917 26.5245 17.0264 24.9376 18.6133C23.3507 20.2002 21.2413 21.0742 19.0001 21.0742Z" fill="#1E90FF"/>
</svg>
