<svg width="18" height="19" viewBox="0 0 18 19" fill="none" xmlns="http://www.w3.org/2000/svg">
<path d="M9.62363 18.002C9.5556 18.002 9.48941 18.002 9.42139 18.002C9.08126 17.9027 8.87718 17.6545 8.72826 17.353C8.66943 17.2354 8.61795 17.1141 8.5775 16.9891C7.95607 15.1323 7.33833 13.2756 6.72058 11.4189C6.69668 11.3453 6.65991 11.3049 6.58453 11.281C4.74599 10.6706 2.90745 10.0585 1.07075 9.44447C0.787619 9.35071 0.515516 9.2349 0.289376 9.03452C-0.0764929 8.70913 -0.0967169 8.29182 0.236058 7.92967C0.407042 7.74399 0.618474 7.61531 0.844614 7.51052C1.89074 7.02152 2.93871 6.53436 3.98483 6.0472C7.53689 4.38901 11.0908 2.73265 14.6428 1.07446C15.2606 0.785841 15.8765 0.495382 16.4979 0.215953C16.7866 0.08543 17.0862 -0.0101641 17.4098 0.000865973C17.7187 0.0118961 17.9191 0.181024 17.9835 0.482514C17.9871 0.500897 17.9945 0.517442 18 0.533987C18 0.613036 18 0.693924 18 0.772973C17.9963 0.780326 17.989 0.78768 17.9871 0.796871C17.9467 1.1002 17.8419 1.3833 17.7132 1.65722C16.2479 4.78977 14.7807 7.92231 13.3136 11.0549C12.363 13.0862 11.4144 15.1176 10.4602 17.1472C10.2818 17.5259 10.0649 17.877 9.62363 18.002Z" fill="white"/>
</svg>
