<svg width="18" height="19" viewBox="0 0 18 19" fill="none" xmlns="http://www.w3.org/2000/svg">
<path d="M16.95 18.002C14.8 18.002 12.7043 17.5226 10.663 16.564C8.621 15.606 6.81267 14.3393 5.238 12.764C3.66267 11.1893 2.396 9.38095 1.438 7.33895C0.479334 5.29762 0 3.20195 0 1.05195C0 0.751953 0.0999999 0.501953 0.3 0.301953C0.5 0.101953 0.75 0.00195312 1.05 0.00195312H5.1C5.33333 0.00195312 5.54167 0.076953 5.725 0.226953C5.90833 0.376953 6.01667 0.56862 6.05 0.801953L6.7 4.30195C6.73333 4.53529 6.72933 4.74762 6.688 4.93895C6.646 5.13095 6.55 5.30195 6.4 5.45195L4 7.90195C4.7 9.10195 5.575 10.227 6.625 11.277C7.675 12.327 8.83333 13.2353 10.1 14.002L12.45 11.652C12.6 11.502 12.796 11.3893 13.038 11.314C13.2793 11.2393 13.5167 11.2186 13.75 11.252L17.2 11.952C17.4333 12.002 17.625 12.1143 17.775 12.289C17.925 12.4643 18 12.6686 18 12.902V16.952C18 17.252 17.9 17.502 17.7 17.702C17.5 17.902 17.25 18.002 16.95 18.002Z" fill="white"/>
</svg>
