<svg width="40" height="38" viewBox="0 0 40 38" fill="none" xmlns="http://www.w3.org/2000/svg">
<rect width="40" height="37.6744" rx="5" fill="white"/>
<path d="M20.9825 25.4302C13.466 25.4302 9.17864 20.4805 9 12.2441H12.7651C12.8888 18.2894 15.6646 20.85 17.8632 21.378V12.2441H21.4085V17.4578C23.5796 17.2335 25.8607 14.8576 26.6302 12.2441H30.1755C29.8855 13.5996 29.3075 14.8829 28.4776 16.0139C27.6477 17.145 26.5837 18.0993 25.3523 18.8174C26.7269 19.4734 27.941 20.4021 28.9145 21.5419C29.888 22.6818 30.5988 24.0071 31 25.4302H27.0974C26.7373 24.1941 26.0054 23.0876 24.9934 22.2494C23.9814 21.4111 22.7343 20.8784 21.4085 20.7181V25.4302H20.9825V25.4302Z" fill="#1E90FF"/>
</svg>
