<svg width="94" height="139" viewBox="0 0 94 139" fill="none" xmlns="http://www.w3.org/2000/svg">
<path d="M75.5909 138.712C76.3671 138.307 77.1968 137.929 77.9463 137.443C80.2749 135.93 81.3456 133.661 81.3991 130.933C81.4526 128.151 81.3723 125.341 81.4259 122.559C81.5597 115.347 83.005 108.378 86.2705 101.949C87.8497 98.843 89.8036 95.9527 91.5433 92.9274C93.4705 89.632 94.3805 86.1475 93.8184 82.2308C93.4169 79.4756 92.3463 77.0986 91.008 74.7485C90.7404 74.2893 90.6333 73.452 90.8742 72.9658C93.0958 68.4278 94.1664 63.6197 93.979 58.5686C93.7917 52.7881 91.8645 47.5748 88.5456 42.8748C86.1634 39.4713 83.0586 36.8782 79.4452 34.9063C77.6519 33.9339 75.6444 33.3126 73.6905 32.6644C72.8876 32.3942 72.5128 32.0971 72.5664 31.2057C72.727 26.9649 71.0942 23.3183 68.2838 20.374C65.6608 17.6189 62.3686 15.8361 58.434 15.566C53.0541 15.2148 47.6206 15.1608 42.3745 13.5671C37.0481 11.9464 32.0697 9.59638 27.4927 6.38199C24.9767 4.59922 22.434 2.87048 19.8912 1.14173C19.4897 0.871613 19.0079 0.65552 18.5797 0.412415C17.2414 0.412415 15.9031 0.412415 14.5648 0.412415C11.46 1.38483 9.77371 3.95094 8.0607 6.43602C6.1068 9.21822 4.23318 12.0544 2.30605 14.8366C-0.263474 18.5372 1.15512 23.4264 4.47408 25.7764C9.02428 28.9908 13.6815 32.0701 17.5358 36.1489C22.3001 41.2 25.9403 46.9535 28.2154 53.5444C29.741 57.8933 32.0161 61.5398 36.1113 63.7818C37.1819 64.3761 38.3329 64.7812 39.5106 65.1864C40.2868 65.4565 40.6347 65.9427 40.8756 66.6991C41.6251 68.914 42.5351 71.048 43.2845 73.2629C43.4184 73.6681 43.3648 74.3434 43.0972 74.6945C40.5544 78.152 39.6712 82.0957 40.0726 86.3095C40.3403 89.2268 41.5715 91.8469 43.231 94.224C46.2555 98.5728 48.7448 103.165 50.2704 108.27C51.5017 112.322 52.3582 116.401 52.3849 120.668C52.4117 124.396 52.4385 128.124 52.6793 131.824C52.8935 135.066 54.7938 137.173 57.7381 138.415C57.9254 138.496 58.0593 138.631 58.2199 138.739C64.0013 138.712 69.8095 138.712 75.5909 138.712ZM66.9991 131.743C64.9381 131.743 62.9039 131.689 60.8429 131.77C59.7991 131.797 59.4511 131.419 59.4511 130.366C59.4243 126.692 59.2637 123.018 59.2102 119.345C59.1031 113.834 57.8184 108.567 55.9715 103.408C54.3656 98.978 52.2779 94.7642 49.4674 90.9826C46.2555 86.6607 45.9611 82.6089 49.1195 78.3411C50.9128 75.91 53.6697 74.8836 56.5336 74.9917C59.5582 75.0997 62.0474 76.5853 63.7604 79.2595C65.4466 81.8796 68.605 81.7716 70.2377 79.2055C72.5396 75.5859 76.26 74.3164 79.927 75.2618C86.2169 76.8825 89.0273 83.8245 85.5746 89.4429C83.4868 92.8194 81.3723 96.1958 79.6325 99.7614C76.3403 106.514 74.7879 113.78 74.5738 121.317C74.4935 124.288 74.547 127.259 74.5738 130.231C74.5738 131.338 74.1991 131.824 73.0214 131.797C71.0139 131.689 69.0065 131.743 66.9991 131.743ZM53.6162 22.2919C53.6429 22.1838 53.6429 22.0758 53.6697 21.9677C55.7842 22.3459 57.979 22.4269 59.9864 23.1292C64.1619 24.5338 66.5708 29.3149 65.6072 33.5828C64.6169 37.9857 60.7894 41.2271 55.9448 41.011C55.4362 40.984 54.8741 41.011 54.3924 41.2C52.3046 42.0104 51.5284 43.7121 52.4652 45.9541C54.1782 50.0869 52.6258 54.7059 49.3604 57.1099C44.5158 60.6484 37.6905 58.4875 35.6027 53.3823C34.5053 50.6811 33.6221 47.8719 32.2035 45.3328C30.1693 41.6863 28.028 38.0127 25.4317 34.7713C22.9425 31.6649 19.918 28.9638 16.9202 26.3436C14.2971 24.0746 11.4064 22.1028 8.56925 20.0769C7.87334 19.5637 7.65922 19.1855 8.24807 18.4022C10.5232 15.2148 12.718 11.9464 14.993 8.73201C16.1707 7.05729 16.251 7.05729 17.9641 8.27281C22.541 11.5682 27.0912 14.8907 32.2303 17.2677C39.0288 20.4011 46.1485 22.0758 53.6162 22.2919ZM47.6206 65.6186C48.2362 65.3755 48.6645 65.1864 49.1195 65.0243C53.3485 63.6197 56.3998 60.8375 58.4072 56.8668C59.6652 54.3817 60.1738 51.7616 59.9864 49.0064C59.9329 48.034 60.0935 47.4938 61.2176 47.2507C62.4221 46.9805 63.5998 46.3593 64.6972 45.738C67.0526 44.3604 69.06 42.6046 70.3448 40.0926C70.666 39.4983 71.0675 39.0391 71.924 39.4443C73.3693 40.1196 74.9753 40.5247 76.3671 41.3351C83.2192 45.2518 86.5917 51.3834 87.0734 59.1628C87.2876 62.4582 86.4578 65.6726 85.1731 68.7249C84.8519 69.5083 84.3969 69.4002 83.7009 69.1841C82.0147 68.6979 80.3017 68.1577 78.5887 68.0767C74.547 67.8606 70.9069 69.2112 67.6682 71.6422C67.0526 72.1014 66.7046 72.1284 66.089 71.6152C63.4124 69.3462 60.2005 68.1037 56.7745 68.1037C54.2318 68.1037 51.689 68.779 49.0124 69.1841C48.6645 68.2657 48.1827 66.9962 47.6206 65.6186Z" fill="#1E90FF"/>
<path d="M66.9999 131.743C69.0073 131.743 71.0148 131.689 73.0222 131.77C74.2267 131.824 74.6014 131.338 74.5746 130.203C74.5478 127.232 74.4943 124.261 74.5746 121.29C74.7887 113.753 76.3144 106.514 79.6334 99.7342C81.3731 96.1687 83.4876 92.7922 85.5754 89.4158C89.0282 83.8243 86.2177 76.8553 79.9278 75.2346C76.2609 74.2892 72.5404 75.5588 70.2385 79.1783C68.6058 81.7445 65.4475 81.8525 63.7612 79.2324C62.0482 76.5852 59.5322 75.0726 56.5344 74.9645C53.6437 74.8565 50.9136 75.8829 49.1203 78.314C45.9619 82.5818 46.2564 86.6336 49.4683 90.9554C52.2787 94.7371 54.3664 98.9509 55.9724 103.381C57.846 108.513 59.1307 113.78 59.211 119.318C59.2646 122.991 59.4252 126.665 59.4519 130.338C59.4519 131.392 59.7999 131.77 60.8437 131.743C62.9047 131.689 64.9657 131.743 66.9999 131.743Z" fill="#1E90FF"/>
<path d="M53.616 22.2919C46.1483 22.0758 39.0286 20.4011 32.2301 17.2407C27.091 14.8367 22.5676 11.5142 17.9906 8.24583C16.2776 7.03031 16.1973 7.03031 15.0196 8.70503C12.7445 11.9194 10.5765 15.1878 8.27465 18.3752C7.71256 19.1856 7.89992 19.5367 8.59583 20.0499C11.4062 22.1028 14.3237 24.0477 16.9468 26.3166C19.9445 28.9368 22.9691 31.6379 25.4583 34.7443C28.0546 37.9857 30.2226 41.6593 32.2301 45.3059C33.6219 47.8449 34.5052 50.6542 35.6293 53.3553C37.7171 58.4605 44.5423 60.6485 49.387 57.0829C52.6524 54.7059 54.2048 50.0869 52.4918 45.9271C51.555 43.6852 52.358 41.9564 54.4189 41.1731C54.9007 40.984 55.4628 40.957 55.9714 40.984C60.816 41.2001 64.6435 37.9587 65.6338 33.5558C66.5974 29.2879 64.1617 24.5069 60.013 23.1023C58.0056 22.427 55.8108 22.3189 53.6963 21.9408C53.6695 22.0758 53.6427 22.1839 53.616 22.2919ZM58.9959 36.0138C57.2561 36.0138 55.6502 34.8793 55.5966 33.3667C55.5431 32.0431 54.874 31.5839 53.7498 31.4219C51.8762 31.1517 50.752 29.45 51.0197 27.3971C51.207 25.8845 53.0806 24.3448 54.6331 24.5339C58.8353 25.0471 61.4584 27.1 62.3952 31.5299C62.9037 33.9339 61.2978 36.0138 58.9959 36.0138Z" fill="#1E90FF"/>
</svg>
