<svg width="60" height="54" viewBox="0 0 60 54" fill="none" xmlns="http://www.w3.org/2000/svg">
<path d="M59.9187 16.1729C59.5566 5.0951 47.2305 -2.88753 36.9388 1.021C34.5288 1.86646 32.3324 3.22766 30.5028 5.0096C25.7718 9.6751 21.1009 14.3988 16.4026 19.0934C14.6085 20.8694 12.8671 22.6981 11.0275 24.4285C10.9292 24.5195 10.8601 24.5395 10.7582 24.4395C8.50002 22.3433 7.50833 19.4974 7.77399 16.4441C8.3217 9.80608 15.2963 6.34519 21.2901 8.26488C22.0689 8.17936 22.4765 7.29322 23.0861 6.86379C24.3944 5.59006 25.7664 4.34544 26.9691 2.98255C11.526 -7.12724 -6.76655 10.423 2.51167 26.3519C4.69521 29.8219 7.92138 32.4294 10.7691 35.3226C16.7392 29.4325 22.6148 23.4132 28.5631 17.4903C28.7705 17.2829 28.7232 17.2738 28.9416 17.4903C33.4506 21.9981 37.9566 26.5059 42.4595 31.0137C42.7143 31.2685 42.7306 31.1957 42.4595 31.465C39.8666 33.7996 37.6812 36.6727 34.6916 38.5105C28.9325 41.6876 21.8997 38.0684 20.3803 31.8307C18.2459 33.7941 16.1952 35.9176 14.1081 37.9428C13.9825 38.0666 13.9843 38.072 14.1081 38.2012C15.7894 39.9335 17.4853 41.6585 19.1739 43.3798C22.7549 47.0445 26.3401 50.7056 29.9296 54.363C30.2299 54.6214 30.5556 53.9773 30.8194 53.839C32.1041 52.4652 33.5179 51.2133 34.7971 49.8358C40.0285 44.6135 45.2745 39.4076 50.4658 34.1453C55.9283 29.1486 60.683 24.1592 59.9187 16.1729ZM45.9732 10.6704C40.5798 8.87809 37.0916 13.3343 33.7636 16.7825C33.4997 17.0846 33.0503 17.3757 32.7136 17.0027C32.5935 16.8407 32.2569 16.5569 32.408 16.3604C35.5213 13.4945 38.3545 9.0346 43.1437 9.5059C44.4902 9.6533 45.8858 10.0135 46.9485 10.887C46.6228 10.816 46.2971 10.7487 45.9732 10.6704Z" fill="url(#paint0_linear_494_9673)"/>
<defs>
<linearGradient id="paint0_linear_494_9673" x1="0.803048" y1="36.3689" x2="67.5411" y2="7.60618" gradientUnits="userSpaceOnUse">
<stop stop-color="#2474E2"/>
<stop offset="0.41" stop-color="#258DFB"/>
<stop offset="0.63" stop-color="#0493E3"/>
</linearGradient>
</defs>
</svg>
