<svg width="115" height="113" viewBox="0 0 115 113" fill="none" xmlns="http://www.w3.org/2000/svg">
<path d="M114.499 51.4168C113.216 44.7109 109.368 39.9773 103.289 37.1034C99.3293 35.2437 95.0907 34.4548 90.7406 34.3421C88.7886 34.2858 86.8924 34.5112 85.052 35.131C82.375 36.0327 80.1442 37.6669 78.1922 39.6392C75.2921 42.4568 72.5593 45.3871 69.7708 48.2611C68.3765 49.7262 66.9823 51.2477 65.588 52.7129C65.5322 52.7129 65.4764 52.6565 65.4764 52.6565V51.924C65.4207 43.8093 65.4207 35.6382 65.3649 27.5235C65.3649 24.6495 65.2534 21.7192 65.1976 18.8453C65.1976 18.2818 65.0303 18 64.361 18C63.0225 18.0564 61.7398 18 60.4013 18.0564C59.3417 18.0564 59.3417 18.1691 59.2859 19.1834C59.1743 21.9446 59.1186 24.6495 58.8955 27.4108C58.3378 35.131 57.7243 42.9076 56.6647 50.5715C55.8281 56.4321 54.7685 62.2364 53.0953 67.928C51.9799 71.8163 50.5856 75.6482 48.3548 79.0857C46.124 82.5795 43.1681 84.89 38.9296 85.5098C34.9141 86.0733 30.8986 86.2988 26.8831 86.5242C23.5368 86.7496 20.2463 86.8623 16.9001 87.144C12.55 87.5385 9.53835 89.7362 7.97676 93.9626C6.69404 97.5128 6.24787 101.176 6.02479 104.895C5.96902 105.797 6.02479 106.698 6.02479 107.769C7.30752 107.769 8.59024 107.769 9.87297 107.769C11.0999 107.769 11.4346 107.487 11.8249 106.247C12.4942 104.219 13.4423 102.303 14.6135 100.556C16.4539 97.8509 19.8559 96.7239 22.9233 97.7382C24.6522 98.3018 26.158 99.3725 27.6639 100.387C30.062 102.077 32.4601 103.881 34.9141 105.458C41.9969 109.967 49.6375 112.672 58.0589 112.953C61.3494 113.066 64.6956 113.01 67.9861 112.39C75.8498 110.812 82.8212 107.318 89.179 102.472C94.3099 98.5835 98.7158 93.9063 102.564 88.7782C107.862 81.7906 111.766 74.0703 113.774 65.5048C115.057 60.9403 115.391 56.2067 114.499 51.4168ZM103.958 71.0273C103.01 71.14 102.452 71.5345 102.397 72.6615C102.341 73.9576 101.002 74.9156 99.5524 74.9156C97.6004 74.9156 96.2619 73.1687 96.7081 71.14C97.4889 67.4208 99.7197 65.6739 103.233 65.2231C104.516 65.054 106.078 66.3501 106.245 67.6462C106.468 69.3931 105.52 70.8019 103.958 71.0273Z" fill="white"/>
<path d="M27.8749 27.4836C28.0403 28.7486 27.93 30.0135 29.0326 31.0585C29.7494 31.7734 30.3558 31.9934 31.3482 31.9384C34.2702 31.8834 37.1923 32.1584 39.8386 33.4784C42.0439 34.5783 42.8709 36.6682 43.3671 38.9231C43.4222 39.1981 43.1466 39.9131 42.9812 39.9131C42.5401 39.9131 42.0439 39.7481 41.658 39.5281C41.4375 39.4181 41.3272 39.0331 41.2721 38.7581C40.5553 35.7883 38.4052 34.6883 35.5934 34.4133C33.7189 34.2483 31.7893 34.1933 29.9148 33.9733C28.0954 33.7533 27.103 32.3234 26.4414 30.8385C26.0004 29.9035 25.9452 28.7486 26.0004 27.7036C26.1106 25.2837 24.6772 23.2488 21.7552 22.9188C17.7856 22.4238 15.856 19.9489 14.5879 16.5391C14.3123 15.8241 14.0917 15.0541 13.8161 14.3391C13.0442 12.3042 11.1697 11.8643 9.46061 12.4142C8.96442 12.5792 8.41309 12.6892 7.86177 12.6892C7.53097 12.6892 7.08991 12.3592 7.03478 12.0842C6.97965 11.6993 7.08991 11.0943 7.36557 10.9293C10.1773 9.05937 14.4777 10.5443 15.6906 13.6792C16.4073 15.4941 17.1792 17.254 18.2267 18.849C18.778 19.6739 19.9909 20.1689 20.9833 20.5539C22.3065 21.1039 23.7951 21.2689 25.0631 21.9288C27.0479 23.0288 27.4889 24.1837 27.8749 27.4836Z" fill="white"/>
<path d="M28.2601 50.4176C26.4407 50.6376 25.0072 50.1426 23.6289 48.8777C21.4788 46.8978 19.2735 44.8628 16.186 44.3679C15.0283 44.2029 13.8705 43.8729 12.7127 43.5979C11.6101 43.3229 10.9485 42.5529 10.3971 41.618C9.07396 39.4181 7.47511 37.6031 4.60822 37.6031C3.83637 37.6031 3.11965 37.9881 2.34779 38.0981C1.8516 38.1531 1.02461 38.3181 0.914348 38.0981C0.473288 37.4381 0.804083 36.9432 1.57594 36.5582C5.26981 34.8533 8.85343 36.2282 11.2241 39.6381C11.4998 40.078 11.7203 40.573 12.1062 40.958C12.6024 41.453 13.2089 41.893 13.8153 42.113C15.8553 42.7729 18.0605 43.1029 19.9351 44.0379C21.589 44.8078 22.9673 46.1278 24.3457 47.3377C25.724 48.4927 27.0471 49.4277 28.9768 48.6027C29.5832 48.3827 30.0794 48.7127 30.1346 49.3177C30.1346 49.6476 29.7486 50.1426 29.4178 50.3076C29.1422 50.4726 28.646 50.3626 28.2601 50.4176Z" fill="white"/>
<path d="M47.8329 31.6634C47.6675 32.5434 47.5572 33.4783 47.3367 34.4133C47.1713 35.0733 46.6751 35.4583 46.0686 35.0183C45.7378 34.7983 45.3519 34.1383 45.4622 33.8633C46.1789 31.8834 45.5173 30.2885 44.4147 28.7485C42.9812 26.8236 42.2094 24.6787 41.9337 22.3138C41.7683 20.8289 41.3824 19.3989 40.9413 17.969C40.3349 15.7691 38.4052 14.6691 36.6961 13.5142C34.8216 12.1942 33.4984 10.6543 33.2779 8.28938C33.2228 7.51942 33.1125 6.80445 33.0574 6.03448C32.8368 4.16456 32.2855 3.44958 30.3559 2.95461C29.4186 2.73461 29.0327 2.12964 29.3084 1.35967C29.4186 1.02968 30.411 0.809694 30.9072 0.974687C33.3882 1.68966 34.7665 2.51462 34.8767 5.64949C34.9319 6.58446 35.0421 7.57441 35.2627 8.50938C35.7037 10.4893 37.2474 11.5892 38.8463 12.5242C41.2721 13.9542 42.5402 16.0991 43.2017 18.739C43.8633 21.3238 43.8082 24.1287 45.2968 26.4936C45.8481 27.3736 46.4546 28.1986 46.8956 29.1335C47.2815 29.9035 47.5021 30.7285 47.8329 31.6634Z" fill="white"/>
</svg>
