<svg width="71" height="123" viewBox="0 0 71 123" fill="none" xmlns="http://www.w3.org/2000/svg">
<path d="M70.1031 65.5426C65.6885 66.055 61.4577 66.5674 57.043 66.9091C55.0196 67.0799 52.6283 67.2507 52.4444 64.5178C52.2604 62.2973 54.4678 62.2973 56.3072 62.1265C60.9059 61.614 65.5045 61.1016 70.1031 60.5892C70.1031 62.1265 70.1031 63.8345 70.1031 65.5426Z" fill="#1E90FF"/>
<path d="M19.1504 4.73544C23.933 7.12674 28.3477 4.90625 32.9463 2.17334C39.3844 -1.75522 45.2707 0.977692 49.5015 5.58948C54.2841 10.5429 56.3075 17.546 50.4212 22.1577C42.1436 28.4776 43.7991 35.3099 45.6386 42.9962C46.3744 45.7291 46.3744 48.6328 47.4781 51.1949C49.1336 55.6359 47.846 57.5148 42.8794 57.344C40.856 57.1731 38.8326 57.1731 36.8092 58.3688C28.7156 63.1514 24.4848 61.4433 22.4614 52.7322C21.7257 49.6576 20.8059 46.7539 20.622 43.6794C20.438 37.0179 18.5986 32.7478 10.505 30.3565C3.8829 28.4776 1.12371 21.9869 3.14712 15.1547C5.17052 7.80997 10.505 4.39383 19.1504 4.73544Z" fill="#1E90FF"/>
<path d="M18.2311 122.592C-1.63508 120.201 -2.9227 118.322 3.33146 101.412C7.37827 90.8221 11.0572 80.2321 14.7361 69.4712C16.0237 65.5427 18.0471 64.1762 21.5421 67.5924C23.9334 70.1545 26.1408 69.642 29.4518 68.9588C37.1775 67.2507 40.8564 71.0085 38.4651 78.0116C33.8665 91.3345 29.0839 104.487 24.3013 117.81C23.1976 121.055 22.0939 124.129 18.2311 122.592Z" fill="#1E90FF"/>
<path d="M51.3412 86.3811C51.7091 88.4308 50.6054 90.1389 49.3178 89.7973C44.1673 88.4308 44.3513 83.6482 43.2476 79.8905C42.6958 78.3532 43.4315 75.6203 45.271 76.3035C50.2375 78.0116 48.9499 83.4774 51.3412 86.3811Z" fill="#1E90FF"/>
<path d="M65.8714 76.6451C65.3196 78.8656 64.3998 80.4028 62.7443 79.8904C59.0654 78.524 54.2828 78.1824 52.9952 73.9122C52.4433 72.3749 54.8346 71.8625 56.3062 72.2041C59.9851 72.8873 63.1122 74.5954 65.8714 76.6451Z" fill="#1E90FF"/>
</svg>
