<svg width="86" height="124" viewBox="0 0 86 124" fill="none" xmlns="http://www.w3.org/2000/svg">
<path d="M56.7013 82.053C56.0083 81.0913 55.2906 80.3322 54.2264 80.7877C53.6324 81.0407 52.9889 81.6481 52.7661 82.2554C52.3206 83.3942 53.0384 84.2293 53.6819 84.6342C51.8009 86.8358 49.9199 89.0628 48.039 91.2644C47.9152 91.1885 47.7915 91.1126 47.6677 91.0113C47.4945 89.7207 46.851 88.8603 45.564 88.8097C44.574 88.7844 43.8315 89.3664 43.584 90.3787C43.287 91.7199 43.98 92.5297 45.3413 93.0611C42.0001 95.2122 40.2676 98.426 38.6836 101.817C35.3672 108.928 31.9022 115.988 28.5115 123.099C28.1403 123.884 27.7938 124.162 26.8286 123.909C16.904 121.429 8.01887 116.874 0 110.472C2.12847 106.347 4.28168 102.348 6.2369 98.2489C7.87037 94.8326 9.3801 91.315 10.7166 87.7722C12.4243 83.1411 11.6076 78.5101 10.2711 73.9297C8.86036 69.071 7.47438 64.2122 6.06365 59.3534C5.32116 56.8228 5.51916 54.3681 6.55864 51.9893C6.88039 51.2555 7.20213 50.5469 7.52388 49.813C8.48911 47.7379 8.90985 45.5869 8.9346 43.2587C8.9841 40.1208 9.35535 36.9828 9.72659 33.8449C9.94934 31.871 9.75134 30.0236 9.10785 28.151C8.76136 27.1134 8.53861 25.9494 8.58811 24.8612C8.73661 21.4449 11.2116 21.293 13.2905 22.3559C16.6565 24.102 18.5622 27.0628 18.8344 30.9094C19.0819 34.604 19.0077 38.324 19.1314 42.0187C19.1809 43.1322 19.3294 44.2963 19.6264 45.3591C20.4432 48.2693 23.5616 49.3575 25.7643 47.333C27.3236 45.9159 28.7095 44.1444 29.8233 42.2971C34.6742 34.1992 39.2776 25.9494 44.2028 17.902C47.6925 12.2081 51.5287 6.74203 55.2411 1.19999C55.9836 0.11183 57.1716 -0.242455 58.1615 0.162442C59.4238 0.69387 60.4633 2.36407 59.993 3.78121C59.1268 6.43835 58.1615 9.07019 56.9488 11.5755C53.6076 18.4334 50.0932 25.2155 46.7272 32.0734C46.257 33.0098 46.1085 34.1485 45.96 35.2367C45.8115 36.2489 46.554 36.7044 47.445 36.173C47.841 35.92 48.2122 35.5404 48.4597 35.1355C50.9842 31.0106 53.4344 26.8351 56.0331 22.7355C59.8198 16.7885 63.7055 10.8922 67.6159 5.02121C68.3584 3.90774 69.3979 2.94611 70.4373 2.03509C71.3283 1.27591 72.3926 0.69387 73.6053 1.37714C74.5953 1.95918 75.3625 3.7306 74.9665 5.07183C74.4963 6.71672 73.9518 8.36162 73.1598 9.85468C68.4326 18.8383 63.6312 27.7714 58.8545 36.7298C58.2853 37.7926 57.6913 38.8808 57.3696 40.0196C57.1716 40.6775 57.4933 41.4873 57.5676 42.2465C58.211 41.8922 59.0773 41.6898 59.4485 41.133C60.983 38.9061 62.3937 36.5779 63.8045 34.2498C66.8239 29.2392 69.8186 24.2285 72.8133 19.1926C73.3578 18.2563 73.7043 17.1934 74.2983 16.3077C75.1645 14.9412 76.0308 13.5494 77.1445 12.4106C78.7037 10.791 80.8074 11.449 81.2282 13.6759C81.4262 14.6881 81.3767 15.9028 81.0054 16.8392C78.3572 23.2416 75.7338 29.6947 72.8381 35.9706C70.8086 40.3738 68.3089 44.5493 66.0567 48.8261C65.7349 49.4334 65.4627 50.142 65.4379 50.8253C65.4132 51.3061 65.6854 52.0906 66.0567 52.2677C66.4279 52.4195 67.2199 52.1412 67.5169 51.7869C69.5216 49.4587 71.5758 47.1306 73.3825 44.6506C75.1893 42.1959 76.6495 39.4881 78.4315 37.0334C79.3719 35.7428 80.6342 34.68 81.8469 33.6424C82.5894 33.0098 83.5794 32.8073 84.4704 33.5412C85.2871 34.2245 85.4356 35.1608 85.0396 36.0718C83.7279 39.0073 82.4657 41.9681 80.9559 44.7771C77.5405 51.1036 74.1003 57.4048 70.4868 63.6048C68.8039 66.4897 66.7992 69.1722 64.7944 71.8293C62.4432 74.9673 59.9435 77.9787 57.5181 81.066C57.2706 81.395 56.9983 81.6734 56.7013 82.053ZM58.0378 71.1967C59.102 71.1967 60.0673 70.311 60.1168 69.2734C60.1663 68.1093 59.201 67.0718 58.0625 67.0718C56.9488 67.0718 56.0083 68.0081 55.9836 69.1216C55.9588 70.2097 56.8993 71.1714 58.0378 71.1967ZM47.8162 62.4408C47.8162 61.2008 47.049 60.3403 45.8857 60.2897C44.7473 60.2391 43.8068 61.2261 43.8315 62.4661C43.8563 63.5795 44.673 64.4652 45.7868 64.4652C46.9252 64.5159 47.7915 63.6301 47.8162 62.4408ZM46.158 73.4489C45.267 73.5248 44.7473 74.1069 44.5988 75.0432C44.475 75.853 45.4155 76.764 46.2322 76.7387C46.9747 76.7134 47.8657 75.8277 47.7667 75.0938C47.6677 74.1322 47.1975 73.4995 46.158 73.4489ZM33.0655 82.7109C33.9564 82.6097 34.5752 82.1289 34.6494 81.142C34.7237 80.2056 33.9317 79.4211 33.0407 79.4718C32.0755 79.5224 31.4815 80.1044 31.4815 81.066C31.5062 82.0277 32.0755 82.5844 33.0655 82.7109ZM37.6441 67.3248C37.6689 66.262 36.9759 65.5281 36.1344 65.5028C35.3424 65.4775 34.5009 66.262 34.4762 67.0718C34.4514 67.8816 35.1939 68.6661 36.0354 68.6914C37.0254 68.6661 37.5451 68.1346 37.6441 67.3248ZM53.4096 64.1869C53.4096 64.0097 53.3849 63.8326 53.3849 63.6808C52.9146 63.4024 52.4444 62.8457 52.0236 62.8963C51.5782 62.9469 50.9594 63.5289 50.8604 63.9591C50.7119 64.7436 51.3554 65.2497 52.0731 65.1232C52.5434 65.0473 52.9641 64.5159 53.4096 64.1869ZM30.4173 72.6644C30.4173 72.4873 30.4173 72.3101 30.3925 72.133C29.8975 71.8293 29.353 71.2473 28.9075 71.2979C28.5115 71.3485 27.9423 72.1583 27.967 72.5885C27.9918 72.9934 28.7095 73.6007 29.1303 73.626C29.551 73.6514 29.9965 72.9934 30.4173 72.6644ZM40.0943 75.9036C39.3024 75.3975 38.7826 74.8407 38.3619 74.8913C37.9164 74.942 37.5699 75.6252 37.1739 76.0048C37.6194 76.4097 38.0154 77.0677 38.5104 77.1436C38.8816 77.2195 39.3519 76.5362 40.0943 75.9036ZM51.9494 56.1648C51.9741 55.9877 51.9742 55.8106 51.9989 55.6334C51.5782 55.3044 51.1574 54.6718 50.7614 54.6971C50.3407 54.7224 49.6229 55.3297 49.6229 55.7093C49.5982 56.1395 50.1674 56.8228 50.5882 56.924C50.9594 57.0252 51.4792 56.4432 51.9494 56.1648ZM42.8663 80.9395C42.3218 81.7493 41.7031 82.2301 41.7526 82.635C41.7773 83.0652 42.3961 83.6473 42.8663 83.7738C43.6335 83.9762 44.1285 83.3183 44.0543 82.6097C43.9553 82.1289 43.4108 81.724 42.8663 80.9395ZM37.0749 99.9697C37.0749 99.7926 37.0749 99.5901 37.0501 99.413C36.6046 99.1346 36.1344 98.6032 35.7137 98.6285C35.3424 98.6538 34.7732 99.3624 34.7732 99.7419C34.7732 100.147 35.3919 100.805 35.7632 100.83C36.2087 100.855 36.6542 100.299 37.0749 99.9697ZM51.9741 45.8906C51.2317 45.3338 50.8109 44.7265 50.3902 44.7518C50.0189 44.7518 49.3259 45.4604 49.3754 45.7893C49.4249 46.2449 49.9694 46.8522 50.4149 46.9787C50.7119 47.08 51.2069 46.4473 51.9741 45.8906ZM26.6058 93.9721C25.8386 93.4154 25.4178 92.8334 24.9723 92.8334C24.6011 92.8334 24.2051 93.4913 23.8339 93.8709C24.2051 94.2758 24.5516 94.9085 24.9971 95.0097C25.3436 95.0856 25.8386 94.5036 26.6058 93.9721ZM58.6813 50.0408C58.6813 49.8383 58.6565 49.6359 58.6565 49.4334C58.1863 49.1804 57.7161 48.6742 57.2706 48.7248C56.8993 48.7755 56.3053 49.4334 56.3301 49.813C56.3548 50.1926 56.9736 50.7999 57.3448 50.8253C57.7903 50.8759 58.2358 50.3444 58.6813 50.0408ZM42.2228 50.5975C42.2228 50.4204 42.2228 50.2432 42.2228 50.0408C41.7773 49.7624 41.3318 49.2816 40.8863 49.2816C40.5646 49.2816 40.0201 49.8636 39.9211 50.2685C39.7726 51.0024 40.2428 51.5338 40.9853 51.4073C41.4308 51.3314 41.8268 50.8759 42.2228 50.5975ZM32.5705 58.0122C33.0902 57.253 33.6347 56.8228 33.61 56.4432C33.5852 56.0383 32.9912 55.6587 32.6695 55.2791C32.2735 55.6587 31.6795 55.9877 31.5805 56.4432C31.5062 56.7722 32.0755 57.2783 32.5705 58.0122Z" fill="#1E90FF"/>
<path d="M74.915 90.3787C74.8902 91.7199 73.9004 92.4285 72.9848 91.9224C70.2627 90.4546 67.5902 88.9109 64.9176 87.3167C64.2495 86.9118 64.002 86.2032 64.4722 85.4693C64.8929 84.7861 65.5115 84.4824 66.2786 84.9126C68.9512 86.4056 71.599 87.924 74.2221 89.4677C74.5933 89.6954 74.7913 90.2016 74.915 90.3787Z" fill="#1E90FF"/>
<path d="M63.0595 103.588C62.8863 103.462 62.4161 103.259 62.1192 102.905C60.5354 100.83 58.9517 98.7297 57.4422 96.5787C56.972 95.9207 57.0957 95.2121 57.7391 94.6807C58.4072 94.124 59.1001 94.2505 59.5951 94.8831C61.253 97.0595 62.8863 99.2864 64.47 101.539C65.0887 102.45 64.4453 103.538 63.0595 103.588Z" fill="#1E90FF"/>
<path d="M79.2223 74.7395C78.9501 74.9672 78.5541 75.6252 78.0592 75.7011C75.4114 76.0301 72.7636 76.2578 70.091 76.435C69.2497 76.4856 68.5815 75.8023 68.7052 75.0178C68.7795 74.5117 69.4724 73.7525 69.9673 73.6766C72.4914 73.3476 75.0402 73.1958 77.5643 73.0186C78.4552 72.9427 79.0986 73.297 79.2223 74.7395Z" fill="#1E90FF"/>
<path d="M49.3018 101.792C49.3018 101.665 49.3018 101.539 49.3018 101.412C49.3018 100.147 49.8462 99.337 50.6875 99.4382C51.7764 99.59 52.1228 100.4 52.1476 101.437C52.1971 103.209 52.3208 104.98 52.3703 106.726C52.4198 107.713 52.1476 108.548 51.0092 108.574C49.8462 108.624 49.574 107.764 49.5492 106.802C49.5245 105.132 49.5492 103.437 49.5492 101.766C49.475 101.792 49.4007 101.792 49.3018 101.792Z" fill="#1E90FF"/>
<path d="M58.0127 71.2472C56.8744 71.2472 55.9093 70.2856 55.9341 69.1721C55.9588 68.0587 56.8992 67.1223 58.0127 67.1223C59.1758 67.1223 60.1409 68.1599 60.0666 69.324C60.0419 70.3868 59.0768 71.2726 58.0127 71.2472Z" fill="white"/>
<path d="M54.4502 84.7608C53.3119 84.7608 52.3468 83.7991 52.3716 82.6857C52.3963 81.5722 53.3366 80.6359 54.4502 80.6359C55.6133 80.6359 56.5784 81.6734 56.5041 82.8375C56.4794 83.9004 55.539 84.7861 54.4502 84.7608Z" fill="white"/>
<path d="M45.6621 92.884C44.5238 92.884 43.5587 91.9224 43.5835 90.8089C43.6082 89.6955 44.5486 88.7592 45.6621 88.7592C46.8252 88.7592 47.7903 89.7967 47.7161 90.9608C47.6913 92.0236 46.7262 92.9093 45.6621 92.884Z" fill="white"/>
<path d="M47.7658 62.5166C47.7658 63.6807 46.875 64.5664 45.7367 64.5664C44.6478 64.5411 43.8065 63.6807 43.7817 62.5673C43.757 61.3273 44.6973 60.3403 45.8357 60.3909C46.9987 60.4162 47.7658 61.2766 47.7658 62.5166Z" fill="white"/>
<path d="M46.1078 73.4995C47.1719 73.5754 47.6173 74.208 47.741 75.119C47.84 75.8782 46.9491 76.764 46.2068 76.764C45.3901 76.7893 44.4498 75.8782 44.5735 75.0684C44.6973 74.1827 45.2169 73.5754 46.1078 73.4995Z" fill="white"/>
<path d="M33.0418 82.7615C32.0519 82.635 31.458 82.0782 31.458 81.1166C31.458 80.155 32.0519 79.5729 33.017 79.5223C33.9326 79.4717 34.6997 80.2815 34.6255 81.1925C34.5513 82.2048 33.9079 82.6603 33.0418 82.7615Z" fill="white"/>
<path d="M37.5939 67.3754C37.4701 68.1852 36.9752 68.7166 35.9854 68.7166C35.144 68.7166 34.4016 67.9321 34.4264 67.097C34.4511 66.2872 35.2925 65.5028 36.0844 65.5281C36.9505 65.604 37.6186 66.3379 37.5939 67.3754Z" fill="white"/>
<path d="M53.3594 64.2628C52.914 64.5917 52.518 65.0979 52.0231 65.1991C51.3055 65.3256 50.6621 64.8195 50.8106 64.035C50.8848 63.6048 51.5282 63.0227 51.9736 62.9721C52.3943 62.9215 52.8892 63.4783 53.3346 63.7566C53.3346 63.9085 53.3594 64.0856 53.3594 64.2628Z" fill="white"/>
<path d="M30.3673 72.715C29.9466 73.0693 29.5012 73.702 29.1053 73.6767C28.6598 73.6514 27.9669 73.044 27.9422 72.6391C27.9174 72.2089 28.4866 71.3991 28.8825 71.3485C29.328 71.2979 29.8724 71.8799 30.3673 72.1836C30.3673 72.3607 30.3673 72.5379 30.3673 72.715Z" fill="white"/>
<path d="M40.045 75.9796C39.3027 76.5869 38.8325 77.2955 38.4613 77.2449C37.9911 77.1689 37.5704 76.511 37.125 76.1061C37.5209 75.7012 37.8674 75.0433 38.3128 74.9926C38.7582 74.9167 39.2532 75.4735 40.045 75.9796Z" fill="white"/>
<path d="M51.9001 56.2408C51.43 56.5191 50.9103 57.0759 50.5391 56.9999C50.1184 56.8987 49.5493 56.1901 49.574 55.7853C49.5988 55.4057 50.2917 54.7983 50.7123 54.773C51.1083 54.7477 51.5289 55.3804 51.9496 55.7093C51.9249 55.8865 51.9249 56.0636 51.9001 56.2408Z" fill="white"/>
<path d="M42.8168 81.0154C43.386 81.7999 43.9304 82.2048 43.9799 82.6856C44.0788 83.3942 43.5839 84.0522 42.792 83.8497C42.3219 83.7232 41.728 83.1411 41.6785 82.7109C41.6537 82.2807 42.2476 81.7999 42.8168 81.0154Z" fill="white"/>
<path d="M37.0494 100.046C36.604 100.349 36.1586 100.906 35.7379 100.881C35.3667 100.855 34.7728 100.197 34.748 99.7925C34.748 99.4129 35.3172 98.7296 35.6884 98.679C36.1091 98.6284 36.5793 99.1598 37.0247 99.4635C37.0247 99.666 37.0494 99.8684 37.0494 100.046Z" fill="white"/>
<path d="M51.9235 45.9664C51.1564 46.5231 50.6615 47.1558 50.3398 47.0545C49.8944 46.928 49.35 46.3207 49.3005 45.8651C49.2757 45.5362 49.9439 44.8276 50.3151 44.8276C50.7605 44.8023 51.2059 45.3843 51.9235 45.9664Z" fill="white"/>
<path d="M26.5802 94.0227C25.813 94.5541 25.3181 95.1362 24.9717 95.0602C24.5262 94.959 24.2045 94.3264 23.8086 93.9215C24.1798 93.5419 24.5757 92.8839 24.9469 92.8839C25.3676 92.8839 25.813 93.466 26.5802 94.0227Z" fill="white"/>
<path d="M58.6306 50.1167C58.1851 50.4203 57.7397 50.9518 57.319 50.9265C56.9479 50.9012 56.3045 50.2938 56.3045 49.9142C56.2797 49.5346 56.8736 48.8767 57.2448 48.8261C57.6655 48.7754 58.1604 49.2563 58.6306 49.5346C58.6306 49.7118 58.6306 49.9142 58.6306 50.1167Z" fill="white"/>
<path d="M42.2233 50.5974C41.8026 50.8758 41.4314 51.3313 40.986 51.4072C40.2436 51.5338 39.7734 51.0023 39.9219 50.2685C40.0209 49.8636 40.5405 49.2815 40.887 49.2815C41.3324 49.2815 41.7778 49.7623 42.2233 50.0407C42.248 50.2432 42.2233 50.4203 42.2233 50.5974Z" fill="white"/>
<path d="M32.5446 58.088C32.0249 57.3289 31.4558 56.848 31.53 56.5191C31.629 56.0636 32.2229 55.7346 32.6188 55.355C32.9653 55.7346 33.5344 56.1142 33.5592 56.5191C33.6087 56.8987 33.0643 57.3289 32.5446 58.088Z" fill="white"/>
</svg>
