<svg width="41" height="41" viewBox="0 0 41 41" fill="none" xmlns="http://www.w3.org/2000/svg">
<path d="M34.5625 5.03125H6.4375C4.10755 5.03125 2.21875 6.92005 2.21875 9.25V34.5625C2.21875 36.8925 4.10755 38.7812 6.4375 38.7812H34.5625C36.8925 38.7812 38.7812 36.8925 38.7812 34.5625V9.25C38.7812 6.92005 36.8925 5.03125 34.5625 5.03125Z" stroke="#1E90FF" stroke-width="2.87323" stroke-linejoin="round"/>
<path d="M24.0156 20.5C25.1806 20.5 26.125 19.5556 26.125 18.3906C26.125 17.2256 25.1806 16.2812 24.0156 16.2812C22.8506 16.2812 21.9062 17.2256 21.9062 18.3906C21.9062 19.5556 22.8506 20.5 24.0156 20.5Z" fill="#1E90FF"/>
<path d="M31.0469 20.5C32.2119 20.5 33.1563 19.5556 33.1563 18.3906C33.1563 17.2256 32.2119 16.2812 31.0469 16.2812C29.8819 16.2812 28.9375 17.2256 28.9375 18.3906C28.9375 19.5556 29.8819 20.5 31.0469 20.5Z" fill="#1E90FF"/>
<path d="M24.0156 27.5312C25.1806 27.5312 26.125 26.5869 26.125 25.4219C26.125 24.2569 25.1806 23.3125 24.0156 23.3125C22.8506 23.3125 21.9062 24.2569 21.9062 25.4219C21.9062 26.5869 22.8506 27.5312 24.0156 27.5312Z" fill="#1E90FF"/>
<path d="M31.0469 27.5312C32.2119 27.5312 33.1563 26.5869 33.1563 25.4219C33.1563 24.2569 32.2119 23.3125 31.0469 23.3125C29.8819 23.3125 28.9375 24.2569 28.9375 25.4219C28.9375 26.5869 29.8819 27.5312 31.0469 27.5312Z" fill="#1E90FF"/>
<path d="M9.95312 27.5312C11.1181 27.5312 12.0625 26.5869 12.0625 25.4219C12.0625 24.2569 11.1181 23.3125 9.95312 23.3125C8.78815 23.3125 7.84375 24.2569 7.84375 25.4219C7.84375 26.5869 8.78815 27.5312 9.95312 27.5312Z" fill="#1E90FF"/>
<path d="M16.9844 27.5312C18.1494 27.5312 19.0938 26.5869 19.0938 25.4219C19.0938 24.2569 18.1494 23.3125 16.9844 23.3125C15.8194 23.3125 14.875 24.2569 14.875 25.4219C14.875 26.5869 15.8194 27.5312 16.9844 27.5312Z" fill="#1E90FF"/>
<path d="M9.95312 34.5625C11.1181 34.5625 12.0625 33.6181 12.0625 32.4531C12.0625 31.2881 11.1181 30.3438 9.95312 30.3438C8.78815 30.3438 7.84375 31.2881 7.84375 32.4531C7.84375 33.6181 8.78815 34.5625 9.95312 34.5625Z" fill="#1E90FF"/>
<path d="M16.9844 34.5625C18.1494 34.5625 19.0938 33.6181 19.0938 32.4531C19.0938 31.2881 18.1494 30.3438 16.9844 30.3438C15.8194 30.3438 14.875 31.2881 14.875 32.4531C14.875 33.6181 15.8194 34.5625 16.9844 34.5625Z" fill="#1E90FF"/>
<path d="M24.0156 34.5625C25.1806 34.5625 26.125 33.6181 26.125 32.4531C26.125 31.2881 25.1806 30.3438 24.0156 30.3438C22.8506 30.3438 21.9062 31.2881 21.9062 32.4531C21.9062 33.6181 22.8506 34.5625 24.0156 34.5625Z" fill="#1E90FF"/>
<path d="M31.75 2.21875V5.03125M9.25 2.21875V5.03125V2.21875Z" stroke="#1E90FF" stroke-width="2.87323" stroke-linecap="round" stroke-linejoin="round"/>
<path d="M38.7812 12.0625H2.21875" stroke="#1E90FF" stroke-width="2.87323" stroke-linejoin="round"/>
</svg>
