<svg width="35" height="35" viewBox="0 0 35 35" fill="none" xmlns="http://www.w3.org/2000/svg">
<path d="M17.5 0C12.8587 0 8.40752 1.84375 5.12563 5.12563C1.84374 8.40752 -3.57627e-07 12.8587 -3.57627e-07 17.5C-3.57627e-07 22.1413 1.84374 26.5925 5.12563 29.8744C8.40752 33.1563 12.8587 35 17.5 35C22.1413 35 26.5925 33.1563 29.8744 29.8744C33.1563 26.5925 35 22.1413 35 17.5C35 12.8587 33.1563 8.40752 29.8744 5.12563C26.5925 1.84375 22.1413 0 17.5 0ZM25.1562 16.4062C25.4463 16.4062 25.7245 16.5215 25.9296 16.7266C26.1348 16.9317 26.25 17.2099 26.25 17.5C26.25 17.7901 26.1348 18.0683 25.9296 18.2734C25.7245 18.4785 25.4463 18.5937 25.1562 18.5937L12.4841 18.5937L17.1806 23.2881C17.2823 23.3898 17.363 23.5105 17.418 23.6434C17.4731 23.7763 17.5014 23.9187 17.5014 24.0625C17.5014 24.2063 17.4731 24.3487 17.418 24.4816C17.363 24.6145 17.2823 24.7352 17.1806 24.8369C17.0789 24.9386 16.9582 25.0192 16.8253 25.0743C16.6925 25.1293 16.5501 25.1576 16.4062 25.1576C16.2624 25.1576 16.12 25.1293 15.9872 25.0743C15.8543 25.0192 15.7336 24.9386 15.6319 24.8369L9.06937 18.2744C8.96752 18.1728 8.88671 18.0521 8.83157 17.9192C8.77643 17.7863 8.74805 17.6439 8.74805 17.5C8.74805 17.3561 8.77643 17.2137 8.83157 17.0808C8.88671 16.9479 8.96752 16.8272 9.06937 16.7256L15.6319 10.1631C15.7336 10.0614 15.8543 9.98077 15.9872 9.92573C16.12 9.87069 16.2624 9.84237 16.4062 9.84237C16.5501 9.84237 16.6925 9.87069 16.8253 9.92573C16.9582 9.98077 17.0789 10.0614 17.1806 10.1631C17.2823 10.2648 17.363 10.3855 17.418 10.5184C17.4731 10.6513 17.5014 10.7937 17.5014 10.9375C17.5014 11.0813 17.4731 11.2237 17.418 11.3566C17.363 11.4895 17.2823 11.6102 17.1806 11.7119L12.4841 16.4062L25.1562 16.4062Z" fill="#1E90FF"/>
</svg>
