<svg width="29" height="29" viewBox="0 0 29 29" fill="none" xmlns="http://www.w3.org/2000/svg">
<path d="M24.1154 3.9231H4.88462C3.29149 3.9231 2 5.21458 2 6.80771V24.1154C2 25.7085 3.29149 27 4.88462 27H24.1154C25.7085 27 27 25.7085 27 24.1154V6.80771C27 5.21458 25.7085 3.9231 24.1154 3.9231Z" stroke="#1E90FF" stroke-width="2.87323" stroke-linejoin="round"/>
<path d="M16.9042 14.5001C17.7008 14.5001 18.3465 13.8544 18.3465 13.0578C18.3465 12.2612 17.7008 11.6155 16.9042 11.6155C16.1077 11.6155 15.4619 12.2612 15.4619 13.0578C15.4619 13.8544 16.1077 14.5001 16.9042 14.5001Z" fill="#1E90FF"/>
<path d="M21.7118 14.5001C22.5084 14.5001 23.1541 13.8544 23.1541 13.0578C23.1541 12.2612 22.5084 11.6155 21.7118 11.6155C20.9153 11.6155 20.2695 12.2612 20.2695 13.0578C20.2695 13.8544 20.9153 14.5001 21.7118 14.5001Z" fill="#1E90FF"/>
<path d="M16.9042 19.3077C17.7008 19.3077 18.3465 18.662 18.3465 17.8654C18.3465 17.0688 17.7008 16.4231 16.9042 16.4231C16.1077 16.4231 15.4619 17.0688 15.4619 17.8654C15.4619 18.662 16.1077 19.3077 16.9042 19.3077Z" fill="#1E90FF"/>
<path d="M21.7118 19.3077C22.5084 19.3077 23.1541 18.662 23.1541 17.8654C23.1541 17.0688 22.5084 16.4231 21.7118 16.4231C20.9153 16.4231 20.2695 17.0688 20.2695 17.8654C20.2695 18.662 20.9153 19.3077 21.7118 19.3077Z" fill="#1E90FF"/>
<path d="M7.28801 19.3077C8.08458 19.3077 8.73032 18.662 8.73032 17.8654C8.73032 17.0688 8.08458 16.4231 7.28801 16.4231C6.49145 16.4231 5.8457 17.0688 5.8457 17.8654C5.8457 18.662 6.49145 19.3077 7.28801 19.3077Z" fill="#1E90FF"/>
<path d="M12.0966 19.3077C12.8932 19.3077 13.5389 18.662 13.5389 17.8654C13.5389 17.0688 12.8932 16.4231 12.0966 16.4231C11.3 16.4231 10.6543 17.0688 10.6543 17.8654C10.6543 18.662 11.3 19.3077 12.0966 19.3077Z" fill="#1E90FF"/>
<path d="M7.28801 24.1153C8.08458 24.1153 8.73032 23.4696 8.73032 22.673C8.73032 21.8765 8.08458 21.2307 7.28801 21.2307C6.49145 21.2307 5.8457 21.8765 5.8457 22.673C5.8457 23.4696 6.49145 24.1153 7.28801 24.1153Z" fill="#1E90FF"/>
<path d="M12.0966 24.1153C12.8932 24.1153 13.5389 23.4696 13.5389 22.673C13.5389 21.8765 12.8932 21.2307 12.0966 21.2307C11.3 21.2307 10.6543 21.8765 10.6543 22.673C10.6543 23.4696 11.3 24.1153 12.0966 24.1153Z" fill="#1E90FF"/>
<path d="M16.9042 24.1153C17.7008 24.1153 18.3465 23.4696 18.3465 22.673C18.3465 21.8765 17.7008 21.2307 16.9042 21.2307C16.1077 21.2307 15.4619 21.8765 15.4619 22.673C15.4619 23.4696 16.1077 24.1153 16.9042 24.1153Z" fill="#1E90FF"/>
<path d="M22.1922 2V3.92308M6.80762 2V3.92308V2Z" stroke="#1E90FF" stroke-width="2.87323" stroke-linecap="round" stroke-linejoin="round"/>
<path d="M27 8.73071H2" stroke="#1E90FF" stroke-width="2.87323" stroke-linejoin="round"/>
</svg>
