<svg width="18" height="16" viewBox="0 0 18 16" fill="none" xmlns="http://www.w3.org/2000/svg">
<path d="M3 0.00195312C2.20435 0.00195313 1.44129 0.318024 0.87868 0.880633C0.31607 1.44324 0 2.2063 0 3.00195V3.30345L9 8.14995L18 3.30495V3.00195C18 2.2063 17.6839 1.44324 17.1213 0.880633C16.5587 0.318024 15.7956 0.00195313 15 0.00195312H3ZM18 5.00745L9.3555 9.66195C9.24624 9.72077 9.12409 9.75156 9 9.75156C8.87591 9.75156 8.75376 9.72077 8.6445 9.66195L0 5.00745V12.002C0 12.7976 0.31607 13.5607 0.87868 14.1233C1.44129 14.6859 2.20435 15.002 3 15.002H15C15.7956 15.002 16.5587 14.6859 17.1213 14.1233C17.6839 13.5607 18 12.7976 18 12.002V5.00745Z" fill="white"/>
</svg>
