<svg width="30" height="31" viewBox="0 0 30 31" fill="none" xmlns="http://www.w3.org/2000/svg">
<path d="M6.21387 18.5516C6.21387 17.8626 5.64754 17.2952 4.95985 17.2952C4.27216 17.2952 3.70584 17.8626 3.72606 18.5516C3.72606 19.2407 4.29239 19.8081 4.98008 19.7878C5.66776 19.8081 6.21387 19.2407 6.21387 18.5516Z" fill="#1E90FF"/>
<path d="M30 4.82767C29.9798 4.68581 29.9595 4.54395 29.9191 4.40209C29.7977 3.95625 29.555 3.59147 29.2719 3.24696C28.746 2.61873 28.119 2.13235 27.4313 1.72704C27.3908 1.70678 27.3504 1.64598 27.3302 1.60545C26.9459 0.592174 25.975 -0.0360566 24.8828 0.00447442C23.7299 0.0450054 22.7186 0.936688 22.5366 2.09182C22.3343 3.42935 23.1434 4.66554 24.4581 4.94926C25.2873 5.13165 26.0559 4.92899 26.7031 4.36156C26.7234 4.34129 26.7436 4.32103 26.7638 4.30076C26.9863 4.46289 27.1886 4.62501 27.3706 4.8074C27.492 4.92899 27.5122 5.07085 27.4717 5.23298C27.1077 7.50271 26.4807 9.71165 25.5907 11.8395C25.0851 13.0757 24.4581 14.2309 23.649 15.3049C23.1838 15.9129 22.6579 16.4803 22.0107 16.9262C21.323 17.3923 20.5746 17.6152 19.7454 17.5544C18.997 17.5139 18.3498 17.2302 17.7632 16.7843C17.0958 16.2777 16.5497 15.6494 16.0845 14.9807C15.4574 14.0687 14.9316 13.1163 14.4866 12.103C13.7585 10.4817 13.2528 8.77944 12.8685 7.05687C12.7269 6.42864 12.6258 5.78014 12.5044 5.13165C12.5044 5.09112 12.5044 5.03032 12.5247 5.01006C12.646 4.8682 12.7674 4.72634 12.909 4.58448C12.9899 4.50342 13.091 4.44262 13.1719 4.38182C13.2326 4.32103 13.2933 4.32103 13.3539 4.38182C13.6573 4.66554 14.0214 4.8682 14.4259 4.94926C15.7608 5.25324 17.116 4.40209 17.4194 3.06457C17.743 1.62572 16.7924 0.227395 15.3361 0.0247399C14.2034 -0.137384 13.1112 0.511112 12.6865 1.56492C12.646 1.64598 12.6056 1.70678 12.5247 1.74731C11.8572 2.13235 11.2504 2.59846 10.765 3.18616C10.4414 3.5712 10.1582 3.97651 10.0571 4.48315C9.97618 4.84793 9.97618 5.23298 10.0571 5.59775C10.1784 6.28678 10.2998 6.97581 10.4414 7.66484C10.6436 8.71864 10.947 9.75218 11.3111 10.7452C11.6752 11.7787 12.0797 12.8123 12.5449 13.8053C13.0505 14.8794 13.6371 15.8926 14.3652 16.8248C15.0327 17.6963 15.8013 18.4664 16.7317 19.0743C16.934 19.1959 17.1564 19.3175 17.3587 19.4391C17.3992 19.4594 17.4396 19.4999 17.4396 19.5404C17.6216 20.5132 18.0059 21.3846 18.6329 22.1547C18.6532 22.1749 18.6734 22.2357 18.6734 22.2763C18.5116 23.249 18.1475 24.161 17.5812 24.9513C16.671 26.2078 15.4777 27.0184 13.9809 27.4034C13.3135 27.5656 12.646 27.6061 11.9583 27.5453C11.0886 27.4642 10.2593 27.2413 9.49075 26.8157C8.15583 26.0862 7.18498 25.0324 6.6591 23.5935C6.6591 23.5733 6.63888 23.553 6.63888 23.5327C6.71978 23.4922 6.82091 23.4719 6.90182 23.4314C8.60081 22.7018 9.65256 21.4251 9.95595 19.6012C10.2593 17.7976 9.67279 16.2574 8.33787 15.0212C7.56928 14.3119 6.6591 13.9066 5.62757 13.785C3.94881 13.6026 2.51276 14.1295 1.33964 15.3657C0.651957 16.0953 0.227209 16.9667 0.0654011 17.9597C-0.157085 19.4188 0.186756 20.7361 1.11716 21.8912C1.86552 22.8032 2.81615 23.3706 3.94881 23.6341C4.02971 23.6543 4.04994 23.6746 4.09039 23.7556C4.53536 25.2958 5.32418 26.6131 6.51752 27.7074C7.69063 28.8018 9.08623 29.5111 10.6639 29.8556C11.1088 29.9569 11.5538 29.9772 11.9988 30.038C12.0392 30.038 12.0797 30.0582 12.1201 30.0582C12.3831 30.0582 12.6662 30.0582 12.9292 30.0582C12.9696 30.0582 13.0101 30.038 13.0303 30.038C13.2528 30.0177 13.4753 29.9974 13.6978 29.9772C14.6686 29.8353 15.599 29.5516 16.489 29.0855C18.1273 28.2343 19.3813 26.9981 20.251 25.3566C20.7365 24.4447 21.0601 23.4517 21.2017 22.4181C21.2017 22.3776 21.2219 22.3371 21.2623 22.3168C21.5455 22.0331 21.7882 21.6886 21.9905 21.3441C22.2939 20.7766 22.5164 20.1687 22.6175 19.5202C22.6377 19.4594 22.6579 19.3986 22.7186 19.3783C23.204 19.1351 23.6692 18.8311 24.0738 18.4664C25.0446 17.6557 25.8132 16.683 26.4807 15.6089C27.1886 14.4943 27.7347 13.2986 28.2201 12.0625C29.0089 10.0562 29.6359 8.00935 29.9595 5.86121C29.9191 5.71935 29.9595 5.47616 30 5.25324C30 5.11138 30 4.96952 30 4.82767ZM2.4723 18.8311C2.4723 17.4328 3.56451 16.3385 4.96011 16.3182C6.31526 16.2979 7.42769 17.3517 7.46815 18.7501C7.5086 20.2295 6.35571 21.3238 4.98034 21.3238C3.58474 21.3238 2.4723 20.2295 2.4723 18.8311Z" fill="#1E90FF"/>
</svg>
