<svg width="18" height="18" viewBox="0 0 18 18" fill="none" xmlns="http://www.w3.org/2000/svg">
<path d="M12.7864 7.22024C12.8541 7.28988 12.9078 7.37261 12.9445 7.46368C12.9811 7.55476 13 7.6524 13 7.751C13 7.84961 12.9811 7.94725 12.9445 8.03833C12.9078 8.1294 12.8541 8.21213 12.7864 8.28177L8.42397 12.7798C8.35643 12.8496 8.2762 12.905 8.18787 12.9428C8.09953 12.9805 8.00484 13 7.9092 13C7.81357 13 7.71887 12.9805 7.63054 12.9428C7.54221 12.905 7.46198 12.8496 7.39444 12.7798L5.21322 10.5308C5.14562 10.4611 5.092 10.3783 5.05541 10.2872C5.01883 10.1962 5 10.0986 5 10C5 9.90143 5.01883 9.80382 5.05541 9.71275C5.092 9.62168 5.14562 9.53894 5.21322 9.46924C5.34975 9.32847 5.53492 9.24939 5.72799 9.24939C5.82359 9.24939 5.91826 9.2688 6.00658 9.30652C6.0949 9.34425 6.17516 9.39954 6.24276 9.46924L7.9092 11.189L11.7569 7.22024C11.8244 7.15043 11.9046 7.09504 11.993 7.05725C12.0813 7.01945 12.176 7 12.2716 7C12.3673 7 12.462 7.01945 12.5503 7.05725C12.6386 7.09504 12.7189 7.15043 12.7864 7.22024V7.22024Z" fill="white"/>
<path d="M3.9375 0C4.08668 0 4.22976 0.0592632 4.33525 0.164752C4.44074 0.270242 4.5 0.413316 4.5 0.5625V1.125H13.5V0.5625C13.5 0.413316 13.5593 0.270242 13.6648 0.164752C13.7702 0.0592632 13.9133 0 14.0625 0C14.2117 0 14.3548 0.0592632 14.4602 0.164752C14.5657 0.270242 14.625 0.413316 14.625 0.5625V1.125H15.75C16.3467 1.125 16.919 1.36205 17.341 1.78401C17.7629 2.20597 18 2.77826 18 3.375V15.75C18 16.3467 17.7629 16.919 17.341 17.341C16.919 17.7629 16.3467 18 15.75 18H2.25C1.65326 18 1.08097 17.7629 0.65901 17.341C0.237053 16.919 0 16.3467 0 15.75V3.375C0 2.77826 0.237053 2.20597 0.65901 1.78401C1.08097 1.36205 1.65326 1.125 2.25 1.125H3.375V0.5625C3.375 0.413316 3.43426 0.270242 3.53975 0.164752C3.64524 0.0592632 3.78832 0 3.9375 0V0ZM1.125 4.5V15.75C1.125 16.0484 1.24353 16.3345 1.4545 16.5455C1.66548 16.7565 1.95163 16.875 2.25 16.875H15.75C16.0484 16.875 16.3345 16.7565 16.5455 16.5455C16.7565 16.3345 16.875 16.0484 16.875 15.75V4.5H1.125Z" fill="white"/>
</svg>
