<svg width="45" height="45" viewBox="0 0 45 45" fill="none" xmlns="http://www.w3.org/2000/svg">
<path d="M44.9717 7.62192C44.942 7.41375 44.9123 7.20559 44.853 6.99743C44.6749 6.34321 44.3187 5.80793 43.9032 5.3024C43.1315 4.38054 42.2115 3.66684 41.2024 3.07209C41.143 3.04235 41.0837 2.95314 41.054 2.89366C40.4901 1.40679 39.0654 0.484933 37.4627 0.544408C35.771 0.603882 34.287 1.91233 34.0199 3.60736C33.7231 5.57003 34.9103 7.38402 36.8395 7.80034C38.0563 8.06798 39.1842 7.7706 40.1339 6.93796C40.1636 6.90822 40.1933 6.87848 40.2229 6.84874C40.5494 7.08664 40.8462 7.32454 41.1133 7.59218C41.2914 7.7706 41.3211 7.97877 41.2617 8.21666C40.7275 11.5473 39.8074 14.7886 38.5015 17.9111C37.7595 19.7251 36.8395 21.4201 35.6523 22.9962C34.9697 23.8883 34.198 24.7209 33.2482 25.3752C32.2391 26.0591 31.141 26.3862 29.9241 26.297C28.826 26.2375 27.8762 25.8212 27.0155 25.167C26.0361 24.4236 25.2348 23.5017 24.5521 22.5204C23.6321 21.1822 22.8604 19.7845 22.2074 18.2977C21.139 15.9187 20.397 13.4207 19.8331 10.893C19.6253 9.97117 19.4769 9.01958 19.2988 8.06798C19.2988 8.0085 19.2988 7.91929 19.3285 7.88955C19.5066 7.68139 19.6847 7.47323 19.8924 7.26507C20.0112 7.14612 20.1596 7.05691 20.2783 6.96769C20.3673 6.87848 20.4563 6.87848 20.5454 6.96769C20.9906 7.38402 21.5248 7.68139 22.1184 7.80034C24.0773 8.2464 26.0658 6.99743 26.511 5.03476C26.9859 2.9234 25.5909 0.871519 23.454 0.574145C21.7919 0.336246 20.1892 1.28784 19.566 2.83419C19.5066 2.95314 19.4472 3.04235 19.3285 3.10183C18.3491 3.66684 17.4587 4.3508 16.7464 5.21318C16.2715 5.7782 15.856 6.37294 15.7076 7.11638C15.5889 7.65165 15.5889 8.21666 15.7076 8.75194C15.8857 9.76301 16.0638 10.7741 16.2715 11.7852C16.5683 13.3315 17.0135 14.8481 17.5478 16.3052C18.082 17.8219 18.6756 19.3385 19.3582 20.7956C20.1002 22.3717 20.9609 23.8586 22.0294 25.2265C23.0088 26.5052 24.1366 27.6352 25.5019 28.5273C25.7987 28.7058 26.1251 28.8842 26.4219 29.0626C26.4813 29.0923 26.5407 29.1518 26.5407 29.2113C26.8078 30.6387 27.3717 31.9174 28.2918 33.0474C28.3214 33.0772 28.3511 33.1664 28.3511 33.2258C28.1137 34.6532 27.5794 35.9914 26.7484 37.1512C25.4128 38.9949 23.6617 40.1844 21.4655 40.7494C20.486 40.9873 19.5066 41.0468 18.4975 40.9576C17.2213 40.8386 16.0044 40.5115 14.8766 39.887C12.9177 38.8165 11.4931 37.2701 10.7214 35.1588C10.7214 35.129 10.6918 35.0993 10.6918 35.0696C10.8105 35.0101 10.9589 34.9804 11.0776 34.9209C13.5707 33.8503 15.114 31.9769 15.5592 29.3005C16.0044 26.6539 15.1437 24.3938 13.1849 22.5798C12.057 21.539 10.7214 20.9443 9.20779 20.7659C6.74439 20.4982 4.63714 21.2714 2.91572 23.0854C1.90662 24.1559 1.28334 25.4346 1.04591 26.8918C0.719433 29.0329 1.22398 30.9658 2.58924 32.6608C3.68739 33.999 5.08233 34.8317 6.74439 35.2183C6.8631 35.248 6.89278 35.2777 6.95214 35.3967C7.60509 37.6567 8.7626 39.5897 10.5137 41.1955C12.2351 42.8013 14.283 43.8421 16.598 44.3476C17.251 44.4963 17.9039 44.5261 18.5569 44.6153C18.6162 44.6153 18.6756 44.645 18.7349 44.645C19.1208 44.645 19.5363 44.645 19.9221 44.645C19.9815 44.645 20.0408 44.6153 20.0705 44.6153C20.397 44.5855 20.7235 44.5558 21.0499 44.5261C22.4746 44.3179 23.8398 43.9016 25.1457 43.2176C27.5498 41.9686 29.3899 40.1547 30.6661 37.7459C31.3784 36.4077 31.8533 34.9506 32.0611 33.434C32.0611 33.3745 32.0907 33.3151 32.1501 33.2853C32.5656 32.869 32.9218 32.3635 33.2186 31.8579C33.6638 31.0253 33.9902 30.1332 34.1386 29.1816C34.1683 29.0923 34.198 29.0031 34.287 28.9734C34.9993 28.6165 35.682 28.1705 36.2756 27.6352C37.7002 26.4457 38.828 25.0183 39.8074 23.4422C40.8462 21.8067 41.6476 20.0522 42.3599 18.2382C43.5174 15.2942 44.4374 12.2907 44.9123 9.13853C44.853 8.93036 44.9123 8.57351 44.9717 8.2464C44.9717 8.03824 44.9717 7.83008 44.9717 7.62192ZM4.57778 28.1705C4.57778 26.1186 6.18047 24.5128 8.22836 24.483C10.2169 24.4533 11.8493 25.9996 11.9086 28.0515C11.968 30.2224 10.2763 31.8282 8.25805 31.8282C6.21015 31.8282 4.57778 30.2224 4.57778 28.1705Z" fill="#1E90FF"/>
<path d="M10.0684 27.7603C10.0684 26.7492 9.23733 25.9166 8.22823 25.9166C7.21912 25.9166 6.3881 26.7492 6.41778 27.7603C6.41778 28.7714 7.2488 29.604 8.25791 29.5743C9.26701 29.604 10.0684 28.7714 10.0684 27.7603Z" fill="#1E90FF"/>
</svg>
