<svg width="83" height="114" viewBox="0 0 83 114" fill="none" xmlns="http://www.w3.org/2000/svg">
<path d="M80.8453 98.0933C81.5104 102.417 83.1732 109.566 80.8453 111.229C70.5361 116.218 66.2129 115.054 65.049 102.915C64.2176 94.7678 63.7188 86.6202 62.8874 78.4726C62.7211 76.4773 62.7211 73.4843 59.5619 74.1494C56.9014 74.8145 58.2316 77.3087 58.5642 78.9715C59.7281 83.1284 59.7281 86.9528 57.7328 90.9434C48.7539 108.236 27.3041 111.229 14.1682 96.7631C6.02064 87.7841 1.69744 76.8099 0.5335 65.0042C-1.79438 42.3905 3.19393 21.7722 21.4844 6.80722C33.9552 -3.33568 52.0794 -1.17408 63.22 10.7979C70.5361 18.7792 74.6931 30.2523 59.8944 44.3858C58.7305 45.5498 56.4026 46.88 57.5665 49.0416C58.5642 51.0369 61.0584 50.2055 62.7211 50.2055C74.3605 51.0369 75.3582 52.3671 76.5221 64.5054C77.8523 75.6459 79.0163 86.7865 80.8453 98.0933Z" fill="#1E90FF"/>
</svg>
