<svg width="253" height="57" viewBox="0 0 253 57" fill="none" xmlns="http://www.w3.org/2000/svg">
<path d="M85.401 31.384C82.4356 31.384 80.1743 30.7227 78.617 29.4C77.0596 28.056 76.2276 26.2427 76.121 23.96H81.113C81.2196 25.048 81.6143 25.8907 82.297 26.488C82.9796 27.064 84.0143 27.352 85.401 27.352C86.8943 27.352 87.9823 27.0747 88.665 26.52C89.3476 25.9653 89.689 25.208 89.689 24.248C89.689 23.288 89.3583 22.5307 88.697 21.976C88.057 21.4 86.905 21.112 85.241 21.112H82.873V17.848H85.241C85.9023 17.848 86.4676 17.7733 86.937 17.624C87.4063 17.4533 87.7796 17.24 88.057 16.984C88.3556 16.7067 88.569 16.3867 88.697 16.024C88.825 15.6613 88.889 15.2773 88.889 14.872C88.889 14.0827 88.6116 13.4533 88.057 12.984C87.5023 12.4933 86.617 12.248 85.401 12.248C84.1636 12.248 83.2356 12.4827 82.617 12.952C82.0196 13.4 81.6783 14.136 81.593 15.16H76.601C76.7076 12.8987 77.4756 11.1813 78.905 10.008C80.3343 8.81333 82.4996 8.216 85.401 8.216C88.281 8.216 90.4143 8.78133 91.801 9.912C93.1876 11.0213 93.881 12.568 93.881 14.552C93.881 15.7253 93.593 16.728 93.017 17.56C92.441 18.3707 91.5983 18.9573 90.489 19.32C91.8543 19.64 92.889 20.2587 93.593 21.176C94.3183 22.072 94.681 23.2453 94.681 24.696C94.681 25.6773 94.489 26.584 94.105 27.416C93.721 28.2267 93.145 28.9307 92.377 29.528C91.609 30.104 90.6383 30.5627 89.465 30.904C88.313 31.224 86.9583 31.384 85.401 31.384ZM96.6722 27.032H99.1682C99.4882 26.2853 99.7549 25.3893 99.9682 24.344C100.182 23.2773 100.352 22.1573 100.48 20.984C100.608 19.7893 100.704 18.5733 100.768 17.336C100.832 16.0773 100.864 14.872 100.864 13.72V8.6H116.64V27.032H119.072V35.16H114.784V31H100.96V35.16H96.6722V27.032ZM111.84 27.032V12.568H105.408V14.36C105.408 17.2827 105.27 19.7467 104.992 21.752C104.715 23.7573 104.32 25.5173 103.808 27.032H111.84ZM131.911 31.384C130.503 31.384 129.159 31.1707 127.879 30.744C126.62 30.3173 125.5 29.6453 124.519 28.728C123.559 27.8107 122.791 26.6373 122.215 25.208C121.639 23.7573 121.351 22.008 121.351 19.96V19.32C121.351 17.3573 121.639 15.6827 122.215 14.296C122.791 12.888 123.559 11.736 124.519 10.84C125.5 9.944 126.62 9.28267 127.879 8.856C129.159 8.42933 130.503 8.216 131.911 8.216C133.319 8.216 134.652 8.42933 135.911 8.856C137.191 9.28267 138.311 9.944 139.271 10.84C140.252 11.736 141.031 12.888 141.607 14.296C142.183 15.6827 142.471 17.3573 142.471 19.32V19.96C142.471 22.008 142.183 23.7573 141.607 25.208C141.031 26.6373 140.252 27.8107 139.271 28.728C138.311 29.6453 137.191 30.3173 135.911 30.744C134.652 31.1707 133.319 31.384 131.911 31.384ZM131.911 27.352C132.636 27.352 133.33 27.2347 133.991 27C134.674 26.744 135.271 26.328 135.783 25.752C136.295 25.176 136.7 24.4187 136.999 23.48C137.319 22.5413 137.479 21.368 137.479 19.96V19.32C137.479 17.9973 137.319 16.888 136.999 15.992C136.7 15.096 136.295 14.3707 135.783 13.816C135.271 13.2613 134.674 12.8667 133.991 12.632C133.33 12.376 132.636 12.248 131.911 12.248C131.186 12.248 130.482 12.376 129.799 12.632C129.138 12.8667 128.551 13.2613 128.039 13.816C127.527 14.3707 127.111 15.096 126.791 15.992C126.492 16.888 126.343 17.9973 126.343 19.32V19.96C126.343 21.368 126.492 22.5413 126.791 23.48C127.111 24.4187 127.527 25.176 128.039 25.752C128.551 26.328 129.138 26.744 129.799 27C130.482 27.2347 131.186 27.352 131.911 27.352ZM146.623 8.6H155.263C158.293 8.6 160.543 9.272 162.015 10.616C163.487 11.9387 164.223 13.72 164.223 15.96C164.223 18.2 163.487 19.992 162.015 21.336C160.543 22.6587 158.293 23.32 155.263 23.32H151.423V31H146.623V8.6ZM154.783 19.352C156.49 19.352 157.685 19.064 158.367 18.488C159.071 17.912 159.423 17.0693 159.423 15.96C159.423 14.872 159.071 14.04 158.367 13.464C157.685 12.8667 156.49 12.568 154.783 12.568H151.423V19.352H154.783ZM177.505 31.384C176.097 31.384 174.753 31.1707 173.473 30.744C172.214 30.3173 171.094 29.6453 170.113 28.728C169.153 27.8107 168.385 26.6373 167.809 25.208C167.233 23.7573 166.945 22.008 166.945 19.96V19.32C166.945 17.3573 167.233 15.6827 167.809 14.296C168.385 12.888 169.153 11.736 170.113 10.84C171.094 9.944 172.214 9.28267 173.473 8.856C174.753 8.42933 176.097 8.216 177.505 8.216C178.913 8.216 180.246 8.42933 181.505 8.856C182.785 9.28267 183.905 9.944 184.865 10.84C185.846 11.736 186.625 12.888 187.201 14.296C187.777 15.6827 188.065 17.3573 188.065 19.32V19.96C188.065 22.008 187.777 23.7573 187.201 25.208C186.625 26.6373 185.846 27.8107 184.865 28.728C183.905 29.6453 182.785 30.3173 181.505 30.744C180.246 31.1707 178.913 31.384 177.505 31.384ZM177.505 27.352C178.23 27.352 178.923 27.2347 179.585 27C180.267 26.744 180.865 26.328 181.377 25.752C181.889 25.176 182.294 24.4187 182.593 23.48C182.913 22.5413 183.073 21.368 183.073 19.96V19.32C183.073 17.9973 182.913 16.888 182.593 15.992C182.294 15.096 181.889 14.3707 181.377 13.816C180.865 13.2613 180.267 12.8667 179.585 12.632C178.923 12.376 178.23 12.248 177.505 12.248C176.779 12.248 176.075 12.376 175.393 12.632C174.731 12.8667 174.145 13.2613 173.633 13.816C173.121 14.3707 172.705 15.096 172.385 15.992C172.086 16.888 171.937 17.9973 171.937 19.32V19.96C171.937 21.368 172.086 22.5413 172.385 23.48C172.705 24.4187 173.121 25.176 173.633 25.752C174.145 26.328 174.731 26.744 175.393 27C176.075 27.2347 176.779 27.352 177.505 27.352ZM192.217 8.6H201.817C204.335 8.6 206.191 9.13333 207.385 10.2C208.58 11.2453 209.177 12.7067 209.177 14.584C209.177 15.736 208.889 16.728 208.313 17.56C207.759 18.3707 206.991 18.9573 206.009 19.32C207.289 19.6187 208.292 20.2267 209.017 21.144C209.764 22.04 210.137 23.2133 210.137 24.664C210.137 25.624 209.988 26.4987 209.689 27.288C209.391 28.056 208.921 28.7173 208.281 29.272C207.663 29.8267 206.852 30.2533 205.849 30.552C204.847 30.8507 203.641 31 202.233 31H192.217V8.6ZM201.369 27.352C202.863 27.352 203.897 27.096 204.473 26.584C205.049 26.072 205.337 25.3147 205.337 24.312C205.337 23.3093 205.049 22.5307 204.473 21.976C203.897 21.4 202.852 21.112 201.337 21.112H197.017V27.352H201.369ZM200.857 17.848C202.159 17.848 203.065 17.592 203.577 17.08C204.111 16.568 204.377 15.8747 204.377 15C204.377 14.104 204.121 13.4213 203.609 12.952C203.097 12.4827 202.191 12.248 200.889 12.248H197.017V17.848H200.857ZM213.967 8.6H218.767V16.6H222.607C224.122 16.6 225.445 16.7707 226.575 17.112C227.706 17.4533 228.634 17.944 229.359 18.584C230.106 19.2027 230.661 19.96 231.023 20.856C231.386 21.7307 231.567 22.712 231.567 23.8C231.567 24.888 231.386 25.88 231.023 26.776C230.661 27.6507 230.106 28.408 229.359 29.048C228.634 29.6667 227.706 30.1467 226.575 30.488C225.445 30.8293 224.122 31 222.607 31H213.967V8.6ZM222.127 27.032C223.834 27.032 225.029 26.744 225.711 26.168C226.415 25.592 226.767 24.8027 226.767 23.8C226.767 22.7973 226.415 22.008 225.711 21.432C225.029 20.856 223.834 20.568 222.127 20.568H218.767V27.032H222.127ZM235.092 8.6H250.772V12.568H239.924V17.56H249.812V21.4H239.924V27.032H250.772V31H235.092V8.6Z" fill="white"/>
<path d="M76.121 44.52H78.105L80.809 49.48L83.513 44.52H85.401V53H83.641V47.16L81.401 51.24H80.121L77.881 47.16V53H76.121V44.52ZM91.3166 53.176C90.7513 53.176 90.2179 53.0907 89.7166 52.92C89.2153 52.7387 88.7726 52.472 88.3886 52.12C88.0153 51.7573 87.7166 51.304 87.4926 50.76C87.2686 50.216 87.1566 49.576 87.1566 48.84V48.52C87.1566 47.816 87.2633 47.2027 87.4766 46.68C87.6899 46.1573 87.9779 45.7253 88.3406 45.384C88.7139 45.032 89.1406 44.7707 89.6206 44.6C90.1006 44.4293 90.6126 44.344 91.1566 44.344C92.4473 44.344 93.4339 44.6907 94.1166 45.384C94.8099 46.0773 95.1566 47.0693 95.1566 48.36V49.256H88.9486C88.9593 49.6933 89.0286 50.0667 89.1566 50.376C89.2953 50.6747 89.4713 50.92 89.6846 51.112C89.9086 51.2933 90.1593 51.4267 90.4366 51.512C90.7246 51.5973 91.0179 51.64 91.3166 51.64C91.9246 51.64 92.3673 51.544 92.6446 51.352C92.9326 51.16 93.1299 50.9093 93.2366 50.6H94.9966C94.8259 51.4427 94.4046 52.0827 93.7326 52.52C93.0713 52.9573 92.2659 53.176 91.3166 53.176ZM91.2366 45.88C90.9379 45.88 90.6499 45.9173 90.3726 45.992C90.1059 46.0667 89.8659 46.1893 89.6526 46.36C89.4499 46.52 89.2846 46.7333 89.1566 47C89.0286 47.256 88.9593 47.5707 88.9486 47.944H93.3966C93.3859 47.5493 93.3219 47.2187 93.2046 46.952C93.0979 46.6853 92.9486 46.472 92.7566 46.312C92.5646 46.152 92.3353 46.04 92.0686 45.976C91.8126 45.912 91.5353 45.88 91.2366 45.88ZM96.0397 51.496H96.9997C97.1064 51.336 97.2024 51.096 97.2877 50.776C97.3837 50.456 97.4637 50.0933 97.5277 49.688C97.5917 49.272 97.6397 48.8293 97.6717 48.36C97.7037 47.88 97.7197 47.4 97.7197 46.92V44.52H104.04V51.496H105.16V55H103.528V53H97.6717V55H96.0397V51.496ZM102.28 51.496V46.024H99.4157V47.24C99.4157 48.0613 99.3677 48.8507 99.2717 49.608C99.1757 50.3547 99.0157 50.984 98.7917 51.496H102.28ZM106.683 44.52H108.443V50.52L112.523 44.52H114.203V53H112.443V47L108.363 53H106.683V44.52ZM123.297 53H116.449V44.52H118.209V51.496H121.889V44.52H123.649V51.496H124.929V55H123.297V53ZM126.449 44.52H128.209V50.52L132.289 44.52H133.969V53H132.209V47L128.129 53H126.449V44.52ZM136.215 44.52H137.975V47.928H141.975V44.52H143.735V53H141.975V49.432H137.975V53H136.215V44.52ZM149.5 53.176C148.924 53.176 148.391 53.0907 147.9 52.92C147.42 52.7387 146.999 52.4667 146.636 52.104C146.284 51.7413 146.007 51.288 145.804 50.744C145.602 50.2 145.5 49.5653 145.5 48.84V48.52C145.5 47.8373 145.607 47.2347 145.82 46.712C146.034 46.1893 146.322 45.752 146.684 45.4C147.058 45.048 147.484 44.7867 147.964 44.616C148.455 44.4347 148.967 44.344 149.5 44.344C150.055 44.344 150.546 44.4187 150.972 44.568C151.41 44.7173 151.778 44.9253 152.076 45.192C152.386 45.448 152.631 45.752 152.812 46.104C152.994 46.456 153.116 46.8347 153.18 47.24H151.388C151.282 46.8453 151.09 46.52 150.812 46.264C150.535 46.008 150.098 45.88 149.5 45.88C149.202 45.88 148.919 45.9333 148.652 46.04C148.386 46.136 148.151 46.2907 147.948 46.504C147.746 46.7173 147.586 46.9947 147.468 47.336C147.351 47.6667 147.292 48.0613 147.292 48.52V48.84C147.292 49.3413 147.351 49.7733 147.468 50.136C147.586 50.488 147.746 50.776 147.948 51C148.151 51.224 148.386 51.3893 148.652 51.496C148.919 51.592 149.202 51.64 149.5 51.64C150.492 51.64 151.122 51.1867 151.388 50.28H153.18C153.095 50.728 152.946 51.1333 152.732 51.496C152.53 51.848 152.268 52.152 151.948 52.408C151.628 52.6533 151.26 52.8453 150.844 52.984C150.428 53.112 149.98 53.176 149.5 53.176ZM154.855 44.52H156.615V47.96H157.575L160.551 44.52H162.535L158.935 48.568L162.695 53H160.551L157.575 49.4H156.615V53H154.855V44.52ZM164.137 44.52H165.897V50.52L169.977 44.52H171.657V53H169.897V47L165.817 53H164.137V44.52ZM173.902 44.52H175.662V50.52L179.742 44.52H181.422V53H179.662V47L175.582 53H173.902V44.52ZM177.662 43.56C176.777 43.56 176.126 43.368 175.71 42.984C175.305 42.5893 175.102 42.0347 175.102 41.32H176.734C176.734 41.704 176.809 41.9813 176.958 42.152C177.118 42.3227 177.353 42.408 177.662 42.408C177.972 42.408 178.201 42.3227 178.35 42.152C178.51 41.9813 178.59 41.704 178.59 41.32H180.222C180.222 42.0347 180.014 42.5893 179.598 42.984C179.182 43.368 178.537 43.56 177.662 43.56ZM194.516 53H187.668V44.52H189.428V51.496H193.108V44.52H194.868V51.496H196.148V55H194.516V53ZM201.27 53.176C200.704 53.176 200.171 53.0907 199.67 52.92C199.168 52.7387 198.726 52.472 198.342 52.12C197.968 51.7573 197.67 51.304 197.446 50.76C197.222 50.216 197.11 49.576 197.11 48.84V48.52C197.11 47.816 197.216 47.2027 197.43 46.68C197.643 46.1573 197.931 45.7253 198.294 45.384C198.667 45.032 199.094 44.7707 199.574 44.6C200.054 44.4293 200.566 44.344 201.11 44.344C202.4 44.344 203.387 44.6907 204.07 45.384C204.763 46.0773 205.11 47.0693 205.11 48.36V49.256H198.902C198.912 49.6933 198.982 50.0667 199.11 50.376C199.248 50.6747 199.424 50.92 199.638 51.112C199.862 51.2933 200.112 51.4267 200.39 51.512C200.678 51.5973 200.971 51.64 201.27 51.64C201.878 51.64 202.32 51.544 202.598 51.352C202.886 51.16 203.083 50.9093 203.19 50.6H204.95C204.779 51.4427 204.358 52.0827 203.686 52.52C203.024 52.9573 202.219 53.176 201.27 53.176ZM201.19 45.88C200.891 45.88 200.603 45.9173 200.326 45.992C200.059 46.0667 199.819 46.1893 199.606 46.36C199.403 46.52 199.238 46.7333 199.11 47C198.982 47.256 198.912 47.5707 198.902 47.944H203.35C203.339 47.5493 203.275 47.2187 203.158 46.952C203.051 46.6853 202.902 46.472 202.71 46.312C202.518 46.152 202.288 46.04 202.022 45.976C201.766 45.912 201.488 45.88 201.19 45.88ZM206.871 44.52H208.631V47.928H212.631V44.52H214.391V53H212.631V49.432H208.631V53H206.871V44.52ZM218.637 46.024H215.837V44.52H223.197V46.024H220.397V53H218.637V46.024ZM224.637 44.52H226.269V45.944C226.525 45.4533 226.903 45.064 227.405 44.776C227.917 44.488 228.493 44.344 229.133 44.344C230.242 44.344 231.117 44.6907 231.757 45.384C232.397 46.0773 232.717 47.1227 232.717 48.52V48.84C232.717 49.5653 232.631 50.2 232.461 50.744C232.29 51.288 232.045 51.7413 231.725 52.104C231.415 52.456 231.042 52.7227 230.605 52.904C230.167 53.0853 229.677 53.176 229.133 53.176C228.525 53.176 227.97 53.0427 227.469 52.776C226.967 52.5093 226.61 52.136 226.397 51.656V56.2H224.637V44.52ZM228.717 51.64C229.378 51.64 229.911 51.4107 230.317 50.952C230.722 50.4933 230.925 49.7893 230.925 48.84V48.52C230.925 47.624 230.727 46.9627 230.333 46.536C229.938 46.0987 229.399 45.88 228.717 45.88C228.418 45.88 228.13 45.928 227.853 46.024C227.575 46.12 227.325 46.264 227.101 46.456C226.887 46.6373 226.717 46.872 226.589 47.16C226.461 47.4373 226.397 47.7573 226.397 48.12V49.24C226.397 49.6453 226.461 49.9973 226.589 50.296C226.717 50.5947 226.887 50.8453 227.101 51.048C227.314 51.2507 227.559 51.4 227.837 51.496C228.114 51.592 228.407 51.64 228.717 51.64Z" fill="white"/>
<path d="M59.9187 17.1729C59.5566 6.09512 47.2305 -1.88753 36.9388 2.021C34.5288 2.86646 32.3324 4.22766 30.5028 6.0096C25.7718 10.6751 21.1009 15.3988 16.4026 20.0934C14.6085 21.8694 12.8671 23.6981 11.0275 25.4285C10.9292 25.5195 10.8601 25.5395 10.7582 25.4395C8.50002 23.3433 7.50833 20.4974 7.77399 17.4441C8.3217 10.8061 15.2963 7.3452 21.2901 9.26489C22.0689 9.17937 22.4765 8.29322 23.0861 7.86379C24.3944 6.59006 25.7664 5.34544 26.9691 3.98255C11.526 -6.12724 -6.76655 11.423 2.51167 27.3519C4.69521 30.8219 7.92138 33.4294 10.7691 36.3226C16.7392 30.4325 22.6148 24.4132 28.5631 18.4903C28.7705 18.2829 28.7232 18.2738 28.9416 18.4903C33.4506 22.9981 37.9566 27.5059 42.4595 32.0137C42.7143 32.2685 42.7306 32.1957 42.4595 32.465C39.8666 34.7996 37.6812 37.6727 34.6916 39.5105C28.9325 42.6876 21.8997 39.0684 20.3803 32.8307C18.2459 34.7941 16.1952 36.9176 14.1081 38.9428C13.9825 39.0666 13.9843 39.072 14.1081 39.2012C15.7894 40.9335 17.4853 42.6585 19.1739 44.3798C22.7549 48.0445 26.3401 51.7056 29.9296 55.363C30.2299 55.6214 30.5556 54.9773 30.8194 54.839C32.1041 53.4652 33.5179 52.2133 34.7971 50.8358C40.0285 45.6135 45.2745 40.4076 50.4658 35.1453C55.9283 30.1486 60.683 25.1592 59.9187 17.1729ZM45.9732 11.6704C40.5798 9.8781 37.0916 14.3343 33.7636 17.7825C33.4997 18.0846 33.0503 18.3757 32.7136 18.0027C32.5936 17.8407 32.2569 17.5569 32.408 17.3604C35.5213 14.4945 38.3545 10.0346 43.1437 10.5059C44.4902 10.6533 45.8858 11.0135 46.9485 11.887C46.6228 11.816 46.2971 11.7487 45.9732 11.6704Z" fill="url(#paint0_linear_494_5494)"/>
<path d="M42.3975 11.392C41.7646 11.4639 41.1448 11.6238 40.556 11.867C39.5843 12.2612 38.7005 12.8445 37.9558 13.5829C37.1067 14.4126 36.2575 15.2484 35.4083 16.0903C34.8515 16.6471 34.3075 17.2166 33.758 17.7807C33.6518 17.9 33.5293 18.0035 33.394 18.0882C33.2896 18.162 33.1614 18.1941 33.0345 18.1783C32.9076 18.1625 32.7912 18.0999 32.708 18.0027C32.5763 17.8623 32.4637 17.705 32.3732 17.5351C32.3617 17.5218 32.3532 17.5062 32.3484 17.4893C32.3435 17.4724 32.3425 17.4546 32.3453 17.4373C32.348 17.4199 32.3546 17.4034 32.3644 17.3889C32.3743 17.3743 32.3872 17.3621 32.4023 17.3531C32.4213 17.3363 32.4389 17.318 32.4551 17.2985C33.8453 15.9211 35.2227 14.52 36.6348 13.1571C37.1856 12.5933 37.7957 12.0906 38.4544 11.6577C39.2008 11.1973 40.0196 10.8663 40.8763 10.6788C41.6215 10.5114 42.3871 10.4531 43.149 10.5059C44.3197 10.6009 45.4552 10.9518 46.4752 11.534C46.6541 11.6193 46.8143 11.7393 46.9465 11.887C46.6226 11.816 46.2969 11.7487 45.973 11.6704C45.4231 11.5261 44.8637 11.4203 44.299 11.3538C43.6662 11.2836 43.0269 11.2964 42.3975 11.392Z" fill="white"/>
<defs>
<linearGradient id="paint0_linear_494_5494" x1="0.803047" y1="37.3689" x2="67.5411" y2="8.60619" gradientUnits="userSpaceOnUse">
<stop stop-color="#2474E2"/>
<stop offset="0.41" stop-color="#258DFB"/>
<stop offset="0.63" stop-color="#0493E3"/>
</linearGradient>
</defs>
</svg>
