<svg width="253" height="54" viewBox="0 0 253 54" fill="none" xmlns="http://www.w3.org/2000/svg">
<g clip-path="url(#clip0_494_9669)">
<path d="M85.4011 30.3839C82.4357 30.3839 80.1744 29.7226 78.6171 28.3999C77.0597 27.0559 76.2277 25.2426 76.1211 22.9599H81.1131C81.2197 24.0479 81.6144 24.8906 82.2971 25.4879C82.9797 26.0639 84.0144 26.3519 85.4011 26.3519C86.8944 26.3519 87.9824 26.0746 88.6651 25.5199C89.3477 24.9652 89.6891 24.2079 89.6891 23.2479C89.6891 22.2879 89.3584 21.5306 88.6971 20.9759C88.0571 20.3999 86.9051 20.1119 85.2411 20.1119H82.8731V16.8479H85.2411C85.9024 16.8479 86.4677 16.7732 86.9371 16.6239C87.4064 16.4532 87.7797 16.2399 88.0571 15.9839C88.3557 15.7066 88.5691 15.3866 88.6971 15.0239C88.8251 14.6612 88.8891 14.2772 88.8891 13.8719C88.8891 13.0826 88.6117 12.4532 88.0571 11.9839C87.5024 11.4932 86.6171 11.2479 85.4011 11.2479C84.1637 11.2479 83.2357 11.4826 82.6171 11.9519C82.0197 12.3999 81.6784 13.1359 81.5931 14.1599H76.6011C76.7077 11.8986 77.4757 10.1812 78.9051 9.00794C80.3344 7.81327 82.4997 7.21594 85.4011 7.21594C88.2811 7.21594 90.4144 7.78127 91.8011 8.91194C93.1877 10.0212 93.8811 11.5679 93.8811 13.5519C93.8811 14.7252 93.5931 15.7279 93.0171 16.5599C92.4411 17.3706 91.5984 17.9572 90.4891 18.3199C91.8544 18.6399 92.8891 19.2586 93.5931 20.1759C94.3184 21.0719 94.6811 22.2452 94.6811 23.6959C94.6811 24.6772 94.4891 25.5839 94.1051 26.4159C93.7211 27.2266 93.1451 27.9306 92.3771 28.5279C91.6091 29.1039 90.6384 29.5626 89.4651 29.9039C88.3131 30.2239 86.9584 30.3839 85.4011 30.3839ZM96.6723 26.0319H99.1683C99.4883 25.2852 99.755 24.3892 99.9683 23.3439C100.182 22.2772 100.352 21.1572 100.48 19.9839C100.608 18.7892 100.704 17.5732 100.768 16.3359C100.832 15.0772 100.864 13.8719 100.864 12.7199V7.59994H116.64V26.0319H119.072V34.1599H114.784V29.9999H100.96V34.1599H96.6723V26.0319ZM111.84 26.0319V11.5679H105.408V13.3599C105.408 16.2826 105.27 18.7466 104.992 20.7519C104.715 22.7572 104.32 24.5172 103.808 26.0319H111.84ZM131.911 30.3839C130.503 30.3839 129.159 30.1706 127.879 29.7439C126.62 29.3172 125.5 28.6452 124.519 27.7279C123.559 26.8106 122.791 25.6372 122.215 24.2079C121.639 22.7572 121.351 21.0079 121.351 18.9599V18.3199C121.351 16.3572 121.639 14.6826 122.215 13.2959C122.791 11.8879 123.559 10.7359 124.519 9.83994C125.5 8.94394 126.62 8.28261 127.879 7.85594C129.159 7.42927 130.503 7.21594 131.911 7.21594C133.319 7.21594 134.652 7.42927 135.911 7.85594C137.191 8.28261 138.311 8.94394 139.271 9.83994C140.252 10.7359 141.031 11.8879 141.607 13.2959C142.183 14.6826 142.471 16.3572 142.471 18.3199V18.9599C142.471 21.0079 142.183 22.7572 141.607 24.2079C141.031 25.6372 140.252 26.8106 139.271 27.7279C138.311 28.6452 137.191 29.3172 135.911 29.7439C134.652 30.1706 133.319 30.3839 131.911 30.3839ZM131.911 26.3519C132.636 26.3519 133.33 26.2346 133.991 25.9999C134.674 25.7439 135.271 25.3279 135.783 24.7519C136.295 24.1759 136.7 23.4186 136.999 22.4799C137.319 21.5412 137.479 20.3679 137.479 18.9599V18.3199C137.479 16.9972 137.319 15.8879 136.999 14.9919C136.7 14.0959 136.295 13.3706 135.783 12.8159C135.271 12.2612 134.674 11.8666 133.991 11.6319C133.33 11.3759 132.636 11.2479 131.911 11.2479C131.186 11.2479 130.482 11.3759 129.799 11.6319C129.138 11.8666 128.551 12.2612 128.039 12.8159C127.527 13.3706 127.111 14.0959 126.791 14.9919C126.492 15.8879 126.343 16.9972 126.343 18.3199V18.9599C126.343 20.3679 126.492 21.5412 126.791 22.4799C127.111 23.4186 127.527 24.1759 128.039 24.7519C128.551 25.3279 129.138 25.7439 129.799 25.9999C130.482 26.2346 131.186 26.3519 131.911 26.3519ZM146.623 7.59994H155.263C158.293 7.59994 160.543 8.27194 162.015 9.61594C163.487 10.9386 164.223 12.7199 164.223 14.9599C164.223 17.1999 163.487 18.9919 162.015 20.3359C160.543 21.6586 158.293 22.3199 155.263 22.3199H151.423V29.9999H146.623V7.59994ZM154.783 18.3519C156.49 18.3519 157.685 18.0639 158.367 17.4879C159.071 16.9119 159.423 16.0692 159.423 14.9599C159.423 13.8719 159.071 13.0399 158.367 12.4639C157.685 11.8666 156.49 11.5679 154.783 11.5679H151.423V18.3519H154.783ZM177.505 30.3839C176.097 30.3839 174.753 30.1706 173.473 29.7439C172.214 29.3172 171.094 28.6452 170.113 27.7279C169.153 26.8106 168.385 25.6372 167.809 24.2079C167.233 22.7572 166.945 21.0079 166.945 18.9599V18.3199C166.945 16.3572 167.233 14.6826 167.809 13.2959C168.385 11.8879 169.153 10.7359 170.113 9.83994C171.094 8.94394 172.214 8.28261 173.473 7.85594C174.753 7.42927 176.097 7.21594 177.505 7.21594C178.913 7.21594 180.246 7.42927 181.505 7.85594C182.785 8.28261 183.905 8.94394 184.865 9.83994C185.846 10.7359 186.625 11.8879 187.201 13.2959C187.777 14.6826 188.065 16.3572 188.065 18.3199V18.9599C188.065 21.0079 187.777 22.7572 187.201 24.2079C186.625 25.6372 185.846 26.8106 184.865 27.7279C183.905 28.6452 182.785 29.3172 181.505 29.7439C180.246 30.1706 178.913 30.3839 177.505 30.3839ZM177.505 26.3519C178.23 26.3519 178.923 26.2346 179.585 25.9999C180.267 25.7439 180.865 25.3279 181.377 24.7519C181.889 24.1759 182.294 23.4186 182.593 22.4799C182.913 21.5412 183.073 20.3679 183.073 18.9599V18.3199C183.073 16.9972 182.913 15.8879 182.593 14.9919C182.294 14.0959 181.889 13.3706 181.377 12.8159C180.865 12.2612 180.267 11.8666 179.585 11.6319C178.923 11.3759 178.23 11.2479 177.505 11.2479C176.779 11.2479 176.075 11.3759 175.393 11.6319C174.731 11.8666 174.145 12.2612 173.633 12.8159C173.121 13.3706 172.705 14.0959 172.385 14.9919C172.086 15.8879 171.937 16.9972 171.937 18.3199V18.9599C171.937 20.3679 172.086 21.5412 172.385 22.4799C172.705 23.4186 173.121 24.1759 173.633 24.7519C174.145 25.3279 174.731 25.7439 175.393 25.9999C176.075 26.2346 176.779 26.3519 177.505 26.3519ZM192.217 7.59994H201.817C204.335 7.59994 206.191 8.13327 207.385 9.19994C208.58 10.2452 209.177 11.7066 209.177 13.5839C209.177 14.7359 208.889 15.7279 208.313 16.5599C207.759 17.3706 206.991 17.9572 206.009 18.3199C207.289 18.6186 208.292 19.2266 209.017 20.1439C209.764 21.0399 210.137 22.2132 210.137 23.6639C210.137 24.6239 209.988 25.4986 209.689 26.2879C209.391 27.0559 208.921 27.7172 208.281 28.2719C207.663 28.8266 206.852 29.2532 205.849 29.5519C204.847 29.8506 203.641 29.9999 202.233 29.9999H192.217V7.59994ZM201.369 26.3519C202.863 26.3519 203.897 26.0959 204.473 25.5839C205.049 25.0719 205.337 24.3146 205.337 23.3119C205.337 22.3092 205.049 21.5306 204.473 20.9759C203.897 20.3999 202.852 20.1119 201.337 20.1119H197.017V26.3519H201.369ZM200.857 16.8479C202.159 16.8479 203.065 16.5919 203.577 16.0799C204.111 15.5679 204.377 14.8746 204.377 13.9999C204.377 13.1039 204.121 12.4212 203.609 11.9519C203.097 11.4826 202.191 11.2479 200.889 11.2479H197.017V16.8479H200.857ZM213.967 7.59994H218.767V15.5999H222.607C224.122 15.5999 225.445 15.7706 226.575 16.1119C227.706 16.4532 228.634 16.9439 229.359 17.5839C230.106 18.2026 230.661 18.9599 231.023 19.8559C231.386 20.7306 231.567 21.7119 231.567 22.7999C231.567 23.8879 231.386 24.8799 231.023 25.7759C230.661 26.6506 230.106 27.4079 229.359 28.0479C228.634 28.6666 227.706 29.1466 226.575 29.4879C225.445 29.8292 224.122 29.9999 222.607 29.9999H213.967V7.59994ZM222.127 26.0319C223.834 26.0319 225.029 25.7439 225.711 25.1679C226.415 24.5919 226.767 23.8026 226.767 22.7999C226.767 21.7972 226.415 21.0079 225.711 20.4319C225.029 19.8559 223.834 19.5679 222.127 19.5679H218.767V26.0319H222.127ZM235.092 7.59994H250.772V11.5679H239.924V16.5599H249.812V20.3999H239.924V26.0319H250.772V29.9999H235.092V7.59994Z" fill="#3F3F3F"/>
<path d="M76.1211 43.5199H78.1051L80.8091 48.4799L83.5131 43.5199H85.4011V51.9999H83.6411V46.1599L81.4011 50.2399H80.1211L77.8811 46.1599V51.9999H76.1211V43.5199ZM91.3167 52.1759C90.7514 52.1759 90.218 52.0906 89.7167 51.9199C89.2154 51.7386 88.7727 51.4719 88.3887 51.1199C88.0154 50.7572 87.7167 50.3039 87.4927 49.7599C87.2687 49.2159 87.1567 48.5759 87.1567 47.8399V47.5199C87.1567 46.8159 87.2634 46.2026 87.4767 45.6799C87.69 45.1572 87.978 44.7252 88.3407 44.3839C88.714 44.0319 89.1407 43.7706 89.6207 43.5999C90.1007 43.4292 90.6127 43.3439 91.1567 43.3439C92.4474 43.3439 93.434 43.6906 94.1167 44.3839C94.81 45.0772 95.1567 46.0692 95.1567 47.3599V48.2559H88.9487C88.9594 48.6932 89.0287 49.0666 89.1567 49.3759C89.2954 49.6746 89.4714 49.9199 89.6847 50.1119C89.9087 50.2932 90.1594 50.4266 90.4367 50.5119C90.7247 50.5972 91.018 50.6399 91.3167 50.6399C91.9247 50.6399 92.3674 50.5439 92.6447 50.3519C92.9327 50.1599 93.13 49.9092 93.2367 49.5999H94.9967C94.826 50.4426 94.4047 51.0826 93.7327 51.5199C93.0714 51.9572 92.266 52.1759 91.3167 52.1759ZM91.2367 44.8799C90.938 44.8799 90.65 44.9172 90.3727 44.9919C90.106 45.0666 89.866 45.1892 89.6527 45.3599C89.45 45.5199 89.2847 45.7332 89.1567 45.9999C89.0287 46.2559 88.9594 46.5706 88.9487 46.9439H93.3967C93.386 46.5492 93.322 46.2186 93.2047 45.9519C93.098 45.6852 92.9487 45.4719 92.7567 45.3119C92.5647 45.1519 92.3354 45.0399 92.0687 44.9759C91.8127 44.9119 91.5354 44.8799 91.2367 44.8799ZM96.0398 50.4959H96.9998C97.1065 50.3359 97.2025 50.0959 97.2878 49.7759C97.3838 49.4559 97.4638 49.0932 97.5278 48.6879C97.5918 48.2719 97.6398 47.8292 97.6718 47.3599C97.7038 46.8799 97.7198 46.3999 97.7198 45.9199V43.5199H104.04V50.4959H105.16V53.9999H103.528V51.9999H97.6718V53.9999H96.0398V50.4959ZM102.28 50.4959V45.0239H99.4158V46.2399C99.4158 47.0612 99.3678 47.8506 99.2718 48.6079C99.1758 49.3546 99.0158 49.9839 98.7918 50.4959H102.28ZM106.683 43.5199H108.443V49.5199L112.523 43.5199H114.203V51.9999H112.443V45.9999L108.363 51.9999H106.683V43.5199ZM123.297 51.9999H116.449V43.5199H118.209V50.4959H121.889V43.5199H123.649V50.4959H124.929V53.9999H123.297V51.9999ZM126.449 43.5199H128.209V49.5199L132.289 43.5199H133.969V51.9999H132.209V45.9999L128.129 51.9999H126.449V43.5199ZM136.215 43.5199H137.975V46.9279H141.975V43.5199H143.735V51.9999H141.975V48.4319H137.975V51.9999H136.215V43.5199ZM149.5 52.1759C148.924 52.1759 148.391 52.0906 147.9 51.9199C147.42 51.7386 146.999 51.4666 146.636 51.1039C146.284 50.7412 146.007 50.2879 145.804 49.7439C145.602 49.1999 145.5 48.5652 145.5 47.8399V47.5199C145.5 46.8372 145.607 46.2346 145.82 45.7119C146.034 45.1892 146.322 44.7519 146.684 44.3999C147.058 44.0479 147.484 43.7866 147.964 43.6159C148.455 43.4346 148.967 43.3439 149.5 43.3439C150.055 43.3439 150.546 43.4186 150.972 43.5679C151.41 43.7172 151.778 43.9252 152.076 44.1919C152.386 44.4479 152.631 44.7519 152.812 45.1039C152.994 45.4559 153.116 45.8346 153.18 46.2399H151.388C151.282 45.8452 151.09 45.5199 150.812 45.2639C150.535 45.0079 150.098 44.8799 149.5 44.8799C149.202 44.8799 148.919 44.9332 148.652 45.0399C148.386 45.1359 148.151 45.2906 147.948 45.5039C147.746 45.7172 147.586 45.9946 147.468 46.3359C147.351 46.6666 147.292 47.0612 147.292 47.5199V47.8399C147.292 48.3412 147.351 48.7732 147.468 49.1359C147.586 49.4879 147.746 49.7759 147.948 49.9999C148.151 50.2239 148.386 50.3892 148.652 50.4959C148.919 50.5919 149.202 50.6399 149.5 50.6399C150.492 50.6399 151.122 50.1866 151.388 49.2799H153.18C153.095 49.7279 152.946 50.1332 152.732 50.4959C152.53 50.8479 152.268 51.1519 151.948 51.4079C151.628 51.6532 151.26 51.8452 150.844 51.9839C150.428 52.1119 149.98 52.1759 149.5 52.1759ZM154.855 43.5199H156.615V46.9599H157.575L160.551 43.5199H162.535L158.935 47.5679L162.695 51.9999H160.551L157.575 48.3999H156.615V51.9999H154.855V43.5199ZM164.137 43.5199H165.897V49.5199L169.977 43.5199H171.657V51.9999H169.897V45.9999L165.817 51.9999H164.137V43.5199ZM173.902 43.5199H175.662V49.5199L179.742 43.5199H181.422V51.9999H179.662V45.9999L175.582 51.9999H173.902V43.5199ZM177.662 42.5599C176.777 42.5599 176.126 42.3679 175.71 41.9839C175.305 41.5892 175.102 41.0346 175.102 40.3199H176.734C176.734 40.7039 176.809 40.9812 176.958 41.1519C177.118 41.3226 177.353 41.4079 177.662 41.4079C177.972 41.4079 178.201 41.3226 178.35 41.1519C178.51 40.9812 178.59 40.7039 178.59 40.3199H180.222C180.222 41.0346 180.014 41.5892 179.598 41.9839C179.182 42.3679 178.537 42.5599 177.662 42.5599ZM194.516 51.9999H187.668V43.5199H189.428V50.4959H193.108V43.5199H194.868V50.4959H196.148V53.9999H194.516V51.9999ZM201.27 52.1759C200.704 52.1759 200.171 52.0906 199.67 51.9199C199.168 51.7386 198.726 51.4719 198.342 51.1199C197.968 50.7572 197.67 50.3039 197.446 49.7599C197.222 49.2159 197.11 48.5759 197.11 47.8399V47.5199C197.11 46.8159 197.216 46.2026 197.43 45.6799C197.643 45.1572 197.931 44.7252 198.294 44.3839C198.667 44.0319 199.094 43.7706 199.574 43.5999C200.054 43.4292 200.566 43.3439 201.11 43.3439C202.4 43.3439 203.387 43.6906 204.07 44.3839C204.763 45.0772 205.11 46.0692 205.11 47.3599V48.2559H198.902C198.912 48.6932 198.982 49.0666 199.11 49.3759C199.248 49.6746 199.424 49.9199 199.638 50.1119C199.862 50.2932 200.112 50.4266 200.39 50.5119C200.678 50.5972 200.971 50.6399 201.27 50.6399C201.878 50.6399 202.32 50.5439 202.598 50.3519C202.886 50.1599 203.083 49.9092 203.19 49.5999H204.95C204.779 50.4426 204.358 51.0826 203.686 51.5199C203.024 51.9572 202.219 52.1759 201.27 52.1759ZM201.19 44.8799C200.891 44.8799 200.603 44.9172 200.326 44.9919C200.059 45.0666 199.819 45.1892 199.606 45.3599C199.403 45.5199 199.238 45.7332 199.11 45.9999C198.982 46.2559 198.912 46.5706 198.902 46.9439H203.35C203.339 46.5492 203.275 46.2186 203.158 45.9519C203.051 45.6852 202.902 45.4719 202.71 45.3119C202.518 45.1519 202.288 45.0399 202.022 44.9759C201.766 44.9119 201.488 44.8799 201.19 44.8799ZM206.871 43.5199H208.631V46.9279H212.631V43.5199H214.391V51.9999H212.631V48.4319H208.631V51.9999H206.871V43.5199ZM218.637 45.0239H215.837V43.5199H223.197V45.0239H220.397V51.9999H218.637V45.0239ZM224.637 43.5199H226.269V44.9439C226.525 44.4532 226.903 44.0639 227.405 43.7759C227.917 43.4879 228.493 43.3439 229.133 43.3439C230.242 43.3439 231.117 43.6906 231.757 44.3839C232.397 45.0772 232.717 46.1226 232.717 47.5199V47.8399C232.717 48.5652 232.631 49.1999 232.461 49.7439C232.29 50.2879 232.045 50.7412 231.725 51.1039C231.415 51.4559 231.042 51.7226 230.605 51.9039C230.167 52.0852 229.677 52.1759 229.133 52.1759C228.525 52.1759 227.97 52.0426 227.469 51.7759C226.967 51.5092 226.61 51.1359 226.397 50.6559V55.1999H224.637V43.5199ZM228.717 50.6399C229.378 50.6399 229.911 50.4106 230.317 49.9519C230.722 49.4932 230.925 48.7892 230.925 47.8399V47.5199C230.925 46.6239 230.727 45.9626 230.333 45.5359C229.938 45.0986 229.399 44.8799 228.717 44.8799C228.418 44.8799 228.13 44.9279 227.853 45.0239C227.575 45.1199 227.325 45.2639 227.101 45.4559C226.887 45.6372 226.717 45.8719 226.589 46.1599C226.461 46.4372 226.397 46.7572 226.397 47.1199V48.2399C226.397 48.6452 226.461 48.9972 226.589 49.2959C226.717 49.5946 226.887 49.8452 227.101 50.0479C227.314 50.2506 227.559 50.3999 227.837 50.4959C228.114 50.5919 228.407 50.6399 228.717 50.6399Z" fill="#3F3F3F"/>
<path d="M59.9187 16.1729C59.5566 5.0951 47.2305 -2.88753 36.9388 1.021C34.5288 1.86646 32.3324 3.22766 30.5028 5.0096C25.7718 9.6751 21.1009 14.3988 16.4026 19.0934C14.6085 20.8694 12.8671 22.6981 11.0275 24.4285C10.9292 24.5195 10.8601 24.5395 10.7582 24.4395C8.50002 22.3433 7.50833 19.4974 7.77399 16.4441C8.3217 9.80608 15.2963 6.34519 21.2901 8.26488C22.0689 8.17936 22.4765 7.29322 23.0861 6.86379C24.3944 5.59006 25.7664 4.34544 26.9691 2.98255C11.526 -7.12724 -6.76655 10.423 2.51167 26.3519C4.69521 29.8219 7.92138 32.4294 10.7691 35.3226C16.7392 29.4325 22.6148 23.4132 28.5631 17.4903C28.7705 17.2829 28.7232 17.2738 28.9416 17.4903C33.4506 21.9981 37.9566 26.5059 42.4595 31.0137C42.7143 31.2685 42.7306 31.1957 42.4595 31.465C39.8666 33.7996 37.6812 36.6727 34.6916 38.5105C28.9325 41.6876 21.8997 38.0684 20.3803 31.8307C18.2459 33.7941 16.1952 35.9176 14.1081 37.9428C13.9825 38.0666 13.9843 38.072 14.1081 38.2012C15.7894 39.9335 17.4853 41.6585 19.1739 43.3798C22.7549 47.0445 26.3401 50.7056 29.9296 54.363C30.2299 54.6214 30.5556 53.9773 30.8194 53.839C32.1041 52.4652 33.5179 51.2133 34.7971 49.8358C40.0285 44.6135 45.2745 39.4076 50.4658 34.1453C55.9283 29.1486 60.683 24.1592 59.9187 16.1729ZM45.9732 10.6704C40.5798 8.87809 37.0916 13.3343 33.7636 16.7825C33.4997 17.0846 33.0503 17.3757 32.7136 17.0027C32.5935 16.8407 32.2569 16.5569 32.408 16.3604C35.5213 13.4945 38.3545 9.0346 43.1437 9.5059C44.4902 9.6533 45.8858 10.0135 46.9485 10.887C46.6228 10.816 46.2971 10.7487 45.9732 10.6704Z" fill="url(#paint0_linear_494_9669)"/>
<path d="M42.3975 10.392C41.7646 10.4639 41.1448 10.6238 40.556 10.867C39.5843 11.2612 38.7005 11.8445 37.9558 12.5829C37.1067 13.4126 36.2575 14.2484 35.4083 15.0903C34.8515 15.6471 34.3075 16.2166 33.758 16.7807C33.6518 16.9 33.5293 17.0035 33.394 17.0882C33.2896 17.162 33.1614 17.1941 33.0345 17.1783C32.9076 17.1625 32.7912 17.0999 32.708 17.0027C32.5763 16.8623 32.4637 16.705 32.3732 16.5351C32.3617 16.5218 32.3532 16.5062 32.3484 16.4893C32.3435 16.4724 32.3425 16.4546 32.3453 16.4373C32.348 16.4199 32.3546 16.4034 32.3644 16.3889C32.3743 16.3743 32.3872 16.3621 32.4023 16.3531C32.4213 16.3363 32.4389 16.318 32.4551 16.2985C33.8453 14.9211 35.2227 13.52 36.6348 12.1571C37.1856 11.5933 37.7957 11.0906 38.4544 10.6577C39.2008 10.1973 40.0196 9.86631 40.8763 9.67881C41.6215 9.51141 42.3871 9.45311 43.149 9.50591C44.3197 9.60091 45.4552 9.95181 46.4752 10.534C46.6541 10.6193 46.8143 10.7393 46.9465 10.887C46.6226 10.816 46.2969 10.7487 45.973 10.6704C45.4231 10.5261 44.8637 10.4203 44.299 10.3538C43.6662 10.2836 43.0269 10.2964 42.3975 10.392Z" fill="white"/>
</g>
<defs>
<linearGradient id="paint0_linear_494_9669" x1="0.803048" y1="36.3689" x2="67.5411" y2="7.60618" gradientUnits="userSpaceOnUse">
<stop stop-color="#2474E2"/>
<stop offset="0.41" stop-color="#258DFB"/>
<stop offset="0.63" stop-color="#0493E3"/>
</linearGradient>
<clipPath id="clip0_494_9669">
<rect width="253" height="54" fill="white"/>
</clipPath>
</defs>
</svg>
