<svg width="400" height="365" viewBox="0 0 400 365" fill="none" xmlns="http://www.w3.org/2000/svg">
<path d="M399.46 108.401C397.046 34.1506 314.872 -19.354 246.26 6.84338C230.193 12.5101 215.55 21.6337 203.353 33.5774C171.813 64.8484 140.673 96.5097 109.351 127.976C97.3902 139.879 85.781 152.136 73.5167 163.735C72.8617 164.345 72.4007 164.479 71.7214 163.808C56.667 149.758 50.0557 130.683 51.8268 110.218C55.4782 65.7265 101.976 42.5294 141.935 55.3964C147.127 54.8231 149.844 48.8836 153.908 46.0053C162.63 37.468 171.776 29.1258 179.795 19.9909C76.8406 -47.7711 -45.1105 69.861 16.7445 176.626C31.3015 199.884 52.8094 217.362 71.7942 236.753C111.595 197.274 150.766 156.93 190.421 117.231C191.804 115.841 191.489 115.78 192.945 117.231C223.005 147.445 253.045 177.659 283.064 207.873C284.763 209.58 284.872 209.093 283.064 210.898C265.778 226.545 251.209 245.803 231.278 258.121C192.884 279.416 145.998 255.158 135.869 213.349C121.64 226.509 107.968 240.742 94.0542 254.316C93.2172 255.145 93.2293 255.182 94.0542 256.048C105.263 267.659 116.569 279.221 127.826 290.758C151.7 315.321 175.602 339.86 199.532 364.374C201.533 366.106 203.705 361.789 205.464 360.862C214.028 351.654 223.454 343.263 231.982 334.03C266.858 299.027 301.831 264.134 336.44 228.863C372.857 195.372 404.555 161.93 399.46 108.401ZM306.489 71.5197C270.533 59.5065 247.279 89.3749 225.091 112.487C223.332 114.511 220.336 116.463 218.092 113.962C217.291 112.877 215.047 110.974 216.054 109.657C236.81 90.4482 255.697 60.5553 287.626 63.7142C296.602 64.702 305.907 67.1169 312.991 72.971C310.82 72.4954 308.648 72.0441 306.489 71.5197Z" fill="url(#paint0_linear_509_6832)" fill-opacity="0.05"/>
<defs>
<linearGradient id="paint0_linear_509_6832" x1="5.35367" y1="243.766" x2="451.022" y2="52.7221" gradientUnits="userSpaceOnUse">
<stop stop-color="#2474E2"/>
<stop offset="0.41" stop-color="#258DFB"/>
<stop offset="0.63" stop-color="#0493E3"/>
</linearGradient>
</defs>
</svg>
