<svg width="105" height="117" viewBox="0 0 105 117" fill="none" xmlns="http://www.w3.org/2000/svg">
<path d="M103.183 34.2084C105.083 40.7362 105.875 45.035 103.658 54.2694C102.233 60.3196 98.1163 65.5737 93.9997 70.0317C82.4413 82.2912 81.9663 96.1429 87.033 111.109C88.1413 114.293 86.2413 117 82.758 117C68.1912 116.841 53.7829 116.841 39.2161 117C34.7828 117 33.0411 115.089 33.0411 111.109C33.0411 102.511 28.6078 100.919 20.8494 102.511C10.716 104.422 8.6577 101.238 8.34103 90.8888C8.02437 84.5202 8.81604 76.4003 3.27435 71.9422C-1.159 68.2803 -0.525663 65.8921 1.84935 62.3894C6.12436 56.18 8.49937 49.6522 8.97437 41.6915C10.241 21.4712 25.1244 5.07209 43.6495 1.41015C68.1912 -3.52551 95.0003 4.02754 102.55 31.5017C102.917 32.6862 102.917 32.639 102.917 32.639C102.917 32.639 103.044 33.7307 103.183 34.2084ZM94.7913 42.1691C93.208 37.5519 92.4163 30.7056 88.7747 24.9739C76.7413 5.54973 40.0078 7.30109 27.0244 23.7002C19.4244 33.2531 18.7911 38.9848 27.3411 44.7165C33.5161 48.8561 40.1661 51.8812 46.3412 56.4984C52.3579 60.9564 58.2162 63.6631 59.9579 71.6238C60.2746 73.216 62.6496 75.9226 63.4412 73.5344C65.4996 67.6434 68.6662 69.8725 72.3079 70.6685C75.1579 71.3054 77.2163 69.3948 78.6413 67.0066C79.7496 65.2552 80.2246 63.3447 82.5996 62.5486C89.0913 60.0011 94.7913 50.7667 94.7913 42.1691Z" fill="#FDFDFD"/>
</svg>
