<svg display="none" xmlns="http://www.w3.org/2000/svg">
    <symbol id="icon-brain" viewBox="0 0 116 120">
        <path d="M55.3843 26.6661C55.3843 20.9059 55.5595 15.2862 55.3343 9.66653C55.1841 6.06055 51.43 3.5551 47.3755 4.04682C43.5713 4.51513 40.0425 5.8264 36.6888 7.51231C36.0381 7.84012 35.4124 8.19136 34.8117 8.51917C36.1632 9.19822 37.5397 9.80702 38.7911 10.5797C40.6682 11.6803 41.9446 13.3193 43.0458 15.0989C43.5463 15.895 42.9457 17.5341 42.0947 17.979C41.2188 18.4239 39.7421 18.0024 39.1165 17.0658C37.7149 14.9584 35.988 13.2023 33.235 12.6637C30.4069 12.1017 27.8291 12.5232 25.5015 14.2794C23.3241 15.9184 22.323 18.0727 22.2229 20.5313C22.1729 21.8426 22.7986 23.2006 23.3492 24.4417C23.5243 24.8163 24.5004 24.9802 25.1261 25.0739C28.6049 25.5188 31.6583 26.8769 34.186 29.0779C37.1143 31.6536 39.1165 34.7679 39.617 38.608C39.7421 39.568 39.8423 40.5281 39.8673 41.4881C39.8923 42.5886 39.1165 43.2911 37.9902 43.3613C36.6387 43.4316 35.7878 42.8696 35.6376 41.6754C35.3123 39.0061 34.8368 36.4069 32.9847 34.1825C30.6321 31.3492 27.729 29.5931 23.8747 29.0545C16.6919 28.0476 10.3349 33.1522 9.13356 39.1466C8.68307 41.3476 8.95837 43.5487 9.83433 45.6795C10.3098 46.8502 10.1096 47.8337 9.05847 48.6766C6.75595 50.5499 5.2543 52.868 4.75375 55.7247C4.12807 59.4009 4.90392 62.7259 7.48175 65.6528C9.60908 68.088 12.287 69.6334 15.5906 70.172C16.4666 70.3125 17.3676 70.4061 18.2686 70.4998C19.57 70.6169 19.9705 71.5535 20.0205 72.5135C20.0956 73.5438 18.8192 74.6209 17.6179 74.4804C15.5156 74.2229 13.3882 73.9419 11.4111 73.3097C9.55902 72.7009 7.88219 71.6237 6.10524 70.734C4.02796 74.2229 3.9779 77.9928 5.67977 81.6924C6.806 84.1276 8.70809 86.1413 11.2609 87.3589C13.7636 88.5531 13.5884 89.0214 13.4383 91.5737C13.3131 93.6811 13.5634 95.929 14.2642 97.9193C15.6407 101.783 18.5439 104.569 22.4982 106.349C22.7485 106.466 23.0238 106.536 23.2991 106.606C24.9009 107.075 26.0021 107.918 27.0032 109.323C29.581 112.975 33.235 115.2 38.0653 115.762C43.296 116.371 47.6008 114.732 51.1547 111.313C53.8576 108.69 55.3843 105.506 55.3843 101.806C55.3843 79.5616 55.3843 57.2935 55.4093 35.0489C55.4093 32.6136 53.0317 29.3355 49.8783 29.0779C49.4278 29.0311 49.0023 28.8906 48.5518 28.8672C47.2504 28.7501 46.5997 28.0242 46.6247 26.7832C46.6497 25.6358 47.4005 24.9334 48.6269 24.8866C50.8293 24.7929 52.8565 25.2846 54.6835 26.432C54.8337 26.5022 55.059 26.5491 55.3843 26.6661ZM30.7323 55.7247C30.507 55.6544 30.2818 55.6076 30.0815 55.5374C28.2796 54.9754 26.3274 54.6241 24.7006 53.7578C21.0967 51.8611 18.2936 49.1215 16.9171 45.4453C16.1913 43.5018 15.941 41.371 15.6407 39.287C15.4905 38.1865 16.3915 37.367 17.3676 37.2733C18.7942 37.1328 19.57 37.5777 19.8453 38.889C20.0205 39.7085 19.9955 40.5749 20.1707 41.3944C20.8965 44.7194 22.7235 47.4122 25.6767 49.4025C29.0054 51.627 32.6844 52.2124 36.6137 51.2992C38.9913 50.7372 40.9935 49.4962 42.8706 47.9976C43.3211 47.6229 44.172 47.342 44.7476 47.4356C46.7248 47.7868 47.2504 49.7303 45.7237 51.1118C43.1709 53.43 40.1676 55.0222 36.6137 55.5374C35.7628 55.6544 35.2873 55.8652 35.037 56.8018C34.7367 57.996 34.136 59.1667 33.4853 60.2439C31.5081 63.4049 28.4798 65.2782 24.7006 66.0041C23.5494 66.2148 22.248 66.1914 21.1467 65.887C20.0706 65.5826 19.8954 64.482 20.1456 63.522C20.3959 62.562 21.1467 62.1171 22.2479 62.0937C26.3525 61.9766 29.8563 59.3072 30.7323 55.7247ZM31.1077 85.111C31.1077 84.4788 31.0826 84.0573 31.1077 83.6359C31.1577 83.191 31.2578 82.7227 31.3329 82.2778C32.2339 76.8688 35.3123 72.935 40.3929 70.2891C42.9206 68.9544 45.6737 68.5563 48.4767 68.2519C49.5529 68.1348 50.7793 69.0481 50.8543 69.9847C50.9795 71.5301 50.2787 72.3496 48.8021 72.4433C48.0763 72.4901 47.3255 72.5838 46.5997 72.6774C40.0675 73.5204 34.5114 79.7957 35.6627 86.1881C39.7421 87.8741 42.8706 90.52 44.7727 94.3133C45.7738 96.3036 46.3244 98.3876 46.4495 100.612C46.4996 101.572 46.3994 102.392 45.7237 103C45.048 103.609 43.9468 103.726 43.246 103.235C42.6453 102.813 42.1448 101.923 42.1198 101.244C41.8945 96.7719 39.6671 93.4235 35.8379 90.9649C33.8607 89.7005 31.5832 89.0448 29.1305 89.0682C28.1544 89.0682 27.3035 88.7873 26.853 87.9677C26.4025 87.1716 26.3775 86.1882 27.1533 85.673C27.8541 85.2047 28.8302 85.111 29.7061 84.9471C30.1316 84.8301 30.5571 85.0174 31.1077 85.111Z"/>
        <path d="M109.093 70.5935C108.117 71.1789 107.141 71.7643 106.14 72.3263C103.512 73.8015 100.634 74.4571 97.6055 74.4805C95.8286 74.5039 94.5271 72.7478 95.7034 71.3194C96.1539 70.7575 97.2051 70.336 97.9809 70.336C103.787 70.2657 109.519 65.6763 110.445 60.2673C111.145 56.1228 110.319 52.3998 106.991 49.5197C105.239 47.9742 105.039 46.5459 105.739 44.5322C107.416 39.5915 105.214 34.487 100.884 31.4195C98.6817 29.8507 96.204 28.9843 93.526 28.9141C90.1974 28.797 87.144 29.7804 84.5912 31.8644C82.2637 33.7377 80.6119 36.0324 80.0362 38.9125C79.8611 39.8023 79.7609 40.7389 79.6358 41.6287C79.4356 42.8931 78.6347 43.4785 77.2332 43.3848C76.0569 43.2912 75.4062 42.5653 75.3811 41.3477C75.3561 37.3202 76.7827 33.8079 79.5357 30.6937C82.6141 27.2048 86.6185 25.5188 91.2485 24.8632C91.5739 24.8164 91.9743 24.4417 92.1495 24.1373C93.8264 20.9528 92.8253 16.8785 90.0222 14.4902C86.1429 11.212 79.2354 11.8911 76.5825 16.5507C76.132 17.3469 75.5563 18.0962 74.355 18.1196C73.3789 18.143 72.5781 17.8152 72.3278 17.1127C72.0775 16.4571 72.1276 15.5439 72.478 14.9351C74.1047 11.9379 76.6575 9.87734 80.1113 8.87047C80.2615 8.82364 80.3866 8.70656 80.5618 8.58949C77.2081 6.62259 73.6292 5.14742 69.8 4.32788C67.072 3.74249 64.4191 3.74249 62.1416 5.66256C60.8402 6.76308 59.9392 8.09776 59.9142 9.71343C59.8641 17.9557 59.8891 26.1745 59.8891 34.4167C59.8891 34.5572 59.9142 34.7211 59.9142 34.6977C61.7162 34.1591 63.5181 33.5972 65.3201 33.1054C66.5965 32.7776 68.1232 33.3162 68.4986 34.2762C68.849 35.166 68.7489 36.126 67.8479 36.6646C67.2722 37.0158 66.4964 37.2031 65.7956 37.25C62.7673 37.4373 59.8641 40.1769 59.8641 43.057C59.8391 58.3941 59.8641 73.7312 59.8641 89.0683C59.8641 89.1386 59.8891 89.2322 59.9142 89.5132C60.3396 89.1386 60.69 88.8576 61.0154 88.5298C63.418 86.0946 66.3462 84.5023 69.75 83.6125C71.2766 83.2145 72.2777 83.5189 72.7533 84.596C73.2538 85.7902 72.7533 86.8907 71.2516 87.4058C68.5236 88.3424 66.0209 89.6069 64.0187 91.5972C60.0143 95.5778 58.6378 102.017 61.1155 107.075C63.3429 111.664 67.072 114.568 72.2527 115.598C77.1581 116.581 81.7131 115.504 85.4672 112.226C86.7436 111.102 87.6696 109.604 88.921 108.409C89.6218 107.73 90.5478 107.168 91.4738 106.817C96.9298 104.803 100.434 101.127 101.61 95.7651C102.01 93.9153 101.76 91.925 101.66 90.0283C101.61 88.8576 102.186 88.2254 103.187 87.7571C107.066 85.8838 109.569 83.0271 110.47 78.9997C111.095 76.0728 110.695 73.2863 109.093 70.5935ZM80.1364 57.7619C80.1864 58.0429 80.1864 58.3239 80.2865 58.558C81.8132 62.1406 84.7414 63.8967 88.7458 64.1777C89.847 64.248 90.8982 65.1612 90.9232 66.1446C90.9482 67.1515 89.847 68.2286 88.6957 68.1349C87.2441 68.0178 85.7425 67.9008 84.366 67.4793C79.7109 66.051 76.9328 62.9367 75.6564 58.558C75.5563 58.2068 75.1559 57.6916 74.8305 57.6448C71.8523 57.3404 69.2744 56.1462 66.9219 54.5306C65.9458 53.8515 64.9947 53.0086 64.4692 52.0251C64.0437 51.2524 64.319 50.1753 65.3952 49.6367C66.5214 49.0748 67.4725 49.426 68.2984 50.1519C71.0514 52.5871 74.2549 53.7813 78.1091 53.6408C81.4128 53.5237 84.1157 52.3763 86.4933 50.3392C89.3715 47.8806 90.723 44.7429 90.8982 41.1603C90.9482 40.2706 91.3987 39.6383 92.2496 39.4276C93.0505 39.2169 93.9515 39.0998 94.6523 39.8725C95.6784 41.0199 95.303 42.378 95.1028 43.5487C94.402 47.7635 92.4248 51.3695 88.7959 54.1091C86.2931 56.0526 83.465 57.1999 80.1364 57.7619ZM91.1234 89.0215C91.649 89.0215 92.1996 89.0215 92.7252 89.0215C94.5522 89.0215 95.278 89.7708 95.1778 91.4333C95.1028 92.4401 94.0266 93.1894 92.4499 93.2128C87.8448 93.3299 84.5162 95.4841 81.9133 98.8794C80.2865 100.963 79.9862 103.375 79.6859 105.81C79.5357 106.958 78.8349 107.543 77.5335 107.52C76.2571 107.496 75.4312 106.841 75.4312 105.717C75.4312 104.803 75.5313 103.867 75.6815 102.954C76.5324 97.6852 79.5607 93.7514 84.4661 91.1289C86.5684 90.0049 86.6685 90.0518 86.4182 87.8741C86.3932 87.5697 86.218 87.2887 86.193 86.9843C85.4672 81.5988 79.861 76.6113 73.6542 76.5645C72.7032 76.5645 71.652 76.424 71.1765 75.3937C70.4758 73.8249 71.5519 72.2326 73.429 72.42C75.5313 72.6307 77.6837 72.9117 79.6358 73.6141C84.4911 75.3703 87.995 78.5548 89.6718 83.2379C90.3225 85.0643 90.6229 87.0078 91.1234 89.0215Z"/>
    </symbol>
</svg>
<svg display="none" xmlns="http://www.w3.org/2000/svg">
    <symbol id="icon-therapy" viewBox="0 0 45 45">
        <path d="M44.9717 7.62192C44.942 7.41375 44.9123 7.20559 44.853 6.99743C44.6749 6.34321 44.3187 5.80793 43.9032 5.3024C43.1315 4.38054 42.2115 3.66684 41.2024 3.07209C41.143 3.04235 41.0837 2.95314 41.054 2.89366C40.4901 1.40679 39.0654 0.484933 37.4627 0.544408C35.771 0.603882 34.287 1.91233 34.0199 3.60736C33.7231 5.57003 34.9103 7.38402 36.8395 7.80034C38.0563 8.06798 39.1842 7.7706 40.1339 6.93796C40.1636 6.90822 40.1933 6.87848 40.2229 6.84874C40.5494 7.08664 40.8462 7.32454 41.1133 7.59218C41.2914 7.7706 41.3211 7.97877 41.2617 8.21666C40.7275 11.5473 39.8074 14.7886 38.5015 17.9111C37.7595 19.7251 36.8395 21.4201 35.6523 22.9962C34.9697 23.8883 34.198 24.7209 33.2482 25.3752C32.2391 26.0591 31.141 26.3862 29.9241 26.297C28.826 26.2375 27.8762 25.8212 27.0155 25.167C26.0361 24.4236 25.2348 23.5017 24.5521 22.5204C23.6321 21.1822 22.8604 19.7845 22.2074 18.2977C21.139 15.9187 20.397 13.4207 19.8331 10.893C19.6253 9.97117 19.4769 9.01958 19.2988 8.06798C19.2988 8.0085 19.2988 7.91929 19.3285 7.88955C19.5066 7.68139 19.6847 7.47323 19.8924 7.26507C20.0112 7.14612 20.1596 7.05691 20.2783 6.96769C20.3673 6.87848 20.4563 6.87848 20.5454 6.96769C20.9906 7.38402 21.5248 7.68139 22.1184 7.80034C24.0773 8.2464 26.0658 6.99743 26.511 5.03476C26.9859 2.9234 25.5909 0.871519 23.454 0.574145C21.7919 0.336246 20.1892 1.28784 19.566 2.83419C19.5066 2.95314 19.4472 3.04235 19.3285 3.10183C18.3491 3.66684 17.4587 4.3508 16.7464 5.21318C16.2715 5.7782 15.856 6.37294 15.7076 7.11638C15.5889 7.65165 15.5889 8.21666 15.7076 8.75194C15.8857 9.76301 16.0638 10.7741 16.2715 11.7852C16.5683 13.3315 17.0135 14.8481 17.5478 16.3052C18.082 17.8219 18.6756 19.3385 19.3582 20.7956C20.1002 22.3717 20.9609 23.8586 22.0294 25.2265C23.0088 26.5052 24.1366 27.6352 25.5019 28.5273C25.7987 28.7058 26.1251 28.8842 26.4219 29.0626C26.4813 29.0923 26.5407 29.1518 26.5407 29.2113C26.8078 30.6387 27.3717 31.9174 28.2918 33.0474C28.3214 33.0772 28.3511 33.1664 28.3511 33.2258C28.1137 34.6532 27.5794 35.9914 26.7484 37.1512C25.4128 38.9949 23.6617 40.1844 21.4655 40.7494C20.486 40.9873 19.5066 41.0468 18.4975 40.9576C17.2213 40.8386 16.0044 40.5115 14.8766 39.887C12.9177 38.8165 11.4931 37.2701 10.7214 35.1588C10.7214 35.129 10.6918 35.0993 10.6918 35.0696C10.8105 35.0101 10.9589 34.9804 11.0776 34.9209C13.5707 33.8503 15.114 31.9769 15.5592 29.3005C16.0044 26.6539 15.1437 24.3938 13.1849 22.5798C12.057 21.539 10.7214 20.9443 9.20779 20.7659C6.74439 20.4982 4.63714 21.2714 2.91572 23.0854C1.90662 24.1559 1.28334 25.4346 1.04591 26.8918C0.719433 29.0329 1.22398 30.9658 2.58924 32.6608C3.68739 33.999 5.08233 34.8317 6.74439 35.2183C6.8631 35.248 6.89278 35.2777 6.95214 35.3967C7.60509 37.6567 8.7626 39.5897 10.5137 41.1955C12.2351 42.8013 14.283 43.8421 16.598 44.3476C17.251 44.4963 17.9039 44.5261 18.5569 44.6153C18.6162 44.6153 18.6756 44.645 18.7349 44.645C19.1208 44.645 19.5363 44.645 19.9221 44.645C19.9815 44.645 20.0408 44.6153 20.0705 44.6153C20.397 44.5855 20.7235 44.5558 21.0499 44.5261C22.4746 44.3179 23.8398 43.9016 25.1457 43.2176C27.5498 41.9686 29.3899 40.1547 30.6661 37.7459C31.3784 36.4077 31.8533 34.9506 32.0611 33.434C32.0611 33.3745 32.0907 33.3151 32.1501 33.2853C32.5656 32.869 32.9218 32.3635 33.2186 31.8579C33.6638 31.0253 33.9902 30.1332 34.1386 29.1816C34.1683 29.0923 34.198 29.0031 34.287 28.9734C34.9993 28.6165 35.682 28.1705 36.2756 27.6352C37.7002 26.4457 38.828 25.0183 39.8074 23.4422C40.8462 21.8067 41.6476 20.0522 42.3599 18.2382C43.5174 15.2942 44.4374 12.2907 44.9123 9.13853C44.853 8.93036 44.9123 8.57351 44.9717 8.2464C44.9717 8.03824 44.9717 7.83008 44.9717 7.62192ZM4.57778 28.1705C4.57778 26.1186 6.18047 24.5128 8.22836 24.483C10.2169 24.4533 11.8493 25.9996 11.9086 28.0515C11.968 30.2224 10.2763 31.8282 8.25805 31.8282C6.21015 31.8282 4.57778 30.2224 4.57778 28.1705Z"/>
        <path d="M10.0684 27.7603C10.0684 26.7492 9.23733 25.9166 8.22823 25.9166C7.21912 25.9166 6.3881 26.7492 6.41778 27.7603C6.41778 28.7714 7.2488 29.604 8.25791 29.5743C9.26701 29.604 10.0684 28.7714 10.0684 27.7603Z"/>
    </symbol>
</svg>
<svg display="none" xmlns="http://www.w3.org/2000/svg">
    <symbol id="icon-calendar" viewBox="0 0 18 18">
        <path d="M12.7864 7.22024C12.8541 7.28988 12.9078 7.37261 12.9445 7.46368C12.9811 7.55476 13 7.6524 13 7.751C13 7.84961 12.9811 7.94725 12.9445 8.03833C12.9078 8.1294 12.8541 8.21213 12.7864 8.28177L8.42397 12.7798C8.35643 12.8496 8.2762 12.905 8.18787 12.9428C8.09953 12.9805 8.00484 13 7.9092 13C7.81357 13 7.71887 12.9805 7.63054 12.9428C7.54221 12.905 7.46198 12.8496 7.39444 12.7798L5.21322 10.5308C5.14562 10.4611 5.092 10.3783 5.05541 10.2872C5.01883 10.1962 5 10.0986 5 10C5 9.90143 5.01883 9.80382 5.05541 9.71275C5.092 9.62168 5.14562 9.53894 5.21322 9.46924C5.34975 9.32847 5.53492 9.24939 5.72799 9.24939C5.82359 9.24939 5.91826 9.2688 6.00658 9.30652C6.0949 9.34425 6.17516 9.39954 6.24276 9.46924L7.9092 11.189L11.7569 7.22024C11.8244 7.15043 11.9046 7.09504 11.993 7.05725C12.0813 7.01945 12.176 7 12.2716 7C12.3673 7 12.462 7.01945 12.5503 7.05725C12.6386 7.09504 12.7189 7.15043 12.7864 7.22024Z"/>
        <path d="M3.9375 0C4.08668 0 4.22976 0.0592632 4.33525 0.164752C4.44074 0.270242 4.5 0.413316 4.5 0.5625V1.125H13.5V0.5625C13.5 0.413316 13.5593 0.270242 13.6648 0.164752C13.7702 0.0592632 13.9133 0 14.0625 0C14.2117 0 14.3548 0.0592632 14.4602 0.164752C14.5657 0.270242 14.625 0.413316 14.625 0.5625V1.125H15.75C16.3467 1.125 16.919 1.36205 17.341 1.78401C17.7629 2.20597 18 2.77826 18 3.375V15.75C18 16.3467 17.7629 16.919 17.341 17.341C16.919 17.7629 16.3467 18 15.75 18H2.25C1.65326 18 1.08097 17.7629 0.65901 17.341C0.237053 16.919 0 16.3467 0 15.75V3.375C0 2.77826 0.237053 2.20597 0.65901 1.78401C1.08097 1.36205 1.65326 1.125 2.25 1.125H3.375V0.5625C3.375 0.413316 3.43426 0.270242 3.53975 0.164752C3.64524 0.0592632 3.78832 0 3.9375 0V0ZM1.125 4.5V15.75C1.125 16.0484 1.24353 16.3345 1.4545 16.5455C1.66548 16.7565 1.95163 16.875 2.25 16.875H15.75C16.0484 16.875 16.3345 16.7565 16.5455 16.5455C16.7565 16.3345 16.875 16.0484 16.875 15.75V4.5H1.125Z"/>
    </symbol>
</svg>



