<svg width="116" height="117" viewBox="0 0 116 117" fill="none" xmlns="http://www.w3.org/2000/svg">
<path d="M0 19.5912C0.0781145 19.0444 0.156229 18.4976 0.312458 17.9508C0.781145 16.2323 1.71852 14.8262 2.81212 13.4983C4.8431 11.0767 7.26465 9.20199 9.92054 7.6397C10.0768 7.56159 10.233 7.32725 10.3111 7.17102C11.7953 3.26529 15.5448 0.843745 19.763 0.999974C24.2155 1.1562 28.1212 4.59324 28.8242 9.04576C29.6054 14.2013 26.4808 18.9663 21.4034 20.0599C18.2007 20.7629 15.2323 19.9818 12.7327 17.7946C12.6545 17.7165 12.5764 17.6384 12.4983 17.5602C11.6391 18.1852 10.8579 18.8101 10.1549 19.5131C9.68619 19.9818 9.60808 20.5286 9.76431 21.1535C11.1704 29.9023 13.5919 38.4168 17.029 46.6188C18.9818 51.3838 21.4034 55.8363 24.5279 59.9764C26.3246 62.3198 28.3556 64.507 30.8552 66.2256C33.5111 68.0222 36.4013 68.8815 39.604 68.6471C42.4943 68.4909 44.9939 67.3973 47.2593 65.6788C49.837 63.7259 51.9461 61.3044 53.7428 58.7266C56.1643 55.2114 58.1953 51.54 59.9138 47.6343C62.7259 41.3852 64.6788 34.8235 66.163 28.1838C66.7098 25.7623 67.1003 23.2626 67.569 20.7629C67.569 20.6067 67.569 20.3724 67.4909 20.2943C67.0222 19.7474 66.5535 19.2006 66.0067 18.6538C65.6943 18.3414 65.3037 18.107 64.9912 17.8727C64.7569 17.6384 64.5226 17.6384 64.2882 17.8727C63.1165 18.9663 61.7104 19.7474 60.1481 20.0599C54.9926 21.2316 49.7589 17.9508 48.5872 12.7953C47.3374 7.24913 51.0088 1.85923 56.633 1.07809C61.0074 0.453173 65.2256 2.95284 66.866 7.01479C67.0222 7.32725 67.1785 7.56159 67.4909 7.71782C70.0687 9.20199 72.4121 10.9986 74.2869 13.2639C75.5367 14.7481 76.6303 16.3104 77.0209 18.2633C77.3333 19.6693 77.3333 21.1535 77.0209 22.5596C76.5522 25.2155 76.0835 27.8714 75.5367 30.5272C74.7555 34.5892 73.5838 38.573 72.1778 42.4007C70.7717 46.3845 69.2094 50.3683 67.4128 54.1959C65.4599 58.336 63.1946 62.2417 60.3825 65.835C57.8047 69.1939 54.8364 72.1623 51.2431 74.5057C50.4619 74.9744 49.6027 75.4431 48.8215 75.9118C48.6653 75.9899 48.5091 76.1461 48.5091 76.3023C47.8061 80.0518 46.3219 83.4108 43.9003 86.3791C43.8222 86.4572 43.7441 86.6916 43.7441 86.8478C44.369 90.5973 45.7751 94.1124 47.9623 97.1589C51.4774 102.002 56.0862 105.127 61.8667 106.611C64.4444 107.236 67.0222 107.392 69.6781 107.158C73.037 106.845 76.2397 105.986 79.2081 104.345C84.3636 101.533 88.1131 97.4714 90.1441 91.9252C90.1441 91.8471 90.2222 91.769 90.2222 91.6909C89.9098 91.5347 89.5192 91.4565 89.2067 91.3003C82.6451 88.4882 78.5832 83.567 77.4114 76.5367C76.2397 69.5845 78.505 63.6478 83.6606 58.8828C86.629 56.1488 90.1441 54.5865 94.1279 54.1178C100.611 53.4148 106.158 55.4458 110.688 60.2108C113.344 63.0229 114.985 66.3818 115.609 70.2094C116.469 75.8336 115.141 80.9111 111.547 85.3636C108.657 88.8788 104.986 91.066 100.611 92.0815C100.299 92.1596 100.221 92.2377 100.065 92.5501C98.3461 98.4868 95.2997 103.564 90.6909 107.782C86.1603 112.001 80.7704 114.735 74.6774 116.063C72.9589 116.453 71.2404 116.531 69.5219 116.766C69.3657 116.766 69.2094 116.844 69.0532 116.844C68.0377 116.844 66.9441 116.844 65.9286 116.844C65.7724 116.844 65.6162 116.766 65.538 116.766C64.6788 116.688 63.8195 116.609 62.9603 116.531C59.2108 115.984 55.6175 114.891 52.1805 113.094C45.8532 109.813 41.0101 105.048 37.6512 98.7212C35.7764 95.206 34.5266 91.3784 33.9798 87.3946C33.9798 87.2384 33.9017 87.0821 33.7455 87.004C32.6519 85.9104 31.7145 84.5825 30.9333 83.2545C29.7616 81.0673 28.9024 78.7239 28.5118 76.2242C28.4337 75.9899 28.3556 75.7555 28.1212 75.6774C26.2465 74.74 24.4498 73.5683 22.8875 72.1623C19.138 69.0377 16.1697 65.2882 13.5919 61.1481C10.8579 56.8518 8.74882 52.2431 6.87407 47.4781C3.82761 39.7448 1.40606 31.8552 0.156229 23.5751C0.312458 23.0283 0.156229 22.0909 0 21.2316C0 20.6848 0 20.138 0 19.5912ZM106.314 73.5683C106.314 68.1784 102.096 63.9602 96.7057 63.8821C91.4721 63.804 87.1758 67.866 87.0195 73.2559C86.8633 78.9582 91.3158 83.1764 96.6276 83.1764C102.018 83.1764 106.314 78.9582 106.314 73.5683Z" fill="white"/>
<path d="M91.8623 72.4903C91.8623 69.8344 94.0495 67.6472 96.7054 67.6472C99.3613 67.6472 101.548 69.8344 101.47 72.4903C101.47 75.1461 99.2832 77.3333 96.6273 77.2552C93.9714 77.3333 91.8623 75.1461 91.8623 72.4903Z" fill="white"/>
</svg>
