<svg width="128" height="89" viewBox="0 0 128 89" fill="none" xmlns="http://www.w3.org/2000/svg">
<g clip-path="url(#clip0_935_7472)">
<path d="M52.4477 69.4466C52.4477 72.9003 52.4477 75.9821 52.4477 79.3296C53.4523 79.3827 54.3511 79.489 55.3028 79.489C61.6472 79.489 67.9917 79.5421 74.3362 79.489C76.5039 79.489 78.4601 79.489 77.7199 82.8896C78.8302 82.9427 79.6762 83.049 80.5221 83.049C89.2458 83.049 97.9694 83.1021 106.693 83.049C110.817 83.049 112.667 81.1361 112.72 77.0448C112.72 74.2287 112.403 71.3063 112.826 68.5433C113.461 64.3988 111.504 60.9451 110.341 57.2788C110.235 56.9069 109.918 56.4287 109.601 56.2161C105.53 53.7188 106.059 49.8931 106.587 46.0675C106.799 44.5797 107.169 43.0919 107.169 41.6042C107.169 39.0006 106.693 36.769 104.102 35.0687C100.719 32.837 99.1326 25.3982 101.142 21.8382C101.988 20.3504 103.679 18.9158 105.266 18.4907C111.24 16.8436 117.32 16.9498 123.294 18.3845C126.467 19.1284 127.947 21.5725 128.106 24.8137C128.264 29.5427 127.418 33.4746 123.083 36.5564C121.656 37.566 121.708 41.0197 121.603 43.4107C121.497 45.6955 122.501 48.0334 122.237 50.2119C122.026 52.0716 120.757 53.7719 119.858 55.5254C119.276 56.6412 118.483 57.6507 117.796 58.7666C114.359 64.3457 115.998 70.5093 115.787 76.4603C115.575 83.049 112.826 85.9713 106.217 85.9713C97.8637 85.9713 89.4572 85.9713 81.1037 85.9713C80.152 85.9713 79.2003 85.9713 78.0372 85.9713C78.1429 88.7875 76.5568 89.0531 74.442 89C53.558 88.9469 32.6741 88.9469 11.7902 89C9.30524 89 8.35357 88.3624 8.45931 85.7057C8.6708 78.7451 7.56051 79.5421 14.6981 79.489C21.0425 79.4358 27.3342 79.489 33.7844 79.489C33.7844 76.0884 33.7844 72.9003 33.7844 69.4466C32.727 69.4466 31.8282 69.4466 30.8765 69.4466C23.316 69.4466 15.7026 69.4466 8.14209 69.4466C2.64354 69.4466 0.0528707 66.7899 0.0528707 61.2639C0 43.6764 0 26.0358 0 8.39522C0 2.49731 2.48492 0 8.35357 0C31.5109 0 54.7212 0 77.8786 0C83.7472 0 86.1793 2.49731 86.1793 8.44836C86.1793 26.089 86.1793 43.6764 86.1793 61.317C86.1793 66.843 83.5886 69.4466 78.09 69.4466C70.5824 69.4997 63.1276 69.4466 55.62 69.4466C54.6154 69.4466 53.558 69.4466 52.4477 69.4466ZM43.354 66.5773C54.8798 66.5773 66.4585 66.5773 77.9843 66.5773C81.8439 66.5773 83.2185 65.1958 83.2185 61.2639C83.2185 43.5702 83.2185 25.8233 83.2185 8.12955C83.2185 4.25075 81.8439 2.92239 77.8786 2.92239C54.7741 2.92239 31.6696 2.92239 8.56506 2.92239C4.22966 2.92239 3.01363 4.14448 3.01363 8.60776C3.01363 25.9827 3.01363 43.3045 3.01363 60.6794C3.01363 65.4615 4.12392 66.5242 8.98802 66.5773C20.4081 66.5773 31.881 66.5242 43.354 66.5773ZM103.838 26.4078C102.886 29.7021 104.314 31.6681 106.693 33.5809C107.962 34.5904 109.337 36.2376 109.442 37.7254C109.76 41.0197 109.548 44.3672 109.231 47.7146C108.967 50.2651 109.019 52.3904 111.451 53.9845C112.297 54.5158 112.72 55.791 113.249 56.8006C113.566 57.3851 113.831 58.0758 113.936 58.3415C115.47 56.3755 117.003 54.6752 118.325 52.8155C118.906 52.0185 119.276 50.9027 119.329 49.9463C119.382 48.4585 118.959 46.9707 118.8 45.483C118.219 40.5946 117.69 35.7594 122.924 32.5713C125.198 31.1899 125.198 28.8519 124.775 26.4609C117.637 26.4078 110.711 26.4078 103.838 26.4078ZM74.7063 82.6239C53.558 82.6239 32.6212 82.6239 11.5787 82.6239C11.5787 83.7928 11.5787 84.7493 11.5787 85.8651C32.6741 85.8651 53.6109 85.8651 74.7063 85.8651C74.7063 84.8024 74.7063 83.846 74.7063 82.6239ZM37.1152 69.5528C37.1152 73.0066 37.1152 76.1946 37.1152 79.5421C39.2829 79.5421 41.1863 79.5421 43.1425 79.5421C45.1516 79.5421 47.1078 79.5421 49.1169 79.5421C49.1169 76.0352 49.1169 72.9003 49.1169 69.5528C45.8918 69.5528 42.8253 69.5528 39.7588 69.5528C38.9128 69.5528 38.0669 69.5528 37.1152 69.5528ZM124.828 23.1666C121.021 19.2346 106.534 19.394 103.838 23.1666C110.817 23.1666 117.584 23.1666 124.828 23.1666Z" fill="#1E90FF"/>
<path d="M114.042 1.85947C117.637 3.02842 120.756 3.93171 123.717 5.15379C124.404 5.41947 124.721 6.69469 125.25 7.49171C124.351 7.59797 123.241 8.07618 122.554 7.70424C116.526 4.62245 110.711 4.88812 104.842 8.12932C104.155 8.50126 103.044 8.18245 102.093 8.18245C102.516 7.3323 102.727 6.00394 103.362 5.73827C106.904 4.25051 110.552 3.08156 114.042 1.85947Z" fill="#1E90FF"/>
<path d="M113.936 8.8735C117.531 10.0425 120.703 10.9457 123.77 12.1147C124.457 12.3804 124.774 13.6556 125.197 14.5057C124.298 14.612 123.188 15.0371 122.501 14.7183C116.526 11.6365 110.711 11.849 104.895 15.0902C104.155 15.5153 103.044 15.2496 102.146 15.2496C102.568 14.3463 102.78 12.9117 103.467 12.646C106.904 11.2114 110.446 10.0956 113.936 8.8735Z" fill="#1E90FF"/>
<path d="M43.3521 66.5774C31.8791 66.5774 20.4062 66.5774 8.98611 66.5774C4.122 66.5774 3.01172 65.4616 3.01172 60.6795C3.01172 43.3046 3.01172 25.9828 3.01172 8.60786C3.01172 4.14458 4.22774 2.92249 8.61601 2.92249C31.7205 2.92249 54.825 2.92249 77.9295 2.92249C81.842 2.92249 83.2166 4.30398 83.2695 8.12965C83.2695 25.8234 83.2695 43.5702 83.2695 61.264C83.2695 65.1959 81.8948 66.5243 78.0353 66.5774C66.4566 66.5774 54.8779 66.5774 43.3521 66.5774ZM43.0877 63.1237C43.0877 63.1237 43.0877 63.0705 43.0877 63.1237C54.2963 63.1237 65.452 63.0705 76.6606 63.1237C78.9341 63.1237 79.9915 62.6455 79.9386 60.0419C79.8329 43.1452 79.8329 26.2485 79.9386 9.35174C79.9386 6.96069 79.0927 6.32308 76.8721 6.32308C54.4021 6.37622 31.932 6.37622 9.46195 6.32308C7.02989 6.32308 6.2897 7.06696 6.2897 9.56428C6.39544 26.3547 6.39544 43.1983 6.2897 59.9888C6.2897 62.4861 7.13564 63.1768 9.51482 63.1768C20.6705 63.0705 31.8791 63.1237 43.0877 63.1237Z" fill="#1E90FF"/>
<path d="M74.7087 82.6237C74.7087 83.8457 74.7087 84.749 74.7087 85.8649C53.6133 85.8649 32.6765 85.8649 11.5811 85.8649C11.5811 84.749 11.5811 83.7395 11.5811 82.6237C32.6236 82.6237 53.5604 82.6237 74.7087 82.6237Z" fill="#1E90FF"/>
<path d="M37.1172 69.553C38.016 69.553 38.9148 69.553 39.7607 69.553C42.8272 69.553 45.8937 69.553 49.1188 69.553C49.1188 72.9004 49.1188 76.0354 49.1188 79.5422C47.1098 79.5422 45.1007 79.5422 43.1444 79.5422C41.2411 79.5422 39.2849 79.5422 37.1172 79.5422C37.1172 76.1948 37.1172 73.0067 37.1172 69.553Z" fill="#1E90FF"/>
<path d="M124.829 23.1668C117.585 23.1668 110.765 23.1668 103.839 23.1668C106.535 19.3942 121.022 19.2348 124.829 23.1668Z" fill="white"/>
<path d="M76.7681 9.45779C76.7681 26.3014 76.7681 43.0918 76.7681 60.0417C54.351 60.0417 32.0395 60.0417 9.5166 60.0417C9.5166 43.1981 9.5166 26.4076 9.5166 9.45779C31.9338 9.45779 54.2452 9.45779 76.7681 9.45779ZM42.9838 53.8781C54.6682 53.7187 64.6079 49.6805 73.0143 41.7635C74.4418 40.4351 74.7062 39.3724 73.2258 37.8315C67.1457 31.296 61.277 24.6011 55.144 18.1187C54.4567 17.3748 52.8177 16.8966 51.7603 17.1091C45.9445 18.1718 40.1816 18.3312 34.4716 17.0029C32.7268 16.5778 31.7223 17.056 30.612 18.3312C24.902 24.7605 19.1391 31.1897 13.2176 37.5127C11.5257 39.3193 11.6843 40.4351 13.429 42.0823C21.8355 49.8399 31.7752 53.7187 42.9838 53.8781Z" fill="#1E90FF"/>
<path d="M42.9852 53.8782C31.7237 53.7188 21.8369 49.7869 13.4304 42.0292C11.6857 40.4352 11.5271 39.2663 13.2189 37.4597C19.1405 31.1367 24.9034 24.7075 30.6663 18.2251C31.7766 17.003 32.7811 16.5248 34.5258 16.8967C40.2887 18.2251 46.0517 18.0657 51.8146 17.003C52.872 16.7904 54.4581 17.2686 55.1983 18.0125C61.2784 24.4949 67.1999 31.1898 73.2801 37.7254C74.7605 39.3194 74.4961 40.329 73.0686 41.6573C64.6093 49.7337 54.6696 53.7719 42.9852 53.8782ZM15.3866 39.6382C31.8823 55.8973 58.2648 53.2937 70.6894 39.4788C65.0851 33.2621 59.4808 27.0454 53.7708 20.8818C53.2949 20.3504 52.2904 20.1379 51.4973 20.1379C45.893 20.0848 40.2887 20.0848 34.6844 20.1379C33.9971 20.1379 33.0455 20.2442 32.6225 20.7224C26.8596 26.9391 21.2024 33.2089 15.3866 39.6382Z" fill="white"/>
</g>
<defs>
<clipPath id="clip0_935_7472">
<rect width="128" height="89" fill="white"/>
</clipPath>
</defs>
</svg>
